<svg width="875" height="176" viewBox="0 0 875 176" fill="none" xmlns="http://www.w3.org/2000/svg">
<rect width="875" height="176" fill="white"/>
<rect y="88" width="290" height="88" fill="black" fill-opacity="0.87"/>
<rect x="290" y="88" width="295" height="88" fill="black" fill-opacity="0.6"/>
<rect x="585" y="88" width="290" height="88" fill="black" fill-opacity="0.38"/>
<path d="M220.915 154.197H219.384L218.864 157H217.716L218.235 154.197H216.656V153.117H218.44L218.837 150.978H217.176V149.891H219.042L219.575 147.047H220.717L220.184 149.891H221.722L222.255 147.047H223.396L222.863 149.891H224.285V150.978H222.658L222.262 153.117H223.772V154.197H222.057L221.537 157H220.396L220.915 154.197ZM219.589 153.117H221.12L221.517 150.978H219.985L219.589 153.117ZM231.692 152.782H227.686V157H225.957V147.047H232.28V148.441H227.686V151.401H231.692V152.782ZM239.789 152.782H235.783V157H234.054V147.047H240.377V148.441H235.783V151.401H239.789V152.782ZM247.887 152.782H243.881V157H242.151V147.047H248.474V148.441H243.881V151.401H247.887V152.782ZM255.984 152.782H251.978V157H250.248V147.047H256.572V148.441H251.978V151.401H255.984V152.782ZM264.081 152.782H260.075V157H258.346V147.047H264.669V148.441H260.075V151.401H264.081V152.782ZM272.178 152.782H268.172V157H266.443V147.047H272.766V148.441H268.172V151.401H272.178V152.782Z" fill="white"/>
<path d="M512.915 154.197H511.384L510.864 157H509.716L510.235 154.197H508.656V153.117H510.44L510.837 150.978H509.176V149.891H511.042L511.575 147.047H512.717L512.184 149.891H513.722L514.255 147.047H515.396L514.863 149.891H516.285V150.978H514.658L514.262 153.117H515.772V154.197H514.057L513.537 157H512.396L512.915 154.197ZM511.589 153.117H513.12L513.517 150.978H511.985L511.589 153.117ZM523.692 152.782H519.686V157H517.957V147.047H524.28V148.441H519.686V151.401H523.692V152.782ZM531.789 152.782H527.783V157H526.054V147.047H532.377V148.441H527.783V151.401H531.789V152.782ZM539.887 152.782H535.881V157H534.151V147.047H540.474V148.441H535.881V151.401H539.887V152.782ZM547.984 152.782H543.978V157H542.248V147.047H548.572V148.441H543.978V151.401H547.984V152.782ZM556.081 152.782H552.075V157H550.346V147.047H556.669V148.441H552.075V151.401H556.081V152.782ZM564.178 152.782H560.172V157H558.443V147.047H564.766V148.441H560.172V151.401H564.178V152.782Z" fill="white"/>
<path d="M803.915 154.197H802.384L801.864 157H800.716L801.235 154.197H799.656V153.117H801.44L801.837 150.978H800.176V149.891H802.042L802.575 147.047H803.717L803.184 149.891H804.722L805.255 147.047H806.396L805.863 149.891H807.285V150.978H805.658L805.262 153.117H806.772V154.197H805.057L804.537 157H803.396L803.915 154.197ZM802.589 153.117H804.12L804.517 150.978H802.985L802.589 153.117ZM814.692 152.782H810.686V157H808.957V147.047H815.28V148.441H810.686V151.401H814.692V152.782ZM822.789 152.782H818.783V157H817.054V147.047H823.377V148.441H818.783V151.401H822.789V152.782ZM830.887 152.782H826.881V157H825.151V147.047H831.474V148.441H826.881V151.401H830.887V152.782ZM838.984 152.782H834.978V157H833.248V147.047H839.572V148.441H834.978V151.401H838.984V152.782ZM847.081 152.782H843.075V157H841.346V147.047H847.669V148.441H843.075V151.401H847.081V152.782ZM855.178 152.782H851.172V157H849.443V147.047H855.766V148.441H851.172V151.401H855.178V152.782Z" fill="white"/>
<path d="M835.666 131.265H836.678C837.188 131.26 837.591 131.128 837.888 130.868C838.188 130.608 838.339 130.232 838.339 129.74C838.339 129.266 838.214 128.899 837.963 128.64C837.717 128.375 837.339 128.243 836.828 128.243C836.382 128.243 836.015 128.373 835.728 128.633C835.44 128.888 835.297 129.223 835.297 129.638H833.636C833.636 129.127 833.77 128.662 834.039 128.243C834.312 127.824 834.691 127.498 835.174 127.266C835.661 127.029 836.206 126.91 836.808 126.91C837.801 126.91 838.58 127.161 839.146 127.662C839.715 128.159 840 128.852 840 129.74C840 130.187 839.856 130.608 839.569 131.005C839.287 131.397 838.92 131.693 838.469 131.894C839.016 132.08 839.43 132.374 839.713 132.775C840 133.176 840.144 133.655 840.144 134.211C840.144 135.104 839.836 135.815 839.221 136.344C838.61 136.872 837.806 137.137 836.808 137.137C835.851 137.137 835.067 136.882 834.456 136.371C833.845 135.861 833.54 135.182 833.54 134.334H835.201C835.201 134.771 835.347 135.127 835.639 135.4C835.935 135.674 836.331 135.811 836.828 135.811C837.343 135.811 837.749 135.674 838.045 135.4C838.341 135.127 838.489 134.73 838.489 134.211C838.489 133.687 838.334 133.284 838.024 133.001C837.715 132.718 837.254 132.577 836.644 132.577H835.666V131.265ZM848.371 129.672C848.371 130.16 848.245 130.595 847.995 130.978C847.744 131.356 847.402 131.654 846.969 131.873C847.489 132.115 847.888 132.445 848.166 132.864C848.448 133.284 848.589 133.757 848.589 134.286C848.589 135.161 848.293 135.856 847.701 136.371C847.108 136.882 846.32 137.137 845.336 137.137C844.347 137.137 843.554 136.879 842.957 136.364C842.364 135.849 842.068 135.157 842.068 134.286C842.068 133.753 842.209 133.274 842.492 132.851C842.774 132.427 843.171 132.101 843.681 131.873C843.253 131.654 842.913 131.356 842.663 130.978C842.417 130.595 842.294 130.16 842.294 129.672C842.294 128.824 842.567 128.152 843.114 127.655C843.661 127.159 844.399 126.91 845.329 126.91C846.263 126.91 847.004 127.159 847.55 127.655C848.097 128.152 848.371 128.824 848.371 129.672ZM846.928 134.204C846.928 133.712 846.78 133.315 846.484 133.015C846.192 132.709 845.805 132.557 845.322 132.557C844.839 132.557 844.451 132.707 844.16 133.008C843.873 133.309 843.729 133.707 843.729 134.204C843.729 134.692 843.87 135.081 844.153 135.373C844.44 135.665 844.834 135.811 845.336 135.811C845.837 135.811 846.226 135.669 846.504 135.387C846.787 135.104 846.928 134.71 846.928 134.204ZM846.716 129.733C846.716 129.3 846.591 128.945 846.34 128.667C846.09 128.384 845.753 128.243 845.329 128.243C844.905 128.243 844.57 128.378 844.324 128.646C844.078 128.911 843.955 129.273 843.955 129.733C843.955 130.189 844.078 130.551 844.324 130.82C844.574 131.089 844.912 131.224 845.336 131.224C845.759 131.224 846.094 131.089 846.34 130.82C846.591 130.551 846.716 130.189 846.716 129.733ZM850.391 128.961C850.391 128.359 850.585 127.867 850.972 127.484C851.359 127.097 851.867 126.903 852.496 126.903C853.134 126.903 853.645 127.097 854.028 127.484C854.415 127.867 854.609 128.371 854.609 128.995V129.487C854.609 130.084 854.415 130.574 854.028 130.957C853.645 131.34 853.139 131.531 852.51 131.531C851.895 131.531 851.387 131.344 850.986 130.971C850.589 130.592 850.391 130.084 850.391 129.446V128.961ZM851.553 129.487C851.553 129.802 851.64 130.057 851.813 130.253C851.99 130.444 852.223 130.54 852.51 130.54C852.793 130.54 853.02 130.444 853.194 130.253C853.367 130.057 853.453 129.793 853.453 129.46V128.961C853.453 128.646 853.364 128.391 853.187 128.195C853.014 127.999 852.783 127.901 852.496 127.901C852.209 127.901 851.979 128.002 851.806 128.202C851.637 128.398 851.553 128.658 851.553 128.981V129.487ZM855.176 134.56C855.176 133.949 855.374 133.454 855.771 133.076C856.167 132.698 856.673 132.509 857.288 132.509C857.908 132.509 858.414 132.698 858.806 133.076C859.202 133.454 859.401 133.965 859.401 134.607V135.093C859.401 135.685 859.209 136.175 858.826 136.562C858.448 136.945 857.94 137.137 857.302 137.137C856.664 137.137 856.149 136.948 855.757 136.569C855.37 136.187 855.176 135.683 855.176 135.059V134.56ZM856.338 135.093C856.338 135.403 856.427 135.658 856.605 135.858C856.787 136.054 857.019 136.152 857.302 136.152C857.594 136.152 857.821 136.059 857.986 135.872C858.154 135.681 858.238 135.414 858.238 135.072V134.56C858.238 134.241 858.15 133.985 857.972 133.794C857.794 133.603 857.566 133.507 857.288 133.507C857.006 133.507 856.776 133.603 856.598 133.794C856.425 133.985 856.338 134.25 856.338 134.587V135.093ZM852.852 136.255L851.997 135.763L856.858 127.983L857.712 128.476L852.852 136.255Z" fill="white"/>
<path d="M546.913 126.999V128.373H546.708C545.778 128.387 545.035 128.642 544.479 129.139C543.924 129.635 543.593 130.34 543.488 131.251C544.021 130.69 544.703 130.41 545.532 130.41C546.412 130.41 547.104 130.72 547.61 131.34C548.121 131.96 548.376 132.759 548.376 133.739C548.376 134.751 548.077 135.571 547.48 136.2C546.888 136.825 546.109 137.137 545.143 137.137C544.149 137.137 543.342 136.77 542.723 136.036C542.107 135.302 541.8 134.341 541.8 133.151V132.584C541.8 130.839 542.224 129.471 543.071 128.482C543.924 127.493 545.147 126.999 546.742 126.999H546.913ZM545.129 131.75C544.764 131.75 544.429 131.853 544.124 132.058C543.823 132.263 543.602 132.536 543.461 132.878V133.384C543.461 134.122 543.616 134.71 543.926 135.147C544.236 135.58 544.637 135.797 545.129 135.797C545.621 135.797 546.011 135.612 546.298 135.243C546.585 134.874 546.729 134.389 546.729 133.787C546.729 133.186 546.583 132.696 546.291 132.317C545.999 131.939 545.612 131.75 545.129 131.75ZM556.589 132.81C556.589 134.241 556.321 135.321 555.783 136.05C555.25 136.774 554.436 137.137 553.342 137.137C552.267 137.137 551.456 136.784 550.909 136.077C550.366 135.366 550.088 134.316 550.075 132.926V131.203C550.075 129.772 550.341 128.699 550.875 127.983C551.412 127.268 552.23 126.91 553.329 126.91C554.418 126.91 555.229 127.259 555.762 127.956C556.3 128.653 556.576 129.697 556.589 131.087V132.81ZM554.928 130.95C554.928 130.016 554.801 129.332 554.546 128.899C554.29 128.462 553.885 128.243 553.329 128.243C552.786 128.243 552.388 128.451 552.132 128.865C551.877 129.275 551.743 129.918 551.729 130.793V133.049C551.729 133.979 551.859 134.671 552.119 135.127C552.379 135.583 552.786 135.811 553.342 135.811C553.876 135.811 554.27 135.601 554.525 135.182C554.78 134.758 554.915 134.097 554.928 133.199V130.95ZM558.391 128.961C558.391 128.359 558.585 127.867 558.972 127.484C559.359 127.097 559.867 126.903 560.496 126.903C561.134 126.903 561.645 127.097 562.028 127.484C562.415 127.867 562.609 128.371 562.609 128.995V129.487C562.609 130.084 562.415 130.574 562.028 130.957C561.645 131.34 561.139 131.531 560.51 131.531C559.895 131.531 559.387 131.344 558.986 130.971C558.589 130.592 558.391 130.084 558.391 129.446V128.961ZM559.553 129.487C559.553 129.802 559.64 130.057 559.813 130.253C559.99 130.444 560.223 130.54 560.51 130.54C560.793 130.54 561.02 130.444 561.194 130.253C561.367 130.057 561.453 129.793 561.453 129.46V128.961C561.453 128.646 561.364 128.391 561.187 128.195C561.014 127.999 560.783 127.901 560.496 127.901C560.209 127.901 559.979 128.002 559.806 128.202C559.637 128.398 559.553 128.658 559.553 128.981V129.487ZM563.176 134.56C563.176 133.949 563.374 133.454 563.771 133.076C564.167 132.698 564.673 132.509 565.288 132.509C565.908 132.509 566.414 132.698 566.806 133.076C567.202 133.454 567.401 133.965 567.401 134.607V135.093C567.401 135.685 567.209 136.175 566.826 136.562C566.448 136.945 565.94 137.137 565.302 137.137C564.664 137.137 564.149 136.948 563.757 136.569C563.37 136.187 563.176 135.683 563.176 135.059V134.56ZM564.338 135.093C564.338 135.403 564.427 135.658 564.605 135.858C564.787 136.054 565.019 136.152 565.302 136.152C565.594 136.152 565.821 136.059 565.986 135.872C566.154 135.681 566.238 135.414 566.238 135.072V134.56C566.238 134.241 566.15 133.985 565.972 133.794C565.794 133.603 565.566 133.507 565.288 133.507C565.006 133.507 564.776 133.603 564.598 133.794C564.425 133.985 564.338 134.25 564.338 134.587V135.093ZM560.852 136.255L559.997 135.763L564.858 127.983L565.712 128.476L560.852 136.255Z" fill="white"/>
<path d="M254.014 129.672C254.014 130.16 253.888 130.595 253.638 130.978C253.387 131.356 253.045 131.654 252.612 131.873C253.132 132.115 253.531 132.445 253.809 132.864C254.091 133.284 254.232 133.757 254.232 134.286C254.232 135.161 253.936 135.856 253.344 136.371C252.751 136.882 251.963 137.137 250.979 137.137C249.99 137.137 249.197 136.879 248.6 136.364C248.007 135.849 247.711 135.157 247.711 134.286C247.711 133.753 247.852 133.274 248.135 132.851C248.417 132.427 248.814 132.101 249.324 131.873C248.896 131.654 248.556 131.356 248.306 130.978C248.06 130.595 247.937 130.16 247.937 129.672C247.937 128.824 248.21 128.152 248.757 127.655C249.304 127.159 250.042 126.91 250.972 126.91C251.906 126.91 252.646 127.159 253.193 127.655C253.74 128.152 254.014 128.824 254.014 129.672ZM252.571 134.204C252.571 133.712 252.423 133.315 252.127 133.015C251.835 132.709 251.448 132.557 250.965 132.557C250.482 132.557 250.094 132.707 249.803 133.008C249.516 133.309 249.372 133.707 249.372 134.204C249.372 134.692 249.513 135.081 249.796 135.373C250.083 135.665 250.477 135.811 250.979 135.811C251.48 135.811 251.869 135.669 252.147 135.387C252.43 135.104 252.571 134.71 252.571 134.204ZM252.359 129.733C252.359 129.3 252.234 128.945 251.983 128.667C251.733 128.384 251.396 128.243 250.972 128.243C250.548 128.243 250.213 128.378 249.967 128.646C249.721 128.911 249.598 129.273 249.598 129.733C249.598 130.189 249.721 130.551 249.967 130.82C250.217 131.089 250.555 131.224 250.979 131.224C251.402 131.224 251.737 131.089 251.983 130.82C252.234 130.551 252.359 130.189 252.359 129.733ZM262.726 127.97L258.748 137H257.004L260.976 128.38H255.829V127.047H262.726V127.97ZM264.391 128.961C264.391 128.359 264.585 127.867 264.972 127.484C265.359 127.097 265.867 126.903 266.496 126.903C267.134 126.903 267.645 127.097 268.028 127.484C268.415 127.867 268.609 128.371 268.609 128.995V129.487C268.609 130.084 268.415 130.574 268.028 130.957C267.645 131.34 267.139 131.531 266.51 131.531C265.895 131.531 265.387 131.344 264.986 130.971C264.589 130.592 264.391 130.084 264.391 129.446V128.961ZM265.553 129.487C265.553 129.802 265.64 130.057 265.813 130.253C265.99 130.444 266.223 130.54 266.51 130.54C266.793 130.54 267.02 130.444 267.194 130.253C267.367 130.057 267.453 129.793 267.453 129.46V128.961C267.453 128.646 267.364 128.391 267.187 128.195C267.014 127.999 266.783 127.901 266.496 127.901C266.209 127.901 265.979 128.002 265.806 128.202C265.637 128.398 265.553 128.658 265.553 128.981V129.487ZM269.176 134.56C269.176 133.949 269.374 133.454 269.771 133.076C270.167 132.698 270.673 132.509 271.288 132.509C271.908 132.509 272.414 132.698 272.806 133.076C273.202 133.454 273.401 133.965 273.401 134.607V135.093C273.401 135.685 273.209 136.175 272.826 136.562C272.448 136.945 271.94 137.137 271.302 137.137C270.664 137.137 270.149 136.948 269.757 136.569C269.37 136.187 269.176 135.683 269.176 135.059V134.56ZM270.338 135.093C270.338 135.403 270.427 135.658 270.605 135.858C270.787 136.054 271.019 136.152 271.302 136.152C271.594 136.152 271.821 136.059 271.986 135.872C272.154 135.681 272.238 135.414 272.238 135.072V134.56C272.238 134.241 272.15 133.985 271.972 133.794C271.794 133.603 271.566 133.507 271.288 133.507C271.006 133.507 270.776 133.603 270.598 133.794C270.425 133.985 270.338 134.25 270.338 134.587V135.093ZM266.852 136.255L265.997 135.763L270.858 127.983L271.712 128.476L266.852 136.255Z" fill="white"/>
<path d="M24.9551 152.283C24.9551 153.258 24.7865 154.115 24.4492 154.854C24.112 155.587 23.6289 156.152 23 156.549C22.3757 156.941 21.6556 157.137 20.8398 157.137C20.0332 157.137 19.3132 156.941 18.6797 156.549C18.0508 156.152 17.5632 155.59 17.2168 154.86C16.875 154.131 16.7018 153.29 16.6973 152.338V151.777C16.6973 150.807 16.8682 149.95 17.21 149.207C17.5563 148.464 18.0417 147.897 18.666 147.505C19.2949 147.108 20.015 146.91 20.8262 146.91C21.6374 146.91 22.3551 147.106 22.9795 147.498C23.6084 147.885 24.0938 148.446 24.4355 149.18C24.7773 149.909 24.9505 150.759 24.9551 151.729V152.283ZM23.2256 151.764C23.2256 150.661 23.016 149.815 22.5967 149.228C22.182 148.64 21.5918 148.346 20.8262 148.346C20.0788 148.346 19.4932 148.64 19.0693 149.228C18.6501 149.811 18.4359 150.638 18.4268 151.709V152.283C18.4268 153.377 18.6387 154.222 19.0625 154.819C19.4909 155.416 20.0833 155.715 20.8398 155.715C21.6055 155.715 22.1934 155.423 22.6035 154.84C23.0182 154.257 23.2256 153.404 23.2256 152.283V151.764ZM28.4586 149.604L28.5064 150.458C29.0533 149.797 29.7711 149.467 30.6598 149.467C32.2001 149.467 32.984 150.349 33.0113 152.112V157H31.3502V152.208C31.3502 151.739 31.2477 151.392 31.0426 151.169C30.8421 150.941 30.5117 150.827 30.0514 150.827C29.3814 150.827 28.8824 151.13 28.5543 151.736V157H26.8932V149.604H28.4586ZM44.3592 154.437C44.3592 153.999 44.2042 153.662 43.8943 153.425C43.589 153.188 43.0353 152.949 42.2332 152.707C41.4311 152.465 40.7931 152.197 40.3191 151.9C39.4122 151.331 38.9588 150.588 38.9588 149.672C38.9588 148.87 39.2846 148.209 39.9363 147.689C40.5926 147.17 41.4425 146.91 42.4861 146.91C43.1788 146.91 43.7964 147.038 44.3387 147.293C44.881 147.548 45.3071 147.913 45.617 148.387C45.9269 148.856 46.0818 149.378 46.0818 149.952H44.3592C44.3592 149.433 44.1951 149.027 43.867 148.735C43.5434 148.439 43.0786 148.291 42.4725 148.291C41.9074 148.291 41.4676 148.412 41.1531 148.653C40.8432 148.895 40.6883 149.232 40.6883 149.665C40.6883 150.03 40.8569 150.335 41.1941 150.581C41.5314 150.823 42.0874 151.06 42.8621 151.292C43.6368 151.52 44.2589 151.782 44.7283 152.078C45.1977 152.37 45.5418 152.707 45.7605 153.09C45.9793 153.468 46.0887 153.912 46.0887 154.423C46.0887 155.252 45.7697 155.913 45.1316 156.405C44.4982 156.893 43.6368 157.137 42.5477 157.137C41.8276 157.137 41.1645 157.005 40.5584 156.74C39.9568 156.471 39.4874 156.102 39.1502 155.633C38.8175 155.163 38.6512 154.617 38.6512 153.992H40.3807C40.3807 154.557 40.5675 154.995 40.9412 155.305C41.3149 155.615 41.8504 155.77 42.5477 155.77C43.1492 155.77 43.6004 155.649 43.9012 155.407C44.2065 155.161 44.3592 154.838 44.3592 154.437ZM52.3266 156.275C51.8389 156.85 51.1462 157.137 50.2484 157.137C49.4464 157.137 48.838 156.902 48.4232 156.433C48.0131 155.963 47.808 155.284 47.808 154.396V149.604H49.4691V154.375C49.4691 155.314 49.8588 155.783 50.6381 155.783C51.4447 155.783 51.9893 155.494 52.2719 154.915V149.604H53.933V157H52.3676L52.3266 156.275ZM59.8975 151.121C59.6787 151.085 59.4531 151.066 59.2207 151.066C58.4596 151.066 57.9469 151.358 57.6826 151.941V157H56.0215V149.604H57.6074L57.6484 150.431C58.0495 149.788 58.6055 149.467 59.3164 149.467C59.5534 149.467 59.7493 149.499 59.9043 149.562L59.8975 151.121ZM62.068 157V150.834H60.94V149.604H62.068V148.927C62.068 148.106 62.2958 147.473 62.7516 147.026C63.2073 146.58 63.8453 146.356 64.6656 146.356C64.9573 146.356 65.2672 146.397 65.5953 146.479L65.5543 147.778C65.372 147.742 65.1601 147.724 64.9186 147.724C64.1256 147.724 63.7291 148.132 63.7291 148.947V149.604H65.233V150.834H63.7291V157H62.068ZM71.2658 157C71.1929 156.859 71.1291 156.629 71.0744 156.31C70.5458 156.861 69.8986 157.137 69.133 157.137C68.3902 157.137 67.784 156.925 67.3146 156.501C66.8452 156.077 66.6105 155.553 66.6105 154.929C66.6105 154.14 66.9022 153.536 67.4855 153.117C68.0734 152.693 68.912 152.481 70.0012 152.481H71.0197V151.996C71.0197 151.613 70.9126 151.308 70.6984 151.08C70.4842 150.848 70.1584 150.731 69.7209 150.731C69.3426 150.731 69.0327 150.827 68.7912 151.019C68.5497 151.205 68.4289 151.445 68.4289 151.736H66.7678C66.7678 151.331 66.9022 150.952 67.1711 150.602C67.44 150.246 67.8046 149.968 68.2648 149.768C68.7297 149.567 69.2469 149.467 69.8166 149.467C70.6825 149.467 71.3729 149.686 71.8879 150.123C72.4029 150.556 72.6672 151.167 72.6809 151.955V155.291C72.6809 155.956 72.7743 156.487 72.9611 156.884V157H71.2658ZM69.4406 155.804C69.7687 155.804 70.0764 155.724 70.3635 155.564C70.6551 155.405 70.8739 155.191 71.0197 154.922V153.527H70.1242C69.509 153.527 69.0464 153.634 68.7365 153.849C68.4266 154.063 68.2717 154.366 68.2717 154.758C68.2717 155.077 68.3765 155.332 68.5861 155.523C68.8003 155.71 69.0852 155.804 69.4406 155.804ZM77.8592 155.811C78.2739 155.811 78.618 155.69 78.8914 155.448C79.1648 155.207 79.3107 154.908 79.3289 154.553H80.8943C80.8761 155.013 80.7326 155.444 80.4637 155.845C80.1948 156.241 79.8302 156.556 79.3699 156.788C78.9096 157.021 78.4129 157.137 77.8797 157.137C76.8452 157.137 76.0249 156.802 75.4188 156.132C74.8126 155.462 74.5096 154.537 74.5096 153.356V153.186C74.5096 152.06 74.8104 151.16 75.4119 150.485C76.0135 149.806 76.8338 149.467 77.8729 149.467C78.7524 149.467 79.4679 149.724 80.0193 150.239C80.5753 150.75 80.867 151.422 80.8943 152.256H79.3289C79.3107 151.832 79.1648 151.483 78.8914 151.21C78.6225 150.937 78.2785 150.8 77.8592 150.8C77.3214 150.8 76.9067 150.996 76.615 151.388C76.3234 151.775 76.1753 152.365 76.1707 153.158V153.425C76.1707 154.227 76.3143 154.826 76.6014 155.223C76.893 155.615 77.3123 155.811 77.8592 155.811ZM85.8061 157.137C84.7533 157.137 83.8988 156.806 83.2426 156.146C82.5909 155.48 82.265 154.596 82.265 153.493V153.288C82.265 152.55 82.4063 151.891 82.6889 151.312C82.976 150.729 83.377 150.276 83.892 149.952C84.407 149.629 84.9812 149.467 85.6146 149.467C86.6218 149.467 87.3988 149.788 87.9457 150.431C88.4971 151.073 88.7729 151.982 88.7729 153.158V153.828H83.9398C83.99 154.439 84.1928 154.922 84.5482 155.277C84.9083 155.633 85.3594 155.811 85.9018 155.811C86.6628 155.811 87.2826 155.503 87.7611 154.888L88.6566 155.742C88.3604 156.184 87.9639 156.528 87.4672 156.774C86.975 157.016 86.4213 157.137 85.8061 157.137ZM85.6078 150.8C85.1521 150.8 84.7829 150.959 84.5004 151.278C84.2224 151.597 84.0447 152.042 83.9672 152.611H87.1322V152.488C87.0958 151.932 86.9477 151.513 86.6879 151.23C86.4281 150.943 86.0681 150.8 85.6078 150.8ZM96.1217 157H94.4605V146.5H96.1217V157ZM110.19 154.539L111.721 147.047H113.437L111.14 157H109.486L107.593 149.733L105.658 157H103.997L101.7 147.047H103.416L104.961 154.525L106.861 147.047H108.31L110.19 154.539ZM116.579 150.41C117.121 149.781 117.807 149.467 118.636 149.467C120.213 149.467 121.013 150.367 121.036 152.167V157H119.374V152.229C119.374 151.718 119.263 151.358 119.039 151.148C118.821 150.934 118.497 150.827 118.069 150.827C117.403 150.827 116.907 151.123 116.579 151.716V157H114.917V146.5H116.579V150.41ZM124.888 157H123.227V149.604H124.888V157ZM123.124 147.683C123.124 147.427 123.204 147.215 123.363 147.047C123.527 146.878 123.76 146.794 124.061 146.794C124.361 146.794 124.594 146.878 124.758 147.047C124.922 147.215 125.004 147.427 125.004 147.683C125.004 147.933 124.922 148.143 124.758 148.312C124.594 148.476 124.361 148.558 124.061 148.558C123.76 148.558 123.527 148.476 123.363 148.312C123.204 148.143 123.124 147.933 123.124 147.683ZM129.184 147.806V149.604H130.49V150.834H129.184V154.963C129.184 155.245 129.239 155.451 129.348 155.578C129.462 155.701 129.663 155.763 129.95 155.763C130.141 155.763 130.335 155.74 130.531 155.694V156.979C130.153 157.084 129.788 157.137 129.437 157.137C128.161 157.137 127.523 156.433 127.523 155.024V150.834H126.306V149.604H127.523V147.806H129.184ZM135.422 157.137C134.369 157.137 133.515 156.806 132.859 156.146C132.207 155.48 131.881 154.596 131.881 153.493V153.288C131.881 152.55 132.022 151.891 132.305 151.312C132.592 150.729 132.993 150.276 133.508 149.952C134.023 149.629 134.597 149.467 135.231 149.467C136.238 149.467 137.015 149.788 137.562 150.431C138.113 151.073 138.389 151.982 138.389 153.158V153.828H133.556C133.606 154.439 133.809 154.922 134.164 155.277C134.524 155.633 134.975 155.811 135.518 155.811C136.279 155.811 136.899 155.503 137.377 154.888L138.273 155.742C137.976 156.184 137.58 156.528 137.083 156.774C136.591 157.016 136.037 157.137 135.422 157.137ZM135.224 150.8C134.768 150.8 134.399 150.959 134.116 151.278C133.838 151.597 133.661 152.042 133.583 152.611H136.748V152.488C136.712 151.932 136.564 151.513 136.304 151.23C136.044 150.943 135.684 150.8 135.224 150.8Z" fill="white"/>
<path d="M316.955 152.283C316.955 153.258 316.786 154.115 316.449 154.854C316.112 155.587 315.629 156.152 315 156.549C314.376 156.941 313.656 157.137 312.84 157.137C312.033 157.137 311.313 156.941 310.68 156.549C310.051 156.152 309.563 155.59 309.217 154.86C308.875 154.131 308.702 153.29 308.697 152.338V151.777C308.697 150.807 308.868 149.95 309.21 149.207C309.556 148.464 310.042 147.897 310.666 147.505C311.295 147.108 312.015 146.91 312.826 146.91C313.637 146.91 314.355 147.106 314.979 147.498C315.608 147.885 316.094 148.446 316.436 149.18C316.777 149.909 316.951 150.759 316.955 151.729V152.283ZM315.226 151.764C315.226 150.661 315.016 149.815 314.597 149.228C314.182 148.64 313.592 148.346 312.826 148.346C312.079 148.346 311.493 148.64 311.069 149.228C310.65 149.811 310.436 150.638 310.427 151.709V152.283C310.427 153.377 310.639 154.222 311.062 154.819C311.491 155.416 312.083 155.715 312.84 155.715C313.605 155.715 314.193 155.423 314.604 154.84C315.018 154.257 315.226 153.404 315.226 152.283V151.764ZM320.459 149.604L320.506 150.458C321.053 149.797 321.771 149.467 322.66 149.467C324.2 149.467 324.984 150.349 325.011 152.112V157H323.35V152.208C323.35 151.739 323.248 151.392 323.043 151.169C322.842 150.941 322.512 150.827 322.051 150.827C321.381 150.827 320.882 151.13 320.554 151.736V157H318.893V149.604H320.459ZM336.359 154.437C336.359 153.999 336.204 153.662 335.894 153.425C335.589 153.188 335.035 152.949 334.233 152.707C333.431 152.465 332.793 152.197 332.319 151.9C331.412 151.331 330.959 150.588 330.959 149.672C330.959 148.87 331.285 148.209 331.936 147.689C332.593 147.17 333.443 146.91 334.486 146.91C335.179 146.91 335.796 147.038 336.339 147.293C336.881 147.548 337.307 147.913 337.617 148.387C337.927 148.856 338.082 149.378 338.082 149.952H336.359C336.359 149.433 336.195 149.027 335.867 148.735C335.543 148.439 335.079 148.291 334.472 148.291C333.907 148.291 333.468 148.412 333.153 148.653C332.843 148.895 332.688 149.232 332.688 149.665C332.688 150.03 332.857 150.335 333.194 150.581C333.531 150.823 334.087 151.06 334.862 151.292C335.637 151.52 336.259 151.782 336.728 152.078C337.198 152.37 337.542 152.707 337.761 153.09C337.979 153.468 338.089 153.912 338.089 154.423C338.089 155.252 337.77 155.913 337.132 156.405C336.498 156.893 335.637 157.137 334.548 157.137C333.828 157.137 333.165 157.005 332.558 156.74C331.957 156.471 331.487 156.102 331.15 155.633C330.818 155.163 330.651 154.617 330.651 153.992H332.381C332.381 154.557 332.568 154.995 332.941 155.305C333.315 155.615 333.85 155.77 334.548 155.77C335.149 155.77 335.6 155.649 335.901 155.407C336.207 155.161 336.359 154.838 336.359 154.437ZM344.327 156.275C343.839 156.85 343.146 157.137 342.248 157.137C341.446 157.137 340.838 156.902 340.423 156.433C340.013 155.963 339.808 155.284 339.808 154.396V149.604H341.469V154.375C341.469 155.314 341.859 155.783 342.638 155.783C343.445 155.783 343.989 155.494 344.272 154.915V149.604H345.933V157H344.368L344.327 156.275ZM351.897 151.121C351.679 151.085 351.453 151.066 351.221 151.066C350.46 151.066 349.947 151.358 349.683 151.941V157H348.021V149.604H349.607L349.648 150.431C350.049 149.788 350.605 149.467 351.316 149.467C351.553 149.467 351.749 149.499 351.904 149.562L351.897 151.121ZM354.068 157V150.834H352.94V149.604H354.068V148.927C354.068 148.106 354.296 147.473 354.752 147.026C355.207 146.58 355.845 146.356 356.666 146.356C356.957 146.356 357.267 146.397 357.595 146.479L357.554 147.778C357.372 147.742 357.16 147.724 356.919 147.724C356.126 147.724 355.729 148.132 355.729 148.947V149.604H357.233V150.834H355.729V157H354.068ZM363.266 157C363.193 156.859 363.129 156.629 363.074 156.31C362.546 156.861 361.899 157.137 361.133 157.137C360.39 157.137 359.784 156.925 359.315 156.501C358.845 156.077 358.611 155.553 358.611 154.929C358.611 154.14 358.902 153.536 359.486 153.117C360.073 152.693 360.912 152.481 362.001 152.481H363.02V151.996C363.02 151.613 362.913 151.308 362.698 151.08C362.484 150.848 362.158 150.731 361.721 150.731C361.343 150.731 361.033 150.827 360.791 151.019C360.55 151.205 360.429 151.445 360.429 151.736H358.768C358.768 151.331 358.902 150.952 359.171 150.602C359.44 150.246 359.805 149.968 360.265 149.768C360.73 149.567 361.247 149.467 361.817 149.467C362.682 149.467 363.373 149.686 363.888 150.123C364.403 150.556 364.667 151.167 364.681 151.955V155.291C364.681 155.956 364.774 156.487 364.961 156.884V157H363.266ZM361.441 155.804C361.769 155.804 362.076 155.724 362.363 155.564C362.655 155.405 362.874 155.191 363.02 154.922V153.527H362.124C361.509 153.527 361.046 153.634 360.737 153.849C360.427 154.063 360.272 154.366 360.272 154.758C360.272 155.077 360.376 155.332 360.586 155.523C360.8 155.71 361.085 155.804 361.441 155.804ZM369.859 155.811C370.274 155.811 370.618 155.69 370.891 155.448C371.165 155.207 371.311 154.908 371.329 154.553H372.894C372.876 155.013 372.733 155.444 372.464 155.845C372.195 156.241 371.83 156.556 371.37 156.788C370.91 157.021 370.413 157.137 369.88 157.137C368.845 157.137 368.025 156.802 367.419 156.132C366.813 155.462 366.51 154.537 366.51 153.356V153.186C366.51 152.06 366.81 151.16 367.412 150.485C368.013 149.806 368.834 149.467 369.873 149.467C370.752 149.467 371.468 149.724 372.019 150.239C372.575 150.75 372.867 151.422 372.894 152.256H371.329C371.311 151.832 371.165 151.483 370.891 151.21C370.623 150.937 370.278 150.8 369.859 150.8C369.321 150.8 368.907 150.996 368.615 151.388C368.323 151.775 368.175 152.365 368.171 153.158V153.425C368.171 154.227 368.314 154.826 368.601 155.223C368.893 155.615 369.312 155.811 369.859 155.811ZM377.806 157.137C376.753 157.137 375.899 156.806 375.243 156.146C374.591 155.48 374.265 154.596 374.265 153.493V153.288C374.265 152.55 374.406 151.891 374.689 151.312C374.976 150.729 375.377 150.276 375.892 149.952C376.407 149.629 376.981 149.467 377.615 149.467C378.622 149.467 379.399 149.788 379.946 150.431C380.497 151.073 380.773 151.982 380.773 153.158V153.828H375.94C375.99 154.439 376.193 154.922 376.548 155.277C376.908 155.633 377.359 155.811 377.902 155.811C378.663 155.811 379.283 155.503 379.761 154.888L380.657 155.742C380.36 156.184 379.964 156.528 379.467 156.774C378.975 157.016 378.421 157.137 377.806 157.137ZM377.608 150.8C377.152 150.8 376.783 150.959 376.5 151.278C376.222 151.597 376.045 152.042 375.967 152.611H379.132V152.488C379.096 151.932 378.948 151.513 378.688 151.23C378.428 150.943 378.068 150.8 377.608 150.8ZM388.122 157H386.461V146.5H388.122V157ZM402.19 154.539L403.721 147.047H405.437L403.14 157H401.486L399.593 149.733L397.658 157H395.997L393.7 147.047H395.416L396.961 154.525L398.861 147.047H400.31L402.19 154.539ZM408.579 150.41C409.121 149.781 409.807 149.467 410.636 149.467C412.213 149.467 413.013 150.367 413.036 152.167V157H411.374V152.229C411.374 151.718 411.263 151.358 411.039 151.148C410.821 150.934 410.497 150.827 410.069 150.827C409.403 150.827 408.907 151.123 408.579 151.716V157H406.917V146.5H408.579V150.41ZM416.888 157H415.227V149.604H416.888V157ZM415.124 147.683C415.124 147.427 415.204 147.215 415.363 147.047C415.527 146.878 415.76 146.794 416.061 146.794C416.361 146.794 416.594 146.878 416.758 147.047C416.922 147.215 417.004 147.427 417.004 147.683C417.004 147.933 416.922 148.143 416.758 148.312C416.594 148.476 416.361 148.558 416.061 148.558C415.76 148.558 415.527 148.476 415.363 148.312C415.204 148.143 415.124 147.933 415.124 147.683ZM421.184 147.806V149.604H422.49V150.834H421.184V154.963C421.184 155.245 421.239 155.451 421.348 155.578C421.462 155.701 421.663 155.763 421.95 155.763C422.141 155.763 422.335 155.74 422.531 155.694V156.979C422.153 157.084 421.788 157.137 421.437 157.137C420.161 157.137 419.523 156.433 419.523 155.024V150.834H418.306V149.604H419.523V147.806H421.184ZM427.422 157.137C426.369 157.137 425.515 156.806 424.859 156.146C424.207 155.48 423.881 154.596 423.881 153.493V153.288C423.881 152.55 424.022 151.891 424.305 151.312C424.592 150.729 424.993 150.276 425.508 149.952C426.023 149.629 426.597 149.467 427.231 149.467C428.238 149.467 429.015 149.788 429.562 150.431C430.113 151.073 430.389 151.982 430.389 153.158V153.828H425.556C425.606 154.439 425.809 154.922 426.164 155.277C426.524 155.633 426.975 155.811 427.518 155.811C428.279 155.811 428.899 155.503 429.377 154.888L430.273 155.742C429.976 156.184 429.58 156.528 429.083 156.774C428.591 157.016 428.037 157.137 427.422 157.137ZM427.224 150.8C426.768 150.8 426.399 150.959 426.116 151.278C425.838 151.597 425.661 152.042 425.583 152.611H428.748V152.488C428.712 151.932 428.564 151.513 428.304 151.23C428.044 150.943 427.684 150.8 427.224 150.8Z" fill="white"/>
<path d="M311.254 127.047L314.125 134.676L316.989 127.047H319.225V137H317.502V133.719L317.673 129.33L314.733 137H313.496L310.563 129.337L310.734 133.719V137H309.012V127.047H311.254ZM324.772 137.137C323.719 137.137 322.865 136.806 322.209 136.146C321.557 135.48 321.231 134.596 321.231 133.493V133.288C321.231 132.55 321.372 131.891 321.655 131.312C321.942 130.729 322.343 130.276 322.858 129.952C323.373 129.629 323.947 129.467 324.581 129.467C325.588 129.467 326.365 129.788 326.912 130.431C327.463 131.073 327.739 131.982 327.739 133.158V133.828H322.906C322.956 134.439 323.159 134.922 323.514 135.277C323.874 135.633 324.325 135.811 324.868 135.811C325.629 135.811 326.249 135.503 326.727 134.888L327.623 135.742C327.326 136.184 326.93 136.528 326.433 136.774C325.941 137.016 325.387 137.137 324.772 137.137ZM324.574 130.8C324.118 130.8 323.749 130.959 323.466 131.278C323.188 131.597 323.011 132.042 322.933 132.611H326.098V132.488C326.062 131.932 325.914 131.513 325.654 131.23C325.394 130.943 325.034 130.8 324.574 130.8ZM329.123 133.247C329.123 132.108 329.388 131.194 329.916 130.506C330.445 129.813 331.154 129.467 332.042 129.467C332.826 129.467 333.46 129.74 333.943 130.287V126.5H335.604V137H334.1L334.018 136.234C333.521 136.836 332.858 137.137 332.029 137.137C331.163 137.137 330.461 136.788 329.923 136.091C329.39 135.394 329.123 134.446 329.123 133.247ZM330.784 133.391C330.784 134.143 330.928 134.73 331.215 135.154C331.507 135.574 331.919 135.783 332.452 135.783C333.131 135.783 333.628 135.48 333.943 134.874V131.716C333.637 131.123 333.145 130.827 332.466 130.827C331.928 130.827 331.514 131.041 331.222 131.47C330.93 131.894 330.784 132.534 330.784 133.391ZM339.504 137H337.843V129.604H339.504V137ZM337.74 127.683C337.74 127.427 337.82 127.215 337.979 127.047C338.143 126.878 338.376 126.794 338.677 126.794C338.977 126.794 339.21 126.878 339.374 127.047C339.538 127.215 339.62 127.427 339.62 127.683C339.62 127.933 339.538 128.143 339.374 128.312C339.21 128.476 338.977 128.558 338.677 128.558C338.376 128.558 338.143 128.476 337.979 128.312C337.82 128.143 337.74 127.933 337.74 127.683ZM346.2 136.275C345.712 136.85 345.019 137.137 344.121 137.137C343.319 137.137 342.711 136.902 342.296 136.433C341.886 135.963 341.681 135.284 341.681 134.396V129.604H343.342V134.375C343.342 135.314 343.732 135.783 344.511 135.783C345.318 135.783 345.862 135.494 346.145 134.915V129.604H347.806V137H346.241L346.2 136.275ZM351.46 129.604L351.508 130.376C352.027 129.77 352.738 129.467 353.641 129.467C354.63 129.467 355.306 129.845 355.671 130.602C356.209 129.845 356.965 129.467 357.94 129.467C358.756 129.467 359.362 129.692 359.759 130.144C360.16 130.595 360.365 131.26 360.374 132.14V137H358.713V132.188C358.713 131.718 358.61 131.374 358.405 131.155C358.2 130.937 357.861 130.827 357.387 130.827C357.008 130.827 356.699 130.93 356.457 131.135C356.22 131.335 356.054 131.6 355.958 131.928L355.965 137H354.304V132.133C354.281 131.262 353.837 130.827 352.971 130.827C352.305 130.827 351.834 131.098 351.556 131.641V137H349.895V129.604H351.46ZM372.344 132.557H368.256V135.619H373.034V137H366.527V127.047H372.987V128.441H368.256V131.189H372.344V132.557ZM376.244 129.604L376.292 130.376C376.811 129.77 377.522 129.467 378.425 129.467C379.414 129.467 380.09 129.845 380.455 130.602C380.993 129.845 381.749 129.467 382.724 129.467C383.54 129.467 384.146 129.692 384.543 130.144C384.944 130.595 385.149 131.26 385.158 132.14V137H383.497V132.188C383.497 131.718 383.394 131.374 383.189 131.155C382.984 130.937 382.645 130.827 382.171 130.827C381.792 130.827 381.483 130.93 381.241 131.135C381.004 131.335 380.838 131.6 380.742 131.928L380.749 137H379.088V132.133C379.065 131.262 378.621 130.827 377.755 130.827C377.089 130.827 376.618 131.098 376.34 131.641V137H374.679V129.604H376.244ZM393.741 133.377C393.741 134.521 393.481 135.435 392.961 136.118C392.442 136.797 391.745 137.137 390.87 137.137C390.058 137.137 389.409 136.87 388.921 136.337V139.844H387.26V129.604H388.791L388.86 130.355C389.347 129.763 390.01 129.467 390.849 129.467C391.751 129.467 392.458 129.804 392.968 130.479C393.483 131.148 393.741 132.08 393.741 133.274V133.377ZM392.086 133.233C392.086 132.495 391.938 131.91 391.642 131.477C391.35 131.044 390.931 130.827 390.384 130.827C389.705 130.827 389.218 131.107 388.921 131.668V134.949C389.222 135.523 389.714 135.811 390.398 135.811C390.926 135.811 391.339 135.599 391.635 135.175C391.936 134.746 392.086 134.099 392.086 133.233ZM397.189 130.41C397.732 129.781 398.418 129.467 399.247 129.467C400.824 129.467 401.624 130.367 401.646 132.167V137H399.985V132.229C399.985 131.718 399.874 131.358 399.65 131.148C399.432 130.934 399.108 130.827 398.68 130.827C398.014 130.827 397.518 131.123 397.189 131.716V137H395.528V126.5H397.189V130.41ZM408.151 137C408.078 136.859 408.014 136.629 407.96 136.31C407.431 136.861 406.784 137.137 406.018 137.137C405.275 137.137 404.669 136.925 404.2 136.501C403.73 136.077 403.496 135.553 403.496 134.929C403.496 134.14 403.787 133.536 404.371 133.117C404.959 132.693 405.797 132.481 406.886 132.481H407.905V131.996C407.905 131.613 407.798 131.308 407.584 131.08C407.369 130.848 407.044 130.731 406.606 130.731C406.228 130.731 405.918 130.827 405.676 131.019C405.435 131.205 405.314 131.445 405.314 131.736H403.653C403.653 131.331 403.787 130.952 404.056 130.602C404.325 130.246 404.69 129.968 405.15 129.768C405.615 129.567 406.132 129.467 406.702 129.467C407.568 129.467 408.258 129.686 408.773 130.123C409.288 130.556 409.552 131.167 409.566 131.955V135.291C409.566 135.956 409.659 136.487 409.846 136.884V137H408.151ZM406.326 135.804C406.654 135.804 406.962 135.724 407.249 135.564C407.54 135.405 407.759 135.191 407.905 134.922V133.527H407.009C406.394 133.527 405.932 133.634 405.622 133.849C405.312 134.063 405.157 134.366 405.157 134.758C405.157 135.077 405.262 135.332 405.471 135.523C405.685 135.71 405.97 135.804 406.326 135.804ZM415.852 134.99C415.852 134.694 415.729 134.468 415.483 134.313C415.241 134.159 414.838 134.022 414.273 133.903C413.708 133.785 413.236 133.634 412.858 133.452C412.028 133.051 411.613 132.47 411.613 131.709C411.613 131.071 411.882 130.538 412.42 130.109C412.958 129.681 413.641 129.467 414.471 129.467C415.355 129.467 416.068 129.686 416.611 130.123C417.157 130.561 417.431 131.128 417.431 131.825H415.77C415.77 131.506 415.651 131.242 415.414 131.032C415.177 130.818 414.863 130.711 414.471 130.711C414.106 130.711 413.808 130.795 413.575 130.964C413.348 131.132 413.234 131.358 413.234 131.641C413.234 131.896 413.341 132.094 413.555 132.235C413.769 132.377 414.202 132.52 414.854 132.666C415.505 132.807 416.016 132.978 416.385 133.179C416.759 133.375 417.034 133.612 417.212 133.89C417.394 134.168 417.486 134.505 417.486 134.901C417.486 135.567 417.21 136.107 416.658 136.521C416.107 136.932 415.385 137.137 414.491 137.137C413.885 137.137 413.345 137.027 412.871 136.809C412.397 136.59 412.028 136.289 411.764 135.906C411.5 135.523 411.367 135.111 411.367 134.669H412.981C413.003 135.061 413.152 135.364 413.425 135.578C413.698 135.788 414.061 135.893 414.512 135.893C414.949 135.893 415.282 135.811 415.51 135.646C415.738 135.478 415.852 135.259 415.852 134.99ZM421.105 137H419.444V129.604H421.105V137ZM419.342 127.683C419.342 127.427 419.421 127.215 419.581 127.047C419.745 126.878 419.977 126.794 420.278 126.794C420.579 126.794 420.811 126.878 420.975 127.047C421.139 127.215 421.221 127.427 421.221 127.683C421.221 127.933 421.139 128.143 420.975 128.312C420.811 128.476 420.579 128.558 420.278 128.558C419.977 128.558 419.745 128.476 419.581 128.312C419.421 128.143 419.342 127.933 419.342 127.683ZM427.466 134.99C427.466 134.694 427.343 134.468 427.097 134.313C426.856 134.159 426.452 134.022 425.887 133.903C425.322 133.785 424.85 133.634 424.472 133.452C423.643 133.051 423.228 132.47 423.228 131.709C423.228 131.071 423.497 130.538 424.035 130.109C424.572 129.681 425.256 129.467 426.085 129.467C426.969 129.467 427.683 129.686 428.225 130.123C428.772 130.561 429.045 131.128 429.045 131.825H427.384C427.384 131.506 427.266 131.242 427.029 131.032C426.792 130.818 426.477 130.711 426.085 130.711C425.721 130.711 425.422 130.795 425.19 130.964C424.962 131.132 424.848 131.358 424.848 131.641C424.848 131.896 424.955 132.094 425.169 132.235C425.384 132.377 425.816 132.52 426.468 132.666C427.12 132.807 427.63 132.978 427.999 133.179C428.373 133.375 428.649 133.612 428.827 133.89C429.009 134.168 429.1 134.505 429.1 134.901C429.1 135.567 428.824 136.107 428.273 136.521C427.721 136.932 426.999 137.137 426.106 137.137C425.5 137.137 424.96 137.027 424.486 136.809C424.012 136.59 423.643 136.289 423.378 135.906C423.114 135.523 422.982 135.111 422.982 134.669H424.595C424.618 135.061 424.766 135.364 425.039 135.578C425.313 135.788 425.675 135.893 426.126 135.893C426.564 135.893 426.897 135.811 427.124 135.646C427.352 135.478 427.466 135.259 427.466 134.99Z" fill="white"/>
<path d="M24.9141 137H23.1914V132.577H18.7412V137H17.0117V127.047H18.7412V131.189H23.1914V127.047H24.9141V137ZM28.9713 137H27.3102V129.604H28.9713V137ZM27.2076 127.683C27.2076 127.427 27.2874 127.215 27.4469 127.047C27.6109 126.878 27.8434 126.794 28.1441 126.794C28.4449 126.794 28.6773 126.878 28.8414 127.047C29.0055 127.215 29.0875 127.427 29.0875 127.683C29.0875 127.933 29.0055 128.143 28.8414 128.312C28.6773 128.476 28.4449 128.558 28.1441 128.558C27.8434 128.558 27.6109 128.476 27.4469 128.312C27.2874 128.143 27.2076 127.933 27.2076 127.683ZM30.8957 133.247C30.8957 132.099 31.1646 131.183 31.7023 130.499C32.2447 129.811 32.9624 129.467 33.8557 129.467C34.6988 129.467 35.3618 129.761 35.8449 130.349L35.9201 129.604H37.4172V136.774C37.4172 137.745 37.1141 138.511 36.508 139.071C35.9064 139.632 35.093 139.912 34.0676 139.912C33.5253 139.912 32.9943 139.798 32.4748 139.57C31.9598 139.347 31.5679 139.053 31.299 138.688L32.0852 137.69C32.5956 138.297 33.2245 138.6 33.9719 138.6C34.5233 138.6 34.9585 138.449 35.2775 138.148C35.5965 137.852 35.7561 137.415 35.7561 136.836V136.337C35.2775 136.87 34.6395 137.137 33.842 137.137C32.9761 137.137 32.2674 136.793 31.716 136.104C31.1691 135.416 30.8957 134.464 30.8957 133.247ZM32.55 133.391C32.55 134.133 32.7004 134.719 33.0012 135.147C33.3065 135.571 33.7281 135.783 34.2658 135.783C34.9357 135.783 35.4325 135.496 35.7561 134.922V131.668C35.4416 131.107 34.9494 130.827 34.2795 130.827C33.7326 130.827 33.3065 131.044 33.0012 131.477C32.7004 131.91 32.55 132.548 32.55 133.391ZM41.1668 130.41C41.7091 129.781 42.395 129.467 43.2244 129.467C44.8012 129.467 45.601 130.367 45.6238 132.167V137H43.9627V132.229C43.9627 131.718 43.851 131.358 43.6277 131.148C43.409 130.934 43.0854 130.827 42.657 130.827C41.9917 130.827 41.4949 131.123 41.1668 131.716V137H39.5057V126.5H41.1668V130.41ZM57.5732 132.557H53.4854V135.619H58.2637V137H51.7559V127.047H58.2158V128.441H53.4854V131.189H57.5732V132.557ZM61.4732 129.604L61.5211 130.376C62.0406 129.77 62.7516 129.467 63.6539 129.467C64.6428 129.467 65.3196 129.845 65.6842 130.602C66.2219 129.845 66.9785 129.467 67.9537 129.467C68.7695 129.467 69.3756 129.692 69.7721 130.144C70.1731 130.595 70.3782 131.26 70.3873 132.14V137H68.7262V132.188C68.7262 131.718 68.6236 131.374 68.4186 131.155C68.2135 130.937 67.874 130.827 67.4 130.827C67.0217 130.827 66.7119 130.93 66.4703 131.135C66.2333 131.335 66.067 131.6 65.9713 131.928L65.9781 137H64.317V132.133C64.2942 131.262 63.8499 130.827 62.984 130.827C62.3186 130.827 61.8469 131.098 61.5689 131.641V137H59.9078V129.604H61.4732ZM78.9699 133.377C78.9699 134.521 78.7102 135.435 78.1906 136.118C77.6711 136.797 76.9738 137.137 76.0988 137.137C75.2876 137.137 74.6382 136.87 74.1506 136.337V139.844H72.4895V129.604H74.0207L74.0891 130.355C74.5767 129.763 75.2398 129.467 76.0783 129.467C76.9807 129.467 77.687 129.804 78.1975 130.479C78.7124 131.148 78.9699 132.08 78.9699 133.274V133.377ZM77.3156 133.233C77.3156 132.495 77.1675 131.91 76.8713 131.477C76.5796 131.044 76.1604 130.827 75.6135 130.827C74.9344 130.827 74.4468 131.107 74.1506 131.668V134.949C74.4514 135.523 74.9436 135.811 75.6271 135.811C76.1558 135.811 76.5682 135.599 76.8645 135.175C77.1652 134.746 77.3156 134.099 77.3156 133.233ZM82.4188 130.41C82.9611 129.781 83.6469 129.467 84.4764 129.467C86.0532 129.467 86.853 130.367 86.8758 132.167V137H85.2146V132.229C85.2146 131.718 85.103 131.358 84.8797 131.148C84.6609 130.934 84.3374 130.827 83.909 130.827C83.2436 130.827 82.7469 131.123 82.4188 131.716V137H80.7576V126.5H82.4188V130.41ZM93.3803 137C93.3074 136.859 93.2436 136.629 93.1889 136.31C92.6602 136.861 92.0131 137.137 91.2475 137.137C90.5046 137.137 89.8985 136.925 89.4291 136.501C88.9597 136.077 88.725 135.553 88.725 134.929C88.725 134.14 89.0167 133.536 89.6 133.117C90.1879 132.693 91.0264 132.481 92.1156 132.481H93.1342V131.996C93.1342 131.613 93.0271 131.308 92.8129 131.08C92.5987 130.848 92.2729 130.731 91.8354 130.731C91.4571 130.731 91.1472 130.827 90.9057 131.019C90.6641 131.205 90.5434 131.445 90.5434 131.736H88.8822C88.8822 131.331 89.0167 130.952 89.2855 130.602C89.5544 130.246 89.919 129.968 90.3793 129.768C90.8441 129.567 91.3614 129.467 91.9311 129.467C92.7969 129.467 93.4874 129.686 94.0023 130.123C94.5173 130.556 94.7816 131.167 94.7953 131.955V135.291C94.7953 135.956 94.8887 136.487 95.0756 136.884V137H93.3803ZM91.5551 135.804C91.8832 135.804 92.1908 135.724 92.4779 135.564C92.7696 135.405 92.9883 135.191 93.1342 134.922V133.527H92.2387C91.6234 133.527 91.1609 133.634 90.851 133.849C90.5411 134.063 90.3861 134.366 90.3861 134.758C90.3861 135.077 90.4909 135.332 90.7006 135.523C90.9148 135.71 91.1996 135.804 91.5551 135.804ZM101.081 134.99C101.081 134.694 100.958 134.468 100.712 134.313C100.47 134.159 100.067 134.022 99.502 133.903C98.9368 133.785 98.4652 133.634 98.0869 133.452C97.2575 133.051 96.8428 132.47 96.8428 131.709C96.8428 131.071 97.1117 130.538 97.6494 130.109C98.1872 129.681 98.8708 129.467 99.7002 129.467C100.584 129.467 101.298 129.686 101.84 130.123C102.387 130.561 102.66 131.128 102.66 131.825H100.999C100.999 131.506 100.881 131.242 100.644 131.032C100.407 130.818 100.092 130.711 99.7002 130.711C99.3356 130.711 99.0371 130.795 98.8047 130.964C98.5768 131.132 98.4629 131.358 98.4629 131.641C98.4629 131.896 98.57 132.094 98.7842 132.235C98.9984 132.377 99.4313 132.52 100.083 132.666C100.735 132.807 101.245 132.978 101.614 133.179C101.988 133.375 102.264 133.612 102.441 133.89C102.624 134.168 102.715 134.505 102.715 134.901C102.715 135.567 102.439 136.107 101.888 136.521C101.336 136.932 100.614 137.137 99.7207 137.137C99.1146 137.137 98.5745 137.027 98.1006 136.809C97.6266 136.59 97.2575 136.289 96.9932 135.906C96.7288 135.523 96.5967 135.111 96.5967 134.669H98.21C98.2327 135.061 98.3809 135.364 98.6543 135.578C98.9277 135.788 99.29 135.893 99.7412 135.893C100.179 135.893 100.511 135.811 100.739 135.646C100.967 135.478 101.081 135.259 101.081 134.99ZM106.335 137H104.673V129.604H106.335V137ZM104.571 127.683C104.571 127.427 104.651 127.215 104.81 127.047C104.974 126.878 105.207 126.794 105.507 126.794C105.808 126.794 106.041 126.878 106.205 127.047C106.369 127.215 106.451 127.427 106.451 127.683C106.451 127.933 106.369 128.143 106.205 128.312C106.041 128.476 105.808 128.558 105.507 128.558C105.207 128.558 104.974 128.476 104.81 128.312C104.651 128.143 104.571 127.933 104.571 127.683ZM112.696 134.99C112.696 134.694 112.572 134.468 112.326 134.313C112.085 134.159 111.682 134.022 111.116 133.903C110.551 133.785 110.08 133.634 109.701 133.452C108.872 133.051 108.457 132.47 108.457 131.709C108.457 131.071 108.726 130.538 109.264 130.109C109.802 129.681 110.485 129.467 111.315 129.467C112.199 129.467 112.912 129.686 113.454 130.123C114.001 130.561 114.275 131.128 114.275 131.825H112.613C112.613 131.506 112.495 131.242 112.258 131.032C112.021 130.818 111.707 130.711 111.315 130.711C110.95 130.711 110.652 130.795 110.419 130.964C110.191 131.132 110.077 131.358 110.077 131.641C110.077 131.896 110.184 132.094 110.399 132.235C110.613 132.377 111.046 132.52 111.697 132.666C112.349 132.807 112.86 132.978 113.229 133.179C113.602 133.375 113.878 133.612 114.056 133.89C114.238 134.168 114.329 134.505 114.329 134.901C114.329 135.567 114.054 136.107 113.502 136.521C112.951 136.932 112.228 137.137 111.335 137.137C110.729 137.137 110.189 137.027 109.715 136.809C109.241 136.59 108.872 136.289 108.608 135.906C108.343 135.523 108.211 135.111 108.211 134.669H109.824C109.847 135.061 109.995 135.364 110.269 135.578C110.542 135.788 110.904 135.893 111.356 135.893C111.793 135.893 112.126 135.811 112.354 135.646C112.582 135.478 112.696 135.259 112.696 134.99Z" fill="white"/>
<path d="M608.955 152.283C608.955 153.258 608.786 154.115 608.449 154.854C608.112 155.587 607.629 156.152 607 156.549C606.376 156.941 605.656 157.137 604.84 157.137C604.033 157.137 603.313 156.941 602.68 156.549C602.051 156.152 601.563 155.59 601.217 154.86C600.875 154.131 600.702 153.29 600.697 152.338V151.777C600.697 150.807 600.868 149.95 601.21 149.207C601.556 148.464 602.042 147.897 602.666 147.505C603.295 147.108 604.015 146.91 604.826 146.91C605.637 146.91 606.355 147.106 606.979 147.498C607.608 147.885 608.094 148.446 608.436 149.18C608.777 149.909 608.951 150.759 608.955 151.729V152.283ZM607.226 151.764C607.226 150.661 607.016 149.815 606.597 149.228C606.182 148.64 605.592 148.346 604.826 148.346C604.079 148.346 603.493 148.64 603.069 149.228C602.65 149.811 602.436 150.638 602.427 151.709V152.283C602.427 153.377 602.639 154.222 603.062 154.819C603.491 155.416 604.083 155.715 604.84 155.715C605.605 155.715 606.193 155.423 606.604 154.84C607.018 154.257 607.226 153.404 607.226 152.283V151.764ZM612.459 149.604L612.506 150.458C613.053 149.797 613.771 149.467 614.66 149.467C616.2 149.467 616.984 150.349 617.011 152.112V157H615.35V152.208C615.35 151.739 615.248 151.392 615.043 151.169C614.842 150.941 614.512 150.827 614.051 150.827C613.381 150.827 612.882 151.13 612.554 151.736V157H610.893V149.604H612.459ZM628.359 154.437C628.359 153.999 628.204 153.662 627.894 153.425C627.589 153.188 627.035 152.949 626.233 152.707C625.431 152.465 624.793 152.197 624.319 151.9C623.412 151.331 622.959 150.588 622.959 149.672C622.959 148.87 623.285 148.209 623.936 147.689C624.593 147.17 625.443 146.91 626.486 146.91C627.179 146.91 627.796 147.038 628.339 147.293C628.881 147.548 629.307 147.913 629.617 148.387C629.927 148.856 630.082 149.378 630.082 149.952H628.359C628.359 149.433 628.195 149.027 627.867 148.735C627.543 148.439 627.079 148.291 626.472 148.291C625.907 148.291 625.468 148.412 625.153 148.653C624.843 148.895 624.688 149.232 624.688 149.665C624.688 150.03 624.857 150.335 625.194 150.581C625.531 150.823 626.087 151.06 626.862 151.292C627.637 151.52 628.259 151.782 628.728 152.078C629.198 152.37 629.542 152.707 629.761 153.09C629.979 153.468 630.089 153.912 630.089 154.423C630.089 155.252 629.77 155.913 629.132 156.405C628.498 156.893 627.637 157.137 626.548 157.137C625.828 157.137 625.165 157.005 624.558 156.74C623.957 156.471 623.487 156.102 623.15 155.633C622.818 155.163 622.651 154.617 622.651 153.992H624.381C624.381 154.557 624.568 154.995 624.941 155.305C625.315 155.615 625.85 155.77 626.548 155.77C627.149 155.77 627.6 155.649 627.901 155.407C628.207 155.161 628.359 154.838 628.359 154.437ZM636.327 156.275C635.839 156.85 635.146 157.137 634.248 157.137C633.446 157.137 632.838 156.902 632.423 156.433C632.013 155.963 631.808 155.284 631.808 154.396V149.604H633.469V154.375C633.469 155.314 633.859 155.783 634.638 155.783C635.445 155.783 635.989 155.494 636.272 154.915V149.604H637.933V157H636.368L636.327 156.275ZM643.897 151.121C643.679 151.085 643.453 151.066 643.221 151.066C642.46 151.066 641.947 151.358 641.683 151.941V157H640.021V149.604H641.607L641.648 150.431C642.049 149.788 642.605 149.467 643.316 149.467C643.553 149.467 643.749 149.499 643.904 149.562L643.897 151.121ZM646.068 157V150.834H644.94V149.604H646.068V148.927C646.068 148.106 646.296 147.473 646.752 147.026C647.207 146.58 647.845 146.356 648.666 146.356C648.957 146.356 649.267 146.397 649.595 146.479L649.554 147.778C649.372 147.742 649.16 147.724 648.919 147.724C648.126 147.724 647.729 148.132 647.729 148.947V149.604H649.233V150.834H647.729V157H646.068ZM655.266 157C655.193 156.859 655.129 156.629 655.074 156.31C654.546 156.861 653.899 157.137 653.133 157.137C652.39 157.137 651.784 156.925 651.315 156.501C650.845 156.077 650.611 155.553 650.611 154.929C650.611 154.14 650.902 153.536 651.486 153.117C652.073 152.693 652.912 152.481 654.001 152.481H655.02V151.996C655.02 151.613 654.913 151.308 654.698 151.08C654.484 150.848 654.158 150.731 653.721 150.731C653.343 150.731 653.033 150.827 652.791 151.019C652.55 151.205 652.429 151.445 652.429 151.736H650.768C650.768 151.331 650.902 150.952 651.171 150.602C651.44 150.246 651.805 149.968 652.265 149.768C652.73 149.567 653.247 149.467 653.817 149.467C654.682 149.467 655.373 149.686 655.888 150.123C656.403 150.556 656.667 151.167 656.681 151.955V155.291C656.681 155.956 656.774 156.487 656.961 156.884V157H655.266ZM653.441 155.804C653.769 155.804 654.076 155.724 654.363 155.564C654.655 155.405 654.874 155.191 655.02 154.922V153.527H654.124C653.509 153.527 653.046 153.634 652.737 153.849C652.427 154.063 652.272 154.366 652.272 154.758C652.272 155.077 652.376 155.332 652.586 155.523C652.8 155.71 653.085 155.804 653.441 155.804ZM661.859 155.811C662.274 155.811 662.618 155.69 662.891 155.448C663.165 155.207 663.311 154.908 663.329 154.553H664.894C664.876 155.013 664.733 155.444 664.464 155.845C664.195 156.241 663.83 156.556 663.37 156.788C662.91 157.021 662.413 157.137 661.88 157.137C660.845 157.137 660.025 156.802 659.419 156.132C658.813 155.462 658.51 154.537 658.51 153.356V153.186C658.51 152.06 658.81 151.16 659.412 150.485C660.013 149.806 660.834 149.467 661.873 149.467C662.752 149.467 663.468 149.724 664.019 150.239C664.575 150.75 664.867 151.422 664.894 152.256H663.329C663.311 151.832 663.165 151.483 662.891 151.21C662.623 150.937 662.278 150.8 661.859 150.8C661.321 150.8 660.907 150.996 660.615 151.388C660.323 151.775 660.175 152.365 660.171 153.158V153.425C660.171 154.227 660.314 154.826 660.601 155.223C660.893 155.615 661.312 155.811 661.859 155.811ZM669.806 157.137C668.753 157.137 667.899 156.806 667.243 156.146C666.591 155.48 666.265 154.596 666.265 153.493V153.288C666.265 152.55 666.406 151.891 666.689 151.312C666.976 150.729 667.377 150.276 667.892 149.952C668.407 149.629 668.981 149.467 669.615 149.467C670.622 149.467 671.399 149.788 671.946 150.431C672.497 151.073 672.773 151.982 672.773 153.158V153.828H667.94C667.99 154.439 668.193 154.922 668.548 155.277C668.908 155.633 669.359 155.811 669.902 155.811C670.663 155.811 671.283 155.503 671.761 154.888L672.657 155.742C672.36 156.184 671.964 156.528 671.467 156.774C670.975 157.016 670.421 157.137 669.806 157.137ZM669.608 150.8C669.152 150.8 668.783 150.959 668.5 151.278C668.222 151.597 668.045 152.042 667.967 152.611H671.132V152.488C671.096 151.932 670.948 151.513 670.688 151.23C670.428 150.943 670.068 150.8 669.608 150.8ZM680.122 157H678.461V146.5H680.122V157ZM694.19 154.539L695.721 147.047H697.437L695.14 157H693.486L691.593 149.733L689.658 157H687.997L685.7 147.047H687.416L688.961 154.525L690.861 147.047H692.31L694.19 154.539ZM700.579 150.41C701.121 149.781 701.807 149.467 702.636 149.467C704.213 149.467 705.013 150.367 705.036 152.167V157H703.374V152.229C703.374 151.718 703.263 151.358 703.039 151.148C702.821 150.934 702.497 150.827 702.069 150.827C701.403 150.827 700.907 151.123 700.579 151.716V157H698.917V146.5H700.579V150.41ZM708.888 157H707.227V149.604H708.888V157ZM707.124 147.683C707.124 147.427 707.204 147.215 707.363 147.047C707.527 146.878 707.76 146.794 708.061 146.794C708.361 146.794 708.594 146.878 708.758 147.047C708.922 147.215 709.004 147.427 709.004 147.683C709.004 147.933 708.922 148.143 708.758 148.312C708.594 148.476 708.361 148.558 708.061 148.558C707.76 148.558 707.527 148.476 707.363 148.312C707.204 148.143 707.124 147.933 707.124 147.683ZM713.184 147.806V149.604H714.49V150.834H713.184V154.963C713.184 155.245 713.239 155.451 713.348 155.578C713.462 155.701 713.663 155.763 713.95 155.763C714.141 155.763 714.335 155.74 714.531 155.694V156.979C714.153 157.084 713.788 157.137 713.437 157.137C712.161 157.137 711.523 156.433 711.523 155.024V150.834H710.306V149.604H711.523V147.806H713.184ZM719.422 157.137C718.369 157.137 717.515 156.806 716.859 156.146C716.207 155.48 715.881 154.596 715.881 153.493V153.288C715.881 152.55 716.022 151.891 716.305 151.312C716.592 150.729 716.993 150.276 717.508 149.952C718.023 149.629 718.597 149.467 719.231 149.467C720.238 149.467 721.015 149.788 721.562 150.431C722.113 151.073 722.389 151.982 722.389 153.158V153.828H717.556C717.606 154.439 717.809 154.922 718.164 155.277C718.524 155.633 718.975 155.811 719.518 155.811C720.279 155.811 720.899 155.503 721.377 154.888L722.273 155.742C721.976 156.184 721.58 156.528 721.083 156.774C720.591 157.016 720.037 157.137 719.422 157.137ZM719.224 150.8C718.768 150.8 718.399 150.959 718.116 151.278C717.838 151.597 717.661 152.042 717.583 152.611H720.748V152.488C720.712 151.932 720.564 151.513 720.304 151.23C720.044 150.943 719.684 150.8 719.224 150.8Z" fill="white"/>
<path d="M601.012 137V127.047H603.951C604.831 127.047 605.61 127.243 606.289 127.635C606.973 128.027 607.501 128.583 607.875 129.303C608.249 130.023 608.436 130.848 608.436 131.777V132.276C608.436 133.22 608.246 134.049 607.868 134.765C607.494 135.48 606.959 136.032 606.262 136.419C605.569 136.806 604.774 137 603.876 137H601.012ZM602.741 128.441V135.619H603.869C604.776 135.619 605.471 135.337 605.954 134.771C606.442 134.202 606.69 133.386 606.699 132.324V131.771C606.699 130.69 606.465 129.866 605.995 129.296C605.526 128.726 604.844 128.441 603.951 128.441H602.741ZM612.165 137H610.504V129.604H612.165V137ZM610.401 127.683C610.401 127.427 610.481 127.215 610.64 127.047C610.804 126.878 611.037 126.794 611.337 126.794C611.638 126.794 611.871 126.878 612.035 127.047C612.199 127.215 612.281 127.427 612.281 127.683C612.281 127.933 612.199 128.143 612.035 128.312C611.871 128.476 611.638 128.558 611.337 128.558C611.037 128.558 610.804 128.476 610.64 128.312C610.481 128.143 610.401 127.933 610.401 127.683ZM618.526 134.99C618.526 134.694 618.403 134.468 618.156 134.313C617.915 134.159 617.512 134.022 616.946 133.903C616.381 133.785 615.91 133.634 615.531 133.452C614.702 133.051 614.287 132.47 614.287 131.709C614.287 131.071 614.556 130.538 615.094 130.109C615.632 129.681 616.315 129.467 617.145 129.467C618.029 129.467 618.742 129.686 619.284 130.123C619.831 130.561 620.105 131.128 620.105 131.825H618.444C618.444 131.506 618.325 131.242 618.088 131.032C617.851 130.818 617.537 130.711 617.145 130.711C616.78 130.711 616.482 130.795 616.249 130.964C616.021 131.132 615.907 131.358 615.907 131.641C615.907 131.896 616.015 132.094 616.229 132.235C616.443 132.377 616.876 132.52 617.528 132.666C618.179 132.807 618.69 132.978 619.059 133.179C619.432 133.375 619.708 133.612 619.886 133.89C620.068 134.168 620.159 134.505 620.159 134.901C620.159 135.567 619.884 136.107 619.332 136.521C618.781 136.932 618.058 137.137 617.165 137.137C616.559 137.137 616.019 137.027 615.545 136.809C615.071 136.59 614.702 136.289 614.438 135.906C614.173 135.523 614.041 135.111 614.041 134.669H615.654C615.677 135.061 615.825 135.364 616.099 135.578C616.372 135.788 616.735 135.893 617.186 135.893C617.623 135.893 617.956 135.811 618.184 135.646C618.412 135.478 618.526 135.259 618.526 134.99ZM626.431 137C626.359 136.859 626.295 136.629 626.24 136.31C625.711 136.861 625.064 137.137 624.299 137.137C623.556 137.137 622.95 136.925 622.48 136.501C622.011 136.077 621.776 135.553 621.776 134.929C621.776 134.14 622.068 133.536 622.651 133.117C623.239 132.693 624.078 132.481 625.167 132.481H626.185V131.996C626.185 131.613 626.078 131.308 625.864 131.08C625.65 130.848 625.324 130.731 624.887 130.731C624.508 130.731 624.198 130.827 623.957 131.019C623.715 131.205 623.595 131.445 623.595 131.736H621.933C621.933 131.331 622.068 130.952 622.337 130.602C622.606 130.246 622.97 129.968 623.43 129.768C623.895 129.567 624.413 129.467 624.982 129.467C625.848 129.467 626.539 129.686 627.054 130.123C627.568 130.556 627.833 131.167 627.846 131.955V135.291C627.846 135.956 627.94 136.487 628.127 136.884V137H626.431ZM624.606 135.804C624.934 135.804 625.242 135.724 625.529 135.564C625.821 135.405 626.04 135.191 626.185 134.922V133.527H625.29C624.675 133.527 624.212 133.634 623.902 133.849C623.592 134.063 623.437 134.366 623.437 134.758C623.437 135.077 623.542 135.332 623.752 135.523C623.966 135.71 624.251 135.804 624.606 135.804ZM636.477 133.377C636.477 134.525 636.219 135.439 635.704 136.118C635.194 136.797 634.49 137.137 633.592 137.137C632.726 137.137 632.052 136.825 631.569 136.2L631.487 137H629.983V126.5H631.644V130.314C632.122 129.749 632.767 129.467 633.579 129.467C634.481 129.467 635.19 129.802 635.704 130.472C636.219 131.142 636.477 132.078 636.477 133.281V133.377ZM634.816 133.233C634.816 132.431 634.675 131.83 634.392 131.429C634.109 131.028 633.699 130.827 633.162 130.827C632.441 130.827 631.936 131.142 631.644 131.771V134.819C631.94 135.462 632.451 135.783 633.175 135.783C633.695 135.783 634.096 135.59 634.378 135.202C634.661 134.815 634.807 134.229 634.816 133.445V133.233ZM640.042 137H638.381V126.5H640.042V137ZM645.514 137.137C644.462 137.137 643.607 136.806 642.951 136.146C642.299 135.48 641.973 134.596 641.973 133.493V133.288C641.973 132.55 642.115 131.891 642.397 131.312C642.684 130.729 643.085 130.276 643.6 129.952C644.115 129.629 644.689 129.467 645.323 129.467C646.33 129.467 647.107 129.788 647.654 130.431C648.205 131.073 648.481 131.982 648.481 133.158V133.828H643.648C643.698 134.439 643.901 134.922 644.256 135.277C644.616 135.633 645.068 135.811 645.61 135.811C646.371 135.811 646.991 135.503 647.469 134.888L648.365 135.742C648.069 136.184 647.672 136.528 647.175 136.774C646.683 137.016 646.129 137.137 645.514 137.137ZM645.316 130.8C644.86 130.8 644.491 130.959 644.209 131.278C643.931 131.597 643.753 132.042 643.675 132.611H646.84V132.488C646.804 131.932 646.656 131.513 646.396 131.23C646.136 130.943 645.776 130.8 645.316 130.8ZM649.865 133.247C649.865 132.108 650.13 131.194 650.658 130.506C651.187 129.813 651.896 129.467 652.784 129.467C653.568 129.467 654.202 129.74 654.685 130.287V126.5H656.346V137H654.842L654.76 136.234C654.263 136.836 653.6 137.137 652.771 137.137C651.905 137.137 651.203 136.788 650.665 136.091C650.132 135.394 649.865 134.446 649.865 133.247ZM651.527 133.391C651.527 134.143 651.67 134.73 651.957 135.154C652.249 135.574 652.661 135.783 653.195 135.783C653.874 135.783 654.37 135.48 654.685 134.874V131.716C654.379 131.123 653.887 130.827 653.208 130.827C652.67 130.827 652.256 131.041 651.964 131.47C651.672 131.894 651.527 132.534 651.527 133.391Z" fill="white"/>
</svg>
