<svg width="875" height="72" viewBox="0 0 875 72" fill="none" xmlns="http://www.w3.org/2000/svg">
<rect x="0.5" y="0.5" width="874" height="71" rx="3.5" stroke="black" stroke-opacity="0.12"/>
<path d="M0 48H10" stroke="black" stroke-opacity="0.87"/>
<path fill-rule="evenodd" clip-rule="evenodd" d="M10 50C11.1046 50 12 49.1046 12 48C12 46.8954 11.1046 46 10 46C8.89543 46 8 46.8954 8 48C8 49.1046 8.89543 50 10 50Z" fill="#292929" stroke="white" stroke-opacity="0.87"/>
<path d="M802.915 52.1973H801.384L800.864 55H799.716L800.235 52.1973H798.656V51.1172H800.44L800.837 48.9775H799.176V47.8906H801.042L801.575 45.0469H802.717L802.184 47.8906H803.722L804.255 45.0469H805.396L804.863 47.8906H806.285V48.9775H804.658L804.262 51.1172H805.772V52.1973H804.057L803.537 55H802.396L802.915 52.1973ZM801.589 51.1172H803.12L803.517 48.9775H801.985L801.589 51.1172ZM813.692 50.7822H809.686V55H807.957V45.0469H814.28V46.4414H809.686V49.4014H813.692V50.7822ZM821.789 50.7822H817.783V55H816.054V45.0469H822.377V46.4414H817.783V49.4014H821.789V50.7822ZM829.887 50.7822H825.881V55H824.151V45.0469H830.474V46.4414H825.881V49.4014H829.887V50.7822ZM837.984 50.7822H833.978V55H832.248V45.0469H838.572V46.4414H833.978V49.4014H837.984V50.7822ZM846.081 50.7822H842.075V55H840.346V45.0469H846.669V46.4414H842.075V49.4014H846.081V50.7822ZM854.178 50.7822H850.172V55H848.443V45.0469H854.766V46.4414H850.172V49.4014H854.178V50.7822Z" fill="black" fill-opacity="0.87"/>
<path d="M837.243 35H835.589V27.0088L833.148 27.8428V26.4414L837.031 25.0127H837.243V35ZM847.795 35H841.102V33.8584L844.418 30.2422C844.896 29.709 845.236 29.2646 845.436 28.9092C845.641 28.5492 845.744 28.1891 845.744 27.8291C845.744 27.3551 845.609 26.9723 845.34 26.6807C845.076 26.389 844.718 26.2432 844.267 26.2432C843.729 26.2432 843.312 26.4072 843.016 26.7354C842.72 27.0635 842.572 27.5124 842.572 28.082H840.911C840.911 27.4759 841.047 26.9313 841.321 26.4482C841.599 25.9606 841.993 25.5824 842.504 25.3135C843.018 25.0446 843.611 24.9102 844.281 24.9102C845.247 24.9102 846.008 25.154 846.564 25.6416C847.125 26.1247 847.405 26.7946 847.405 27.6514C847.405 28.1481 847.264 28.6699 846.981 29.2168C846.703 29.7591 846.245 30.3766 845.607 31.0693L843.173 33.6738H847.795V35ZM849.391 26.9609C849.391 26.3594 849.585 25.8672 849.972 25.4844C850.359 25.097 850.867 24.9033 851.496 24.9033C852.134 24.9033 852.645 25.097 853.028 25.4844C853.415 25.8672 853.609 26.3708 853.609 26.9951V27.4873C853.609 28.0843 853.415 28.5742 853.028 28.957C852.645 29.3398 852.139 29.5312 851.51 29.5312C850.895 29.5312 850.387 29.3444 849.986 28.9707C849.589 28.5924 849.391 28.0843 849.391 27.4463V26.9609ZM850.553 27.4873C850.553 27.8018 850.64 28.057 850.813 28.2529C850.99 28.4443 851.223 28.54 851.51 28.54C851.793 28.54 852.02 28.4443 852.194 28.2529C852.367 28.057 852.453 27.7926 852.453 27.46V26.9609C852.453 26.6465 852.364 26.3913 852.187 26.1953C852.014 25.9993 851.783 25.9014 851.496 25.9014C851.209 25.9014 850.979 26.0016 850.806 26.2021C850.637 26.3981 850.553 26.6579 850.553 26.9814V27.4873ZM854.176 32.5596C854.176 31.9489 854.374 31.4544 854.771 31.0762C855.167 30.6979 855.673 30.5088 856.288 30.5088C856.908 30.5088 857.414 30.6979 857.806 31.0762C858.202 31.4544 858.401 31.9648 858.401 32.6074V33.0928C858.401 33.6852 858.209 34.1751 857.826 34.5625C857.448 34.9453 856.94 35.1367 856.302 35.1367C855.664 35.1367 855.149 34.9476 854.757 34.5693C854.37 34.1865 854.176 33.6829 854.176 33.0586V32.5596ZM855.338 33.0928C855.338 33.4027 855.427 33.6579 855.605 33.8584C855.787 34.0544 856.019 34.1523 856.302 34.1523C856.594 34.1523 856.821 34.0589 856.986 33.8721C857.154 33.6807 857.238 33.4141 857.238 33.0723V32.5596C857.238 32.2406 857.15 31.9854 856.972 31.7939C856.794 31.6025 856.566 31.5068 856.288 31.5068C856.006 31.5068 855.776 31.6025 855.598 31.7939C855.425 31.9854 855.338 32.2497 855.338 32.5869V33.0928ZM851.852 34.2549L850.997 33.7627L855.858 25.9834L856.712 26.4756L851.852 34.2549Z" fill="black" fill-opacity="0.87"/>
<path d="M17.0117 53V43.0469H20.4229C21.5485 43.0469 22.4053 43.2725 22.9932 43.7236C23.5811 44.1748 23.875 44.847 23.875 45.7402C23.875 46.196 23.752 46.6061 23.5059 46.9707C23.2598 47.3353 22.8997 47.6178 22.4258 47.8184C22.9635 47.9642 23.3783 48.2399 23.6699 48.6455C23.9661 49.0465 24.1143 49.5296 24.1143 50.0947C24.1143 51.029 23.8135 51.7467 23.2119 52.248C22.6149 52.7493 21.7581 53 20.6416 53H17.0117ZM18.7412 48.5088V51.6191H20.6621C21.2044 51.6191 21.6283 51.4847 21.9336 51.2158C22.2389 50.9469 22.3916 50.5732 22.3916 50.0947C22.3916 49.0602 21.863 48.5316 20.8057 48.5088H18.7412ZM18.7412 47.2373H20.4365C20.9743 47.2373 21.3936 47.1165 21.6943 46.875C21.9997 46.6289 22.1523 46.2826 22.1523 45.8359C22.1523 45.3438 22.0111 44.9883 21.7285 44.7695C21.4505 44.5508 21.0153 44.4414 20.4229 44.4414H18.7412V47.2373ZM25.7721 49.2334C25.7721 48.5088 25.9156 47.8571 26.2027 47.2783C26.4898 46.695 26.8932 46.2484 27.4127 45.9385C27.9322 45.624 28.5292 45.4668 29.2037 45.4668C30.2018 45.4668 31.0107 45.7881 31.6305 46.4307C32.2548 47.0732 32.5921 47.9255 32.6422 48.9873L32.649 49.377C32.649 50.1061 32.5077 50.7578 32.2252 51.332C31.9472 51.9062 31.5462 52.3506 31.0221 52.665C30.5025 52.9795 29.901 53.1367 29.2174 53.1367C28.1738 53.1367 27.3375 52.7904 26.7086 52.0977C26.0842 51.4004 25.7721 50.473 25.7721 49.3154V49.2334ZM27.4332 49.377C27.4332 50.138 27.5904 50.735 27.9049 51.168C28.2193 51.5964 28.6568 51.8105 29.2174 51.8105C29.7779 51.8105 30.2132 51.5918 30.523 51.1543C30.8375 50.7168 30.9947 50.0765 30.9947 49.2334C30.9947 48.486 30.8329 47.8936 30.5094 47.4561C30.1904 47.0186 29.7551 46.7998 29.2037 46.7998C28.6614 46.7998 28.2307 47.0163 27.9117 47.4492C27.5927 47.8776 27.4332 48.5202 27.4332 49.377ZM38.3264 47.1211C38.1076 47.0846 37.882 47.0664 37.6496 47.0664C36.8885 47.0664 36.3758 47.3581 36.1115 47.9414V53H34.4504V45.6035H36.0363L36.0773 46.4307C36.4784 45.7881 37.0344 45.4668 37.7453 45.4668C37.9823 45.4668 38.1783 45.4987 38.3332 45.5625L38.3264 47.1211ZM39.3279 49.2471C39.3279 48.1077 39.5923 47.194 40.1209 46.5059C40.6495 45.8132 41.3582 45.4668 42.2469 45.4668C43.0307 45.4668 43.6642 45.7402 44.1473 46.2871V42.5H45.8084V53H44.3045L44.2225 52.2344C43.7257 52.8359 43.0626 53.1367 42.2332 53.1367C41.3673 53.1367 40.6655 52.7881 40.1277 52.0908C39.5945 51.3936 39.3279 50.4456 39.3279 49.2471ZM40.9891 49.3906C40.9891 50.1426 41.1326 50.7305 41.4197 51.1543C41.7114 51.5736 42.1238 51.7832 42.657 51.7832C43.3361 51.7832 43.8328 51.4801 44.1473 50.874V47.7158C43.8419 47.1234 43.3497 46.8271 42.6707 46.8271C42.1329 46.8271 41.7182 47.0413 41.4266 47.4697C41.1349 47.8936 40.9891 48.5339 40.9891 49.3906ZM51.1986 53.1367C50.1459 53.1367 49.2914 52.8063 48.6352 52.1455C47.9835 51.4801 47.6576 50.596 47.6576 49.4932V49.2881C47.6576 48.5498 47.7989 47.8913 48.0814 47.3125C48.3686 46.7292 48.7696 46.2757 49.2846 45.9521C49.7995 45.6286 50.3738 45.4668 51.0072 45.4668C52.0144 45.4668 52.7914 45.7881 53.3383 46.4307C53.8897 47.0732 54.1654 47.9824 54.1654 49.1582V49.8281H49.3324C49.3826 50.4388 49.5854 50.9219 49.9408 51.2773C50.3008 51.6328 50.752 51.8105 51.2943 51.8105C52.0554 51.8105 52.6752 51.5029 53.1537 50.8877L54.0492 51.7422C53.753 52.1842 53.3565 52.5283 52.8598 52.7744C52.3676 53.016 51.8139 53.1367 51.1986 53.1367ZM51.0004 46.7998C50.5447 46.7998 50.1755 46.9593 49.893 47.2783C49.615 47.5973 49.4372 48.0417 49.3598 48.6113H52.5248V48.4883C52.4883 47.9323 52.3402 47.513 52.0805 47.2305C51.8207 46.9434 51.4607 46.7998 51.0004 46.7998ZM59.7334 47.1211C59.5146 47.0846 59.2891 47.0664 59.0566 47.0664C58.2956 47.0664 57.7829 47.3581 57.5186 47.9414V53H55.8574V45.6035H57.4434L57.4844 46.4307C57.8854 45.7881 58.4414 45.4668 59.1523 45.4668C59.3893 45.4668 59.5853 45.4987 59.7402 45.5625L59.7334 47.1211ZM68.1076 51.8105C68.5223 51.8105 68.8664 51.6898 69.1398 51.4482C69.4133 51.2067 69.5591 50.9082 69.5773 50.5527H71.1428C71.1245 51.013 70.981 51.4437 70.7121 51.8447C70.4432 52.2412 70.0786 52.5557 69.6184 52.7881C69.1581 53.0205 68.6613 53.1367 68.1281 53.1367C67.0936 53.1367 66.2733 52.8018 65.6672 52.1318C65.0611 51.4619 64.758 50.5368 64.758 49.3564V49.1855C64.758 48.0599 65.0588 47.1598 65.6604 46.4854C66.2619 45.8063 67.0822 45.4668 68.1213 45.4668C69.0008 45.4668 69.7163 45.7243 70.2678 46.2393C70.8238 46.7497 71.1154 47.4219 71.1428 48.2559H69.5773C69.5591 47.832 69.4133 47.4834 69.1398 47.21C68.871 46.9365 68.5269 46.7998 68.1076 46.7998C67.5699 46.7998 67.1551 46.9958 66.8635 47.3877C66.5718 47.7751 66.4237 48.3652 66.4191 49.1582V49.4248C66.4191 50.2269 66.5627 50.8262 66.8498 51.2227C67.1415 51.6146 67.5607 51.8105 68.1076 51.8105ZM72.4861 49.2334C72.4861 48.5088 72.6297 47.8571 72.9168 47.2783C73.2039 46.695 73.6072 46.2484 74.1268 45.9385C74.6463 45.624 75.2433 45.4668 75.9178 45.4668C76.9158 45.4668 77.7247 45.7881 78.3445 46.4307C78.9689 47.0732 79.3061 47.9255 79.3563 48.9873L79.3631 49.377C79.3631 50.1061 79.2218 50.7578 78.9393 51.332C78.6613 51.9062 78.2602 52.3506 77.7361 52.665C77.2166 52.9795 76.615 53.1367 75.9314 53.1367C74.8878 53.1367 74.0516 52.7904 73.4227 52.0977C72.7983 51.4004 72.4861 50.473 72.4861 49.3154V49.2334ZM74.1473 49.377C74.1473 50.138 74.3045 50.735 74.6189 51.168C74.9334 51.5964 75.3709 51.8105 75.9314 51.8105C76.492 51.8105 76.9272 51.5918 77.2371 51.1543C77.5516 50.7168 77.7088 50.0765 77.7088 49.2334C77.7088 48.486 77.547 47.8936 77.2234 47.4561C76.9044 47.0186 76.4692 46.7998 75.9178 46.7998C75.3755 46.7998 74.9448 47.0163 74.6258 47.4492C74.3068 47.8776 74.1473 48.5202 74.1473 49.377ZM82.935 53H81.2738V42.5H82.935V53ZM84.8389 49.2334C84.8389 48.5088 84.9824 47.8571 85.2695 47.2783C85.5566 46.695 85.96 46.2484 86.4795 45.9385C86.999 45.624 87.596 45.4668 88.2705 45.4668C89.2686 45.4668 90.0775 45.7881 90.6973 46.4307C91.3216 47.0732 91.6589 47.9255 91.709 48.9873L91.7158 49.377C91.7158 50.1061 91.5745 50.7578 91.292 51.332C91.014 51.9062 90.613 52.3506 90.0889 52.665C89.5693 52.9795 88.9678 53.1367 88.2842 53.1367C87.2406 53.1367 86.4043 52.7904 85.7754 52.0977C85.151 51.4004 84.8389 50.473 84.8389 49.3154V49.2334ZM86.5 49.377C86.5 50.138 86.6572 50.735 86.9717 51.168C87.2861 51.5964 87.7236 51.8105 88.2842 51.8105C88.8447 51.8105 89.2799 51.5918 89.5898 51.1543C89.9043 50.7168 90.0615 50.0765 90.0615 49.2334C90.0615 48.486 89.8997 47.8936 89.5762 47.4561C89.2572 47.0186 88.8219 46.7998 88.2705 46.7998C87.7282 46.7998 87.2975 47.0163 86.9785 47.4492C86.6595 47.8776 86.5 48.5202 86.5 49.377ZM97.3932 47.1211C97.1744 47.0846 96.9488 47.0664 96.7164 47.0664C95.9553 47.0664 95.4426 47.3581 95.1783 47.9414V53H93.5172V45.6035H95.1031L95.1441 46.4307C95.5452 45.7881 96.1012 45.4668 96.8121 45.4668C97.0491 45.4668 97.2451 45.4987 97.4 45.5625L97.3932 47.1211ZM99.8439 51.25C100.154 51.25 100.393 51.3389 100.562 51.5166C100.73 51.6898 100.815 51.9085 100.815 52.1729C100.815 52.4326 100.73 52.6491 100.562 52.8223C100.393 52.9909 100.154 53.0752 99.8439 53.0752C99.5477 53.0752 99.313 52.9909 99.1398 52.8223C98.9667 52.6536 98.8801 52.4372 98.8801 52.1729C98.8801 51.9085 98.9644 51.6898 99.133 51.5166C99.3016 51.3389 99.5386 51.25 99.8439 51.25ZM99.8439 45.4463C100.154 45.4463 100.393 45.5352 100.562 45.7129C100.73 45.8861 100.815 46.1048 100.815 46.3691C100.815 46.6289 100.73 46.8454 100.562 47.0186C100.393 47.1872 100.154 47.2715 99.8439 47.2715C99.5477 47.2715 99.313 47.1872 99.1398 47.0186C98.9667 46.8499 98.8801 46.6335 98.8801 46.3691C98.8801 46.1048 98.9644 45.8861 99.133 45.7129C99.3016 45.5352 99.5386 45.4463 99.8439 45.4463ZM114.952 48.2832C114.952 49.2585 114.783 50.1152 114.446 50.8535C114.108 51.5872 113.625 52.1523 112.996 52.5488C112.372 52.9408 111.652 53.1367 110.836 53.1367C110.03 53.1367 109.31 52.9408 108.676 52.5488C108.047 52.1523 107.56 51.5895 107.213 50.8604C106.871 50.1312 106.698 49.2904 106.694 48.3379V47.7773C106.694 46.8066 106.865 45.9499 107.206 45.207C107.553 44.4642 108.038 43.8968 108.662 43.5049C109.291 43.1084 110.011 42.9102 110.823 42.9102C111.634 42.9102 112.352 43.1061 112.976 43.498C113.605 43.8854 114.09 44.446 114.432 45.1797C114.774 45.9089 114.947 46.7588 114.952 47.7295V48.2832ZM113.222 47.7637C113.222 46.6608 113.012 45.8154 112.593 45.2275C112.178 44.6396 111.588 44.3457 110.823 44.3457C110.075 44.3457 109.49 44.6396 109.066 45.2275C108.647 45.8109 108.432 46.638 108.423 47.709V48.2832C108.423 49.377 108.635 50.2223 109.059 50.8193C109.487 51.4163 110.08 51.7148 110.836 51.7148C111.602 51.7148 112.19 51.4232 112.6 50.8398C113.015 50.2565 113.222 49.4043 113.222 48.2832V47.7637ZM118.455 45.6035L118.503 46.458C119.05 45.7972 119.768 45.4668 120.656 45.4668C122.197 45.4668 122.98 46.3486 123.008 48.1123V53H121.347V48.208C121.347 47.7386 121.244 47.3923 121.039 47.1689C120.839 46.9411 120.508 46.8271 120.048 46.8271C119.378 46.8271 118.879 47.1302 118.551 47.7363V53H116.89V45.6035H118.455ZM133.139 50.9902C133.139 50.694 133.016 50.4684 132.77 50.3135C132.528 50.1585 132.125 50.0218 131.56 49.9033C130.995 49.7848 130.523 49.6344 130.145 49.4521C129.315 49.0511 128.901 48.4701 128.901 47.709C128.901 47.071 129.169 46.5378 129.707 46.1094C130.245 45.681 130.929 45.4668 131.758 45.4668C132.642 45.4668 133.355 45.6855 133.898 46.123C134.445 46.5605 134.718 47.1279 134.718 47.8252H133.057C133.057 47.5062 132.938 47.2419 132.701 47.0322C132.464 46.818 132.15 46.7109 131.758 46.7109C131.393 46.7109 131.095 46.7952 130.863 46.9639C130.635 47.1325 130.521 47.3581 130.521 47.6406C130.521 47.8958 130.628 48.0941 130.842 48.2354C131.056 48.3766 131.489 48.5202 132.141 48.666C132.793 48.8073 133.303 48.9782 133.672 49.1787C134.046 49.3747 134.321 49.6117 134.499 49.8896C134.682 50.1676 134.773 50.5049 134.773 50.9014C134.773 51.5667 134.497 52.1068 133.946 52.5215C133.394 52.9316 132.672 53.1367 131.779 53.1367C131.172 53.1367 130.632 53.0273 130.158 52.8086C129.684 52.5898 129.315 52.2891 129.051 51.9062C128.787 51.5234 128.654 51.111 128.654 50.6689H130.268C130.291 51.0609 130.439 51.3639 130.712 51.5781C130.986 51.7878 131.348 51.8926 131.799 51.8926C132.237 51.8926 132.569 51.8105 132.797 51.6465C133.025 51.4779 133.139 51.2591 133.139 50.9902ZM141.106 52.2754C140.619 52.8496 139.926 53.1367 139.028 53.1367C138.226 53.1367 137.618 52.902 137.203 52.4326C136.793 51.9632 136.588 51.2842 136.588 50.3955V45.6035H138.249V50.375C138.249 51.3138 138.638 51.7832 139.418 51.7832C140.224 51.7832 140.769 51.4938 141.052 50.915V45.6035H142.713V53H141.147L141.106 52.2754ZM148.677 47.1211C148.458 47.0846 148.233 47.0664 148 47.0664C147.239 47.0664 146.727 47.3581 146.462 47.9414V53H144.801V45.6035H146.387L146.428 46.4307C146.829 45.7881 147.385 45.4668 148.096 45.4668C148.333 45.4668 148.529 45.4987 148.684 45.5625L148.677 47.1211ZM150.848 53V46.834H149.72V45.6035H150.848V44.9268C150.848 44.1064 151.076 43.473 151.531 43.0264C151.987 42.5798 152.625 42.3564 153.445 42.3564C153.737 42.3564 154.047 42.3975 154.375 42.4795L154.334 43.7783C154.152 43.7419 153.94 43.7236 153.698 43.7236C152.905 43.7236 152.509 44.1315 152.509 44.9473V45.6035H154.013V46.834H152.509V53H150.848ZM160.046 53C159.973 52.8587 159.909 52.6286 159.854 52.3096C159.325 52.861 158.678 53.1367 157.913 53.1367C157.17 53.1367 156.564 52.9248 156.094 52.501C155.625 52.0771 155.39 51.5531 155.39 50.9287C155.39 50.1403 155.682 49.5365 156.265 49.1172C156.853 48.6934 157.692 48.4814 158.781 48.4814H159.799V47.9961C159.799 47.6133 159.692 47.3079 159.478 47.0801C159.264 46.8477 158.938 46.7314 158.501 46.7314C158.122 46.7314 157.812 46.8271 157.571 47.0186C157.329 47.2054 157.209 47.4447 157.209 47.7363H155.547C155.547 47.3307 155.682 46.9525 155.951 46.6016C156.22 46.2461 156.584 45.9681 157.045 45.7676C157.509 45.5671 158.027 45.4668 158.596 45.4668C159.462 45.4668 160.153 45.6855 160.668 46.123C161.183 46.556 161.447 47.1667 161.461 47.9551V51.291C161.461 51.9564 161.554 52.4873 161.741 52.8838V53H160.046ZM158.22 51.8037C158.548 51.8037 158.856 51.724 159.143 51.5645C159.435 51.4049 159.654 51.1908 159.799 50.9219V49.5273H158.904C158.289 49.5273 157.826 49.6344 157.516 49.8486C157.206 50.0628 157.051 50.3659 157.051 50.7578C157.051 51.0768 157.156 51.332 157.366 51.5234C157.58 51.7103 157.865 51.8037 158.22 51.8037ZM166.639 51.8105C167.054 51.8105 167.398 51.6898 167.671 51.4482C167.945 51.2067 168.09 50.9082 168.109 50.5527H169.674C169.656 51.013 169.512 51.4437 169.243 51.8447C168.974 52.2412 168.61 52.5557 168.15 52.7881C167.689 53.0205 167.193 53.1367 166.659 53.1367C165.625 53.1367 164.805 52.8018 164.198 52.1318C163.592 51.4619 163.289 50.5368 163.289 49.3564V49.1855C163.289 48.0599 163.59 47.1598 164.192 46.4854C164.793 45.8063 165.613 45.4668 166.653 45.4668C167.532 45.4668 168.248 45.7243 168.799 46.2393C169.355 46.7497 169.647 47.4219 169.674 48.2559H168.109C168.09 47.832 167.945 47.4834 167.671 47.21C167.402 46.9365 167.058 46.7998 166.639 46.7998C166.101 46.7998 165.686 46.9958 165.395 47.3877C165.103 47.7751 164.955 48.3652 164.95 49.1582V49.4248C164.95 50.2269 165.094 50.8262 165.381 51.2227C165.673 51.6146 166.092 51.8105 166.639 51.8105ZM174.586 53.1367C173.533 53.1367 172.679 52.8063 172.022 52.1455C171.371 51.4801 171.045 50.596 171.045 49.4932V49.2881C171.045 48.5498 171.186 47.8913 171.469 47.3125C171.756 46.7292 172.157 46.2757 172.672 45.9521C173.187 45.6286 173.761 45.4668 174.394 45.4668C175.401 45.4668 176.179 45.7881 176.725 46.4307C177.277 47.0732 177.553 47.9824 177.553 49.1582V49.8281H172.72C172.77 50.4388 172.972 50.9219 173.328 51.2773C173.688 51.6328 174.139 51.8105 174.681 51.8105C175.443 51.8105 176.062 51.5029 176.541 50.8877L177.436 51.7422C177.14 52.1842 176.744 52.5283 176.247 52.7744C175.755 53.016 175.201 53.1367 174.586 53.1367ZM174.387 46.7998C173.932 46.7998 173.563 46.9593 173.28 47.2783C173.002 47.5973 172.824 48.0417 172.747 48.6113H175.912V48.4883C175.875 47.9323 175.727 47.513 175.468 47.2305C175.208 46.9434 174.848 46.7998 174.387 46.7998Z" fill="black" fill-opacity="0.87"/>
</svg>
