<svg width="875" height="176" viewBox="0 0 875 176" fill="none" xmlns="http://www.w3.org/2000/svg">
<path fill-rule="evenodd" clip-rule="evenodd" d="M0 0H875V176H0V0Z" fill="#1D9E79"/>
<rect y="88" width="290" height="88" fill="white"/>
<rect x="290" y="88" width="295" height="88" fill="white" fill-opacity="0.74"/>
<rect x="585" y="88" width="290" height="88" fill="white" fill-opacity="0.38"/>
<path d="M514.915 160.197H513.384L512.864 163H511.716L512.235 160.197H510.656V159.117H512.44L512.837 156.978H511.176V155.891H513.042L513.575 153.047H514.717L514.184 155.891H515.722L516.255 153.047H517.396L516.863 155.891H518.285V156.978H516.658L516.262 159.117H517.772V160.197H516.057L515.537 163H514.396L514.915 160.197ZM513.589 159.117H515.12L515.517 156.978H513.985L513.589 159.117ZM525.692 158.782H521.686V163H519.957V153.047H526.28V154.441H521.686V157.401H525.692V158.782ZM533.789 158.782H529.783V163H528.054V153.047H534.377V154.441H529.783V157.401H533.789V158.782ZM541.887 158.782H537.881V163H536.151V153.047H542.474V154.441H537.881V157.401H541.887V158.782ZM549.984 158.782H545.978V163H544.248V153.047H550.572V154.441H545.978V157.401H549.984V158.782ZM558.081 158.782H554.075V163H552.346V153.047H558.669V154.441H554.075V157.401H558.081V158.782ZM566.178 158.782H562.172V163H560.443V153.047H566.766V154.441H562.172V157.401H566.178V158.782Z" fill="black" fill-opacity="0.87"/>
<path d="M222.915 160.197H221.384L220.864 163H219.716L220.235 160.197H218.656V159.117H220.44L220.837 156.978H219.176V155.891H221.042L221.575 153.047H222.717L222.184 155.891H223.722L224.255 153.047H225.396L224.863 155.891H226.285V156.978H224.658L224.262 159.117H225.772V160.197H224.057L223.537 163H222.396L222.915 160.197ZM221.589 159.117H223.12L223.517 156.978H221.985L221.589 159.117ZM233.692 158.782H229.686V163H227.957V153.047H234.28V154.441H229.686V157.401H233.692V158.782ZM241.789 158.782H237.783V163H236.054V153.047H242.377V154.441H237.783V157.401H241.789V158.782ZM249.887 158.782H245.881V163H244.151V153.047H250.474V154.441H245.881V157.401H249.887V158.782ZM257.984 158.782H253.978V163H252.248V153.047H258.572V154.441H253.978V157.401H257.984V158.782ZM266.081 158.782H262.075V163H260.346V153.047H266.669V154.441H262.075V157.401H266.081V158.782ZM274.178 158.782H270.172V163H268.443V153.047H274.766V154.441H270.172V157.401H274.178V158.782Z" fill="black" fill-opacity="0.87"/>
<path d="M805.915 160.197H804.384L803.864 163H802.716L803.235 160.197H801.656V159.117H803.44L803.837 156.978H802.176V155.891H804.042L804.575 153.047H805.717L805.184 155.891H806.722L807.255 153.047H808.396L807.863 155.891H809.285V156.978H807.658L807.262 159.117H808.772V160.197H807.057L806.537 163H805.396L805.915 160.197ZM804.589 159.117H806.12L806.517 156.978H804.985L804.589 159.117ZM816.692 158.782H812.686V163H810.957V153.047H817.28V154.441H812.686V157.401H816.692V158.782ZM824.789 158.782H820.783V163H819.054V153.047H825.377V154.441H820.783V157.401H824.789V158.782ZM832.887 158.782H828.881V163H827.151V153.047H833.474V154.441H828.881V157.401H832.887V158.782ZM840.984 158.782H836.978V163H835.248V153.047H841.572V154.441H836.978V157.401H840.984V158.782ZM849.081 158.782H845.075V163H843.346V153.047H849.669V154.441H845.075V157.401H849.081V158.782ZM857.178 158.782H853.172V163H851.443V153.047H857.766V154.441H853.172V157.401H857.178V158.782Z" fill="black" fill-opacity="0.87"/>
<path d="M835.666 137.265H836.678C837.188 137.26 837.591 137.128 837.888 136.868C838.188 136.608 838.339 136.232 838.339 135.74C838.339 135.266 838.214 134.899 837.963 134.64C837.717 134.375 837.339 134.243 836.828 134.243C836.382 134.243 836.015 134.373 835.728 134.633C835.44 134.888 835.297 135.223 835.297 135.638H833.636C833.636 135.127 833.77 134.662 834.039 134.243C834.312 133.824 834.691 133.498 835.174 133.266C835.661 133.029 836.206 132.91 836.808 132.91C837.801 132.91 838.58 133.161 839.146 133.662C839.715 134.159 840 134.852 840 135.74C840 136.187 839.856 136.608 839.569 137.005C839.287 137.397 838.92 137.693 838.469 137.894C839.016 138.08 839.43 138.374 839.713 138.775C840 139.176 840.144 139.655 840.144 140.211C840.144 141.104 839.836 141.815 839.221 142.344C838.61 142.872 837.806 143.137 836.808 143.137C835.851 143.137 835.067 142.882 834.456 142.371C833.845 141.861 833.54 141.182 833.54 140.334H835.201C835.201 140.771 835.347 141.127 835.639 141.4C835.935 141.674 836.331 141.811 836.828 141.811C837.343 141.811 837.749 141.674 838.045 141.4C838.341 141.127 838.489 140.73 838.489 140.211C838.489 139.687 838.334 139.284 838.024 139.001C837.715 138.718 837.254 138.577 836.644 138.577H835.666V137.265ZM848.371 135.672C848.371 136.16 848.245 136.595 847.995 136.978C847.744 137.356 847.402 137.654 846.969 137.873C847.489 138.115 847.888 138.445 848.166 138.864C848.448 139.284 848.589 139.757 848.589 140.286C848.589 141.161 848.293 141.856 847.701 142.371C847.108 142.882 846.32 143.137 845.336 143.137C844.347 143.137 843.554 142.879 842.957 142.364C842.364 141.849 842.068 141.157 842.068 140.286C842.068 139.753 842.209 139.274 842.492 138.851C842.774 138.427 843.171 138.101 843.681 137.873C843.253 137.654 842.913 137.356 842.663 136.978C842.417 136.595 842.294 136.16 842.294 135.672C842.294 134.824 842.567 134.152 843.114 133.655C843.661 133.159 844.399 132.91 845.329 132.91C846.263 132.91 847.004 133.159 847.55 133.655C848.097 134.152 848.371 134.824 848.371 135.672ZM846.928 140.204C846.928 139.712 846.78 139.315 846.484 139.015C846.192 138.709 845.805 138.557 845.322 138.557C844.839 138.557 844.451 138.707 844.16 139.008C843.873 139.309 843.729 139.707 843.729 140.204C843.729 140.692 843.87 141.081 844.153 141.373C844.44 141.665 844.834 141.811 845.336 141.811C845.837 141.811 846.226 141.669 846.504 141.387C846.787 141.104 846.928 140.71 846.928 140.204ZM846.716 135.733C846.716 135.3 846.591 134.945 846.34 134.667C846.09 134.384 845.753 134.243 845.329 134.243C844.905 134.243 844.57 134.378 844.324 134.646C844.078 134.911 843.955 135.273 843.955 135.733C843.955 136.189 844.078 136.551 844.324 136.82C844.574 137.089 844.912 137.224 845.336 137.224C845.759 137.224 846.094 137.089 846.34 136.82C846.591 136.551 846.716 136.189 846.716 135.733ZM850.391 134.961C850.391 134.359 850.585 133.867 850.972 133.484C851.359 133.097 851.867 132.903 852.496 132.903C853.134 132.903 853.645 133.097 854.028 133.484C854.415 133.867 854.609 134.371 854.609 134.995V135.487C854.609 136.084 854.415 136.574 854.028 136.957C853.645 137.34 853.139 137.531 852.51 137.531C851.895 137.531 851.387 137.344 850.986 136.971C850.589 136.592 850.391 136.084 850.391 135.446V134.961ZM851.553 135.487C851.553 135.802 851.64 136.057 851.813 136.253C851.99 136.444 852.223 136.54 852.51 136.54C852.793 136.54 853.02 136.444 853.194 136.253C853.367 136.057 853.453 135.793 853.453 135.46V134.961C853.453 134.646 853.364 134.391 853.187 134.195C853.014 133.999 852.783 133.901 852.496 133.901C852.209 133.901 851.979 134.002 851.806 134.202C851.637 134.398 851.553 134.658 851.553 134.981V135.487ZM855.176 140.56C855.176 139.949 855.374 139.454 855.771 139.076C856.167 138.698 856.673 138.509 857.288 138.509C857.908 138.509 858.414 138.698 858.806 139.076C859.202 139.454 859.401 139.965 859.401 140.607V141.093C859.401 141.685 859.209 142.175 858.826 142.562C858.448 142.945 857.94 143.137 857.302 143.137C856.664 143.137 856.149 142.948 855.757 142.569C855.37 142.187 855.176 141.683 855.176 141.059V140.56ZM856.338 141.093C856.338 141.403 856.427 141.658 856.605 141.858C856.787 142.054 857.019 142.152 857.302 142.152C857.594 142.152 857.821 142.059 857.986 141.872C858.154 141.681 858.238 141.414 858.238 141.072V140.56C858.238 140.241 858.15 139.985 857.972 139.794C857.794 139.603 857.566 139.507 857.288 139.507C857.006 139.507 856.776 139.603 856.598 139.794C856.425 139.985 856.338 140.25 856.338 140.587V141.093ZM852.852 142.255L851.997 141.763L856.858 133.983L857.712 134.476L852.852 142.255Z" fill="black" fill-opacity="0.87"/>
<path d="M548.369 133.97L544.391 143H542.647L546.619 134.38H541.472V133.047H548.369V133.97ZM555.721 139.452H556.959V140.785H555.721V143H554.06V140.785H549.76L549.712 139.773L554.005 133.047H555.721V139.452ZM551.456 139.452H554.06V135.296L553.937 135.515L551.456 139.452ZM558.391 134.961C558.391 134.359 558.585 133.867 558.972 133.484C559.359 133.097 559.867 132.903 560.496 132.903C561.134 132.903 561.645 133.097 562.028 133.484C562.415 133.867 562.609 134.371 562.609 134.995V135.487C562.609 136.084 562.415 136.574 562.028 136.957C561.645 137.34 561.139 137.531 560.51 137.531C559.895 137.531 559.387 137.344 558.986 136.971C558.589 136.592 558.391 136.084 558.391 135.446V134.961ZM559.553 135.487C559.553 135.802 559.64 136.057 559.813 136.253C559.99 136.444 560.223 136.54 560.51 136.54C560.793 136.54 561.02 136.444 561.194 136.253C561.367 136.057 561.453 135.793 561.453 135.46V134.961C561.453 134.646 561.364 134.391 561.187 134.195C561.014 133.999 560.783 133.901 560.496 133.901C560.209 133.901 559.979 134.002 559.806 134.202C559.637 134.398 559.553 134.658 559.553 134.981V135.487ZM563.176 140.56C563.176 139.949 563.374 139.454 563.771 139.076C564.167 138.698 564.673 138.509 565.288 138.509C565.908 138.509 566.414 138.698 566.806 139.076C567.202 139.454 567.401 139.965 567.401 140.607V141.093C567.401 141.685 567.209 142.175 566.826 142.562C566.448 142.945 565.94 143.137 565.302 143.137C564.664 143.137 564.149 142.948 563.757 142.569C563.37 142.187 563.176 141.683 563.176 141.059V140.56ZM564.338 141.093C564.338 141.403 564.427 141.658 564.605 141.858C564.787 142.054 565.019 142.152 565.302 142.152C565.594 142.152 565.821 142.059 565.986 141.872C566.154 141.681 566.238 141.414 566.238 141.072V140.56C566.238 140.241 566.15 139.985 565.972 139.794C565.794 139.603 565.566 139.507 565.288 139.507C565.006 139.507 564.776 139.603 564.598 139.794C564.425 139.985 564.338 140.25 564.338 140.587V141.093ZM560.852 142.255L559.997 141.763L564.858 133.983L565.712 134.476L560.852 142.255Z" fill="black" fill-opacity="0.87"/>
<path d="M246.243 143H244.589V135.009L242.148 135.843V134.441L246.031 133.013H246.243V143ZM256.589 138.81C256.589 140.241 256.321 141.321 255.783 142.05C255.25 142.774 254.436 143.137 253.342 143.137C252.267 143.137 251.456 142.784 250.909 142.077C250.366 141.366 250.088 140.316 250.075 138.926V137.203C250.075 135.772 250.341 134.699 250.875 133.983C251.412 133.268 252.23 132.91 253.329 132.91C254.418 132.91 255.229 133.259 255.762 133.956C256.3 134.653 256.576 135.697 256.589 137.087V138.81ZM254.928 136.95C254.928 136.016 254.801 135.332 254.546 134.899C254.29 134.462 253.885 134.243 253.329 134.243C252.786 134.243 252.388 134.451 252.132 134.865C251.877 135.275 251.743 135.918 251.729 136.793V139.049C251.729 139.979 251.859 140.671 252.119 141.127C252.379 141.583 252.786 141.811 253.342 141.811C253.876 141.811 254.27 141.601 254.525 141.182C254.78 140.758 254.915 140.097 254.928 139.199V136.95ZM264.946 138.81C264.946 140.241 264.678 141.321 264.14 142.05C263.607 142.774 262.793 143.137 261.699 143.137C260.624 143.137 259.813 142.784 259.266 142.077C258.724 141.366 258.446 140.316 258.432 138.926V137.203C258.432 135.772 258.698 134.699 259.232 133.983C259.769 133.268 260.587 132.91 261.686 132.91C262.775 132.91 263.586 133.259 264.119 133.956C264.657 134.653 264.933 135.697 264.946 137.087V138.81ZM263.285 136.95C263.285 136.016 263.158 135.332 262.903 134.899C262.647 134.462 262.242 134.243 261.686 134.243C261.143 134.243 260.745 134.451 260.489 134.865C260.234 135.275 260.1 135.918 260.086 136.793V139.049C260.086 139.979 260.216 140.671 260.476 141.127C260.736 141.583 261.143 141.811 261.699 141.811C262.233 141.811 262.627 141.601 262.882 141.182C263.137 140.758 263.272 140.097 263.285 139.199V136.95ZM266.748 134.961C266.748 134.359 266.942 133.867 267.329 133.484C267.716 133.097 268.224 132.903 268.853 132.903C269.491 132.903 270.002 133.097 270.385 133.484C270.772 133.867 270.966 134.371 270.966 134.995V135.487C270.966 136.084 270.772 136.574 270.385 136.957C270.002 137.34 269.496 137.531 268.867 137.531C268.252 137.531 267.744 137.344 267.343 136.971C266.946 136.592 266.748 136.084 266.748 135.446V134.961ZM267.91 135.487C267.91 135.802 267.997 136.057 268.17 136.253C268.347 136.444 268.58 136.54 268.867 136.54C269.15 136.54 269.377 136.444 269.551 136.253C269.724 136.057 269.81 135.793 269.81 135.46V134.961C269.81 134.646 269.721 134.391 269.544 134.195C269.371 133.999 269.14 133.901 268.853 133.901C268.566 133.901 268.336 134.002 268.163 134.202C267.994 134.398 267.91 134.658 267.91 134.981V135.487ZM271.533 140.56C271.533 139.949 271.731 139.454 272.128 139.076C272.524 138.698 273.03 138.509 273.645 138.509C274.265 138.509 274.771 138.698 275.163 139.076C275.559 139.454 275.758 139.965 275.758 140.607V141.093C275.758 141.685 275.566 142.175 275.183 142.562C274.805 142.945 274.297 143.137 273.659 143.137C273.021 143.137 272.506 142.948 272.114 142.569C271.727 142.187 271.533 141.683 271.533 141.059V140.56ZM272.695 141.093C272.695 141.403 272.784 141.658 272.962 141.858C273.144 142.054 273.376 142.152 273.659 142.152C273.951 142.152 274.179 142.059 274.343 141.872C274.511 141.681 274.596 141.414 274.596 141.072V140.56C274.596 140.241 274.507 139.985 274.329 139.794C274.151 139.603 273.923 139.507 273.645 139.507C273.363 139.507 273.133 139.603 272.955 139.794C272.782 139.985 272.695 140.25 272.695 140.587V141.093ZM269.209 142.255L268.354 141.763L273.215 133.983L274.069 134.476L269.209 142.255Z" fill="black" fill-opacity="0.87"/>
<path d="M316.955 158.283C316.955 159.258 316.786 160.115 316.449 160.854C316.112 161.587 315.629 162.152 315 162.549C314.376 162.941 313.656 163.137 312.84 163.137C312.033 163.137 311.313 162.941 310.68 162.549C310.051 162.152 309.563 161.59 309.217 160.86C308.875 160.131 308.702 159.29 308.697 158.338V157.777C308.697 156.807 308.868 155.95 309.21 155.207C309.556 154.464 310.042 153.897 310.666 153.505C311.295 153.108 312.015 152.91 312.826 152.91C313.637 152.91 314.355 153.106 314.979 153.498C315.608 153.885 316.094 154.446 316.436 155.18C316.777 155.909 316.951 156.759 316.955 157.729V158.283ZM315.226 157.764C315.226 156.661 315.016 155.815 314.597 155.228C314.182 154.64 313.592 154.346 312.826 154.346C312.079 154.346 311.493 154.64 311.069 155.228C310.65 155.811 310.436 156.638 310.427 157.709V158.283C310.427 159.377 310.639 160.222 311.062 160.819C311.491 161.416 312.083 161.715 312.84 161.715C313.605 161.715 314.193 161.423 314.604 160.84C315.018 160.257 315.226 159.404 315.226 158.283V157.764ZM320.459 155.604L320.506 156.458C321.053 155.797 321.771 155.467 322.66 155.467C324.2 155.467 324.984 156.349 325.011 158.112V163H323.35V158.208C323.35 157.739 323.248 157.392 323.043 157.169C322.842 156.941 322.512 156.827 322.051 156.827C321.381 156.827 320.882 157.13 320.554 157.736V163H318.893V155.604H320.459ZM332.887 159.302V163H331.157V153.047H334.965C336.077 153.047 336.958 153.336 337.61 153.915C338.266 154.494 338.595 155.259 338.595 156.212C338.595 157.187 338.273 157.946 337.631 158.488C336.993 159.031 336.097 159.302 334.944 159.302H332.887ZM332.887 157.914H334.965C335.58 157.914 336.049 157.771 336.373 157.483C336.696 157.192 336.858 156.772 336.858 156.226C336.858 155.688 336.694 155.259 336.366 154.94C336.038 154.617 335.587 154.451 335.013 154.441H332.887V157.914ZM344.224 157.121C344.005 157.085 343.78 157.066 343.547 157.066C342.786 157.066 342.274 157.358 342.009 157.941V163H340.348V155.604H341.934L341.975 156.431C342.376 155.788 342.932 155.467 343.643 155.467C343.88 155.467 344.076 155.499 344.231 155.562L344.224 157.121ZM347.44 163H345.779V155.604H347.44V163ZM345.677 153.683C345.677 153.427 345.757 153.215 345.916 153.047C346.08 152.878 346.312 152.794 346.613 152.794C346.914 152.794 347.146 152.878 347.311 153.047C347.475 153.215 347.557 153.427 347.557 153.683C347.557 153.933 347.475 154.143 347.311 154.312C347.146 154.476 346.914 154.558 346.613 154.558C346.312 154.558 346.08 154.476 345.916 154.312C345.757 154.143 345.677 153.933 345.677 153.683ZM351.217 155.604L351.265 156.376C351.785 155.77 352.496 155.467 353.398 155.467C354.387 155.467 355.064 155.845 355.428 156.602C355.966 155.845 356.723 155.467 357.698 155.467C358.514 155.467 359.12 155.692 359.516 156.144C359.917 156.595 360.122 157.26 360.131 158.14V163H358.47V158.188C358.47 157.718 358.368 157.374 358.163 157.155C357.958 156.937 357.618 156.827 357.144 156.827C356.766 156.827 356.456 156.93 356.214 157.135C355.977 157.335 355.811 157.6 355.715 157.928L355.722 163H354.061V158.133C354.038 157.262 353.594 156.827 352.728 156.827C352.063 156.827 351.591 157.098 351.313 157.641V163H349.652V155.604H351.217ZM366.656 163C366.584 162.859 366.52 162.629 366.465 162.31C365.936 162.861 365.289 163.137 364.524 163.137C363.781 163.137 363.175 162.925 362.705 162.501C362.236 162.077 362.001 161.553 362.001 160.929C362.001 160.14 362.293 159.536 362.876 159.117C363.464 158.693 364.303 158.481 365.392 158.481H366.41V157.996C366.41 157.613 366.303 157.308 366.089 157.08C365.875 156.848 365.549 156.731 365.112 156.731C364.733 156.731 364.423 156.827 364.182 157.019C363.94 157.205 363.82 157.445 363.82 157.736H362.158C362.158 157.331 362.293 156.952 362.562 156.602C362.831 156.246 363.195 155.968 363.655 155.768C364.12 155.567 364.638 155.467 365.207 155.467C366.073 155.467 366.764 155.686 367.279 156.123C367.793 156.556 368.058 157.167 368.071 157.955V161.291C368.071 161.956 368.165 162.487 368.352 162.884V163H366.656ZM364.831 161.804C365.159 161.804 365.467 161.724 365.754 161.564C366.046 161.405 366.265 161.191 366.41 160.922V159.527H365.515C364.9 159.527 364.437 159.634 364.127 159.849C363.817 160.063 363.662 160.366 363.662 160.758C363.662 161.077 363.767 161.332 363.977 161.523C364.191 161.71 364.476 161.804 364.831 161.804ZM374.084 157.121C373.865 157.085 373.639 157.066 373.407 157.066C372.646 157.066 372.133 157.358 371.869 157.941V163H370.208V155.604H371.794L371.835 156.431C372.236 155.788 372.792 155.467 373.503 155.467C373.74 155.467 373.936 155.499 374.091 155.562L374.084 157.121ZM378.244 160.621L379.747 155.604H381.518L378.579 164.121C378.127 165.365 377.362 165.987 376.282 165.987C376.04 165.987 375.774 165.946 375.482 165.864V164.579L375.796 164.6C376.216 164.6 376.53 164.522 376.74 164.367C376.954 164.217 377.122 163.962 377.246 163.602L377.485 162.966L374.887 155.604H376.678L378.244 160.621ZM388.532 163H386.871V152.5H388.532V163ZM402.6 160.539L404.132 153.047H405.847L403.551 163H401.896L400.003 155.733L398.068 163H396.407L394.11 153.047H395.826L397.371 160.525L399.271 153.047H400.721L402.6 160.539ZM408.989 156.41C409.531 155.781 410.217 155.467 411.046 155.467C412.623 155.467 413.423 156.367 413.446 158.167V163H411.785V158.229C411.785 157.718 411.673 157.358 411.45 157.148C411.231 156.934 410.907 156.827 410.479 156.827C409.814 156.827 409.317 157.123 408.989 157.716V163H407.328V152.5H408.989V156.41ZM417.298 163H415.637V155.604H417.298V163ZM415.534 153.683C415.534 153.427 415.614 153.215 415.773 153.047C415.938 152.878 416.17 152.794 416.471 152.794C416.771 152.794 417.004 152.878 417.168 153.047C417.332 153.215 417.414 153.427 417.414 153.683C417.414 153.933 417.332 154.143 417.168 154.312C417.004 154.476 416.771 154.558 416.471 154.558C416.17 154.558 415.938 154.476 415.773 154.312C415.614 154.143 415.534 153.933 415.534 153.683ZM421.594 153.806V155.604H422.9V156.834H421.594V160.963C421.594 161.245 421.649 161.451 421.758 161.578C421.872 161.701 422.073 161.763 422.36 161.763C422.551 161.763 422.745 161.74 422.941 161.694V162.979C422.563 163.084 422.198 163.137 421.847 163.137C420.571 163.137 419.933 162.433 419.933 161.024V156.834H418.716V155.604H419.933V153.806H421.594ZM427.832 163.137C426.779 163.137 425.925 162.806 425.269 162.146C424.617 161.48 424.291 160.596 424.291 159.493V159.288C424.291 158.55 424.432 157.891 424.715 157.312C425.002 156.729 425.403 156.276 425.918 155.952C426.433 155.629 427.007 155.467 427.641 155.467C428.648 155.467 429.425 155.788 429.972 156.431C430.523 157.073 430.799 157.982 430.799 159.158V159.828H425.966C426.016 160.439 426.219 160.922 426.574 161.277C426.934 161.633 427.386 161.811 427.928 161.811C428.689 161.811 429.309 161.503 429.787 160.888L430.683 161.742C430.387 162.184 429.99 162.528 429.493 162.774C429.001 163.016 428.447 163.137 427.832 163.137ZM427.634 156.8C427.178 156.8 426.809 156.959 426.527 157.278C426.249 157.597 426.071 158.042 425.993 158.611H429.158V158.488C429.122 157.932 428.974 157.513 428.714 157.23C428.454 156.943 428.094 156.8 427.634 156.8Z" fill="black" fill-opacity="0.87"/>
<path d="M24.9551 158.283C24.9551 159.258 24.7865 160.115 24.4492 160.854C24.112 161.587 23.6289 162.152 23 162.549C22.3757 162.941 21.6556 163.137 20.8398 163.137C20.0332 163.137 19.3132 162.941 18.6797 162.549C18.0508 162.152 17.5632 161.59 17.2168 160.86C16.875 160.131 16.7018 159.29 16.6973 158.338V157.777C16.6973 156.807 16.8682 155.95 17.21 155.207C17.5563 154.464 18.0417 153.897 18.666 153.505C19.2949 153.108 20.015 152.91 20.8262 152.91C21.6374 152.91 22.3551 153.106 22.9795 153.498C23.6084 153.885 24.0938 154.446 24.4355 155.18C24.7773 155.909 24.9505 156.759 24.9551 157.729V158.283ZM23.2256 157.764C23.2256 156.661 23.016 155.815 22.5967 155.228C22.182 154.64 21.5918 154.346 20.8262 154.346C20.0788 154.346 19.4932 154.64 19.0693 155.228C18.6501 155.811 18.4359 156.638 18.4268 157.709V158.283C18.4268 159.377 18.6387 160.222 19.0625 160.819C19.4909 161.416 20.0833 161.715 20.8398 161.715C21.6055 161.715 22.1934 161.423 22.6035 160.84C23.0182 160.257 23.2256 159.404 23.2256 158.283V157.764ZM28.4586 155.604L28.5064 156.458C29.0533 155.797 29.7711 155.467 30.6598 155.467C32.2001 155.467 32.984 156.349 33.0113 158.112V163H31.3502V158.208C31.3502 157.739 31.2477 157.392 31.0426 157.169C30.8421 156.941 30.5117 156.827 30.0514 156.827C29.3814 156.827 28.8824 157.13 28.5543 157.736V163H26.8932V155.604H28.4586ZM40.8865 159.302V163H39.157V153.047H42.9646C44.0766 153.047 44.9585 153.336 45.6102 153.915C46.2664 154.494 46.5945 155.259 46.5945 156.212C46.5945 157.187 46.2732 157.946 45.6307 158.488C44.9926 159.031 44.0971 159.302 42.9441 159.302H40.8865ZM40.8865 157.914H42.9646C43.5799 157.914 44.0493 157.771 44.3729 157.483C44.6964 157.192 44.8582 156.772 44.8582 156.226C44.8582 155.688 44.6941 155.259 44.366 154.94C44.0379 154.617 43.5867 154.451 43.0125 154.441H40.8865V157.914ZM52.224 157.121C52.0053 157.085 51.7797 157.066 51.5473 157.066C50.7862 157.066 50.2735 157.358 50.0092 157.941V163H48.348V155.604H49.934L49.975 156.431C50.376 155.788 50.932 155.467 51.643 155.467C51.8799 155.467 52.0759 155.499 52.2309 155.562L52.224 157.121ZM55.4404 163H53.7793V155.604H55.4404V163ZM53.6768 153.683C53.6768 153.427 53.7565 153.215 53.916 153.047C54.0801 152.878 54.3125 152.794 54.6133 152.794C54.9141 152.794 55.1465 152.878 55.3105 153.047C55.4746 153.215 55.5566 153.427 55.5566 153.683C55.5566 153.933 55.4746 154.143 55.3105 154.312C55.1465 154.476 54.9141 154.558 54.6133 154.558C54.3125 154.558 54.0801 154.476 53.916 154.312C53.7565 154.143 53.6768 153.933 53.6768 153.683ZM59.2174 155.604L59.2652 156.376C59.7848 155.77 60.4957 155.467 61.398 155.467C62.387 155.467 63.0637 155.845 63.4283 156.602C63.9661 155.845 64.7226 155.467 65.6979 155.467C66.5136 155.467 67.1197 155.692 67.5162 156.144C67.9173 156.595 68.1223 157.26 68.1314 158.14V163H66.4703V158.188C66.4703 157.718 66.3678 157.374 66.1627 157.155C65.9576 156.937 65.6181 156.827 65.1441 156.827C64.7659 156.827 64.456 156.93 64.2145 157.135C63.9775 157.335 63.8111 157.6 63.7154 157.928L63.7223 163H62.0611V158.133C62.0383 157.262 61.594 156.827 60.7281 156.827C60.0628 156.827 59.5911 157.098 59.3131 157.641V163H57.652V155.604H59.2174ZM74.6564 163C74.5835 162.859 74.5197 162.629 74.465 162.31C73.9364 162.861 73.2893 163.137 72.5236 163.137C71.7808 163.137 71.1747 162.925 70.7053 162.501C70.2359 162.077 70.0012 161.553 70.0012 160.929C70.0012 160.14 70.2928 159.536 70.8762 159.117C71.4641 158.693 72.3026 158.481 73.3918 158.481H74.4104V157.996C74.4104 157.613 74.3033 157.308 74.0891 157.08C73.8749 156.848 73.549 156.731 73.1115 156.731C72.7333 156.731 72.4234 156.827 72.1818 157.019C71.9403 157.205 71.8195 157.445 71.8195 157.736H70.1584C70.1584 157.331 70.2928 156.952 70.5617 156.602C70.8306 156.246 71.1952 155.968 71.6555 155.768C72.1203 155.567 72.6376 155.467 73.2072 155.467C74.0731 155.467 74.7635 155.686 75.2785 156.123C75.7935 156.556 76.0578 157.167 76.0715 157.955V161.291C76.0715 161.956 76.1649 162.487 76.3518 162.884V163H74.6564ZM72.8312 161.804C73.1594 161.804 73.467 161.724 73.7541 161.564C74.0458 161.405 74.2645 161.191 74.4104 160.922V159.527H73.5148C72.8996 159.527 72.437 159.634 72.1271 159.849C71.8173 160.063 71.6623 160.366 71.6623 160.758C71.6623 161.077 71.7671 161.332 71.9768 161.523C72.1909 161.71 72.4758 161.804 72.8312 161.804ZM82.0838 157.121C81.865 157.085 81.6395 157.066 81.407 157.066C80.646 157.066 80.1333 157.358 79.8689 157.941V163H78.2078V155.604H79.7938L79.8348 156.431C80.2358 155.788 80.7918 155.467 81.5027 155.467C81.7397 155.467 81.9357 155.499 82.0906 155.562L82.0838 157.121ZM86.2436 160.621L87.7475 155.604H89.518L86.5785 164.121C86.1273 165.365 85.3617 165.987 84.2816 165.987C84.0401 165.987 83.7735 165.946 83.4818 165.864V164.579L83.7963 164.6C84.2156 164.6 84.53 164.522 84.7396 164.367C84.9538 164.217 85.1225 163.962 85.2455 163.602L85.4848 162.966L82.8871 155.604H84.6781L86.2436 160.621ZM96.5318 163H94.8707V152.5H96.5318V163ZM110.6 160.539L112.132 153.047H113.847L111.551 163H109.896L108.003 155.733L106.068 163H104.407L102.11 153.047H103.826L105.371 160.525L107.271 153.047H108.721L110.6 160.539ZM116.989 156.41C117.531 155.781 118.217 155.467 119.046 155.467C120.623 155.467 121.423 156.367 121.446 158.167V163H119.785V158.229C119.785 157.718 119.673 157.358 119.45 157.148C119.231 156.934 118.907 156.827 118.479 156.827C117.814 156.827 117.317 157.123 116.989 157.716V163H115.328V152.5H116.989V156.41ZM125.298 163H123.637V155.604H125.298V163ZM123.534 153.683C123.534 153.427 123.614 153.215 123.773 153.047C123.938 152.878 124.17 152.794 124.471 152.794C124.771 152.794 125.004 152.878 125.168 153.047C125.332 153.215 125.414 153.427 125.414 153.683C125.414 153.933 125.332 154.143 125.168 154.312C125.004 154.476 124.771 154.558 124.471 154.558C124.17 154.558 123.938 154.476 123.773 154.312C123.614 154.143 123.534 153.933 123.534 153.683ZM129.594 153.806V155.604H130.9V156.834H129.594V160.963C129.594 161.245 129.649 161.451 129.758 161.578C129.872 161.701 130.073 161.763 130.36 161.763C130.551 161.763 130.745 161.74 130.941 161.694V162.979C130.563 163.084 130.198 163.137 129.847 163.137C128.571 163.137 127.933 162.433 127.933 161.024V156.834H126.716V155.604H127.933V153.806H129.594ZM135.832 163.137C134.779 163.137 133.925 162.806 133.269 162.146C132.617 161.48 132.291 160.596 132.291 159.493V159.288C132.291 158.55 132.432 157.891 132.715 157.312C133.002 156.729 133.403 156.276 133.918 155.952C134.433 155.629 135.007 155.467 135.641 155.467C136.648 155.467 137.425 155.788 137.972 156.431C138.523 157.073 138.799 157.982 138.799 159.158V159.828H133.966C134.016 160.439 134.219 160.922 134.574 161.277C134.934 161.633 135.386 161.811 135.928 161.811C136.689 161.811 137.309 161.503 137.787 160.888L138.683 161.742C138.387 162.184 137.99 162.528 137.493 162.774C137.001 163.016 136.447 163.137 135.832 163.137ZM135.634 156.8C135.178 156.8 134.809 156.959 134.527 157.278C134.249 157.597 134.071 158.042 133.993 158.611H137.158V158.488C137.122 157.932 136.974 157.513 136.714 157.23C136.454 156.943 136.094 156.8 135.634 156.8Z" fill="black" fill-opacity="0.87"/>
<path d="M311.254 133.047L314.125 140.676L316.989 133.047H319.225V143H317.502V139.719L317.673 135.33L314.733 143H313.496L310.563 135.337L310.734 139.719V143H309.012V133.047H311.254ZM324.772 143.137C323.719 143.137 322.865 142.806 322.209 142.146C321.557 141.48 321.231 140.596 321.231 139.493V139.288C321.231 138.55 321.372 137.891 321.655 137.312C321.942 136.729 322.343 136.276 322.858 135.952C323.373 135.629 323.947 135.467 324.581 135.467C325.588 135.467 326.365 135.788 326.912 136.431C327.463 137.073 327.739 137.982 327.739 139.158V139.828H322.906C322.956 140.439 323.159 140.922 323.514 141.277C323.874 141.633 324.325 141.811 324.868 141.811C325.629 141.811 326.249 141.503 326.727 140.888L327.623 141.742C327.326 142.184 326.93 142.528 326.433 142.774C325.941 143.016 325.387 143.137 324.772 143.137ZM324.574 136.8C324.118 136.8 323.749 136.959 323.466 137.278C323.188 137.597 323.011 138.042 322.933 138.611H326.098V138.488C326.062 137.932 325.914 137.513 325.654 137.23C325.394 136.943 325.034 136.8 324.574 136.8ZM329.123 139.247C329.123 138.108 329.388 137.194 329.916 136.506C330.445 135.813 331.154 135.467 332.042 135.467C332.826 135.467 333.46 135.74 333.943 136.287V132.5H335.604V143H334.1L334.018 142.234C333.521 142.836 332.858 143.137 332.029 143.137C331.163 143.137 330.461 142.788 329.923 142.091C329.39 141.394 329.123 140.446 329.123 139.247ZM330.784 139.391C330.784 140.143 330.928 140.73 331.215 141.154C331.507 141.574 331.919 141.783 332.452 141.783C333.131 141.783 333.628 141.48 333.943 140.874V137.716C333.637 137.123 333.145 136.827 332.466 136.827C331.928 136.827 331.514 137.041 331.222 137.47C330.93 137.894 330.784 138.534 330.784 139.391ZM339.504 143H337.843V135.604H339.504V143ZM337.74 133.683C337.74 133.427 337.82 133.215 337.979 133.047C338.143 132.878 338.376 132.794 338.677 132.794C338.977 132.794 339.21 132.878 339.374 133.047C339.538 133.215 339.62 133.427 339.62 133.683C339.62 133.933 339.538 134.143 339.374 134.312C339.21 134.476 338.977 134.558 338.677 134.558C338.376 134.558 338.143 134.476 337.979 134.312C337.82 134.143 337.74 133.933 337.74 133.683ZM346.2 142.275C345.712 142.85 345.019 143.137 344.121 143.137C343.319 143.137 342.711 142.902 342.296 142.433C341.886 141.963 341.681 141.284 341.681 140.396V135.604H343.342V140.375C343.342 141.314 343.732 141.783 344.511 141.783C345.318 141.783 345.862 141.494 346.145 140.915V135.604H347.806V143H346.241L346.2 142.275ZM351.46 135.604L351.508 136.376C352.027 135.77 352.738 135.467 353.641 135.467C354.63 135.467 355.306 135.845 355.671 136.602C356.209 135.845 356.965 135.467 357.94 135.467C358.756 135.467 359.362 135.692 359.759 136.144C360.16 136.595 360.365 137.26 360.374 138.14V143H358.713V138.188C358.713 137.718 358.61 137.374 358.405 137.155C358.2 136.937 357.861 136.827 357.387 136.827C357.008 136.827 356.699 136.93 356.457 137.135C356.22 137.335 356.054 137.6 355.958 137.928L355.965 143H354.304V138.133C354.281 137.262 353.837 136.827 352.971 136.827C352.305 136.827 351.834 137.098 351.556 137.641V143H349.895V135.604H351.46ZM372.344 138.557H368.256V141.619H373.034V143H366.527V133.047H372.987V134.441H368.256V137.189H372.344V138.557ZM376.244 135.604L376.292 136.376C376.811 135.77 377.522 135.467 378.425 135.467C379.414 135.467 380.09 135.845 380.455 136.602C380.993 135.845 381.749 135.467 382.724 135.467C383.54 135.467 384.146 135.692 384.543 136.144C384.944 136.595 385.149 137.26 385.158 138.14V143H383.497V138.188C383.497 137.718 383.394 137.374 383.189 137.155C382.984 136.937 382.645 136.827 382.171 136.827C381.792 136.827 381.483 136.93 381.241 137.135C381.004 137.335 380.838 137.6 380.742 137.928L380.749 143H379.088V138.133C379.065 137.262 378.621 136.827 377.755 136.827C377.089 136.827 376.618 137.098 376.34 137.641V143H374.679V135.604H376.244ZM393.741 139.377C393.741 140.521 393.481 141.435 392.961 142.118C392.442 142.797 391.745 143.137 390.87 143.137C390.058 143.137 389.409 142.87 388.921 142.337V145.844H387.26V135.604H388.791L388.86 136.355C389.347 135.763 390.01 135.467 390.849 135.467C391.751 135.467 392.458 135.804 392.968 136.479C393.483 137.148 393.741 138.08 393.741 139.274V139.377ZM392.086 139.233C392.086 138.495 391.938 137.91 391.642 137.477C391.35 137.044 390.931 136.827 390.384 136.827C389.705 136.827 389.218 137.107 388.921 137.668V140.949C389.222 141.523 389.714 141.811 390.398 141.811C390.926 141.811 391.339 141.599 391.635 141.175C391.936 140.746 392.086 140.099 392.086 139.233ZM397.189 136.41C397.732 135.781 398.418 135.467 399.247 135.467C400.824 135.467 401.624 136.367 401.646 138.167V143H399.985V138.229C399.985 137.718 399.874 137.358 399.65 137.148C399.432 136.934 399.108 136.827 398.68 136.827C398.014 136.827 397.518 137.123 397.189 137.716V143H395.528V132.5H397.189V136.41ZM408.151 143C408.078 142.859 408.014 142.629 407.96 142.31C407.431 142.861 406.784 143.137 406.018 143.137C405.275 143.137 404.669 142.925 404.2 142.501C403.73 142.077 403.496 141.553 403.496 140.929C403.496 140.14 403.787 139.536 404.371 139.117C404.959 138.693 405.797 138.481 406.886 138.481H407.905V137.996C407.905 137.613 407.798 137.308 407.584 137.08C407.369 136.848 407.044 136.731 406.606 136.731C406.228 136.731 405.918 136.827 405.676 137.019C405.435 137.205 405.314 137.445 405.314 137.736H403.653C403.653 137.331 403.787 136.952 404.056 136.602C404.325 136.246 404.69 135.968 405.15 135.768C405.615 135.567 406.132 135.467 406.702 135.467C407.568 135.467 408.258 135.686 408.773 136.123C409.288 136.556 409.552 137.167 409.566 137.955V141.291C409.566 141.956 409.659 142.487 409.846 142.884V143H408.151ZM406.326 141.804C406.654 141.804 406.962 141.724 407.249 141.564C407.54 141.405 407.759 141.191 407.905 140.922V139.527H407.009C406.394 139.527 405.932 139.634 405.622 139.849C405.312 140.063 405.157 140.366 405.157 140.758C405.157 141.077 405.262 141.332 405.471 141.523C405.685 141.71 405.97 141.804 406.326 141.804ZM415.852 140.99C415.852 140.694 415.729 140.468 415.483 140.313C415.241 140.159 414.838 140.022 414.273 139.903C413.708 139.785 413.236 139.634 412.858 139.452C412.028 139.051 411.613 138.47 411.613 137.709C411.613 137.071 411.882 136.538 412.42 136.109C412.958 135.681 413.641 135.467 414.471 135.467C415.355 135.467 416.068 135.686 416.611 136.123C417.157 136.561 417.431 137.128 417.431 137.825H415.77C415.77 137.506 415.651 137.242 415.414 137.032C415.177 136.818 414.863 136.711 414.471 136.711C414.106 136.711 413.808 136.795 413.575 136.964C413.348 137.132 413.234 137.358 413.234 137.641C413.234 137.896 413.341 138.094 413.555 138.235C413.769 138.377 414.202 138.52 414.854 138.666C415.505 138.807 416.016 138.978 416.385 139.179C416.759 139.375 417.034 139.612 417.212 139.89C417.394 140.168 417.486 140.505 417.486 140.901C417.486 141.567 417.21 142.107 416.658 142.521C416.107 142.932 415.385 143.137 414.491 143.137C413.885 143.137 413.345 143.027 412.871 142.809C412.397 142.59 412.028 142.289 411.764 141.906C411.5 141.523 411.367 141.111 411.367 140.669H412.981C413.003 141.061 413.152 141.364 413.425 141.578C413.698 141.788 414.061 141.893 414.512 141.893C414.949 141.893 415.282 141.811 415.51 141.646C415.738 141.478 415.852 141.259 415.852 140.99ZM421.105 143H419.444V135.604H421.105V143ZM419.342 133.683C419.342 133.427 419.421 133.215 419.581 133.047C419.745 132.878 419.977 132.794 420.278 132.794C420.579 132.794 420.811 132.878 420.975 133.047C421.139 133.215 421.221 133.427 421.221 133.683C421.221 133.933 421.139 134.143 420.975 134.312C420.811 134.476 420.579 134.558 420.278 134.558C419.977 134.558 419.745 134.476 419.581 134.312C419.421 134.143 419.342 133.933 419.342 133.683ZM427.466 140.99C427.466 140.694 427.343 140.468 427.097 140.313C426.856 140.159 426.452 140.022 425.887 139.903C425.322 139.785 424.85 139.634 424.472 139.452C423.643 139.051 423.228 138.47 423.228 137.709C423.228 137.071 423.497 136.538 424.035 136.109C424.572 135.681 425.256 135.467 426.085 135.467C426.969 135.467 427.683 135.686 428.225 136.123C428.772 136.561 429.045 137.128 429.045 137.825H427.384C427.384 137.506 427.266 137.242 427.029 137.032C426.792 136.818 426.477 136.711 426.085 136.711C425.721 136.711 425.422 136.795 425.19 136.964C424.962 137.132 424.848 137.358 424.848 137.641C424.848 137.896 424.955 138.094 425.169 138.235C425.384 138.377 425.816 138.52 426.468 138.666C427.12 138.807 427.63 138.978 427.999 139.179C428.373 139.375 428.649 139.612 428.827 139.89C429.009 140.168 429.1 140.505 429.1 140.901C429.1 141.567 428.824 142.107 428.273 142.521C427.721 142.932 426.999 143.137 426.106 143.137C425.5 143.137 424.96 143.027 424.486 142.809C424.012 142.59 423.643 142.289 423.378 141.906C423.114 141.523 422.982 141.111 422.982 140.669H424.595C424.618 141.061 424.766 141.364 425.039 141.578C425.313 141.788 425.675 141.893 426.126 141.893C426.564 141.893 426.897 141.811 427.124 141.646C427.352 141.478 427.466 141.259 427.466 140.99Z" fill="black" fill-opacity="0.87"/>
<path d="M24.9141 143H23.1914V138.577H18.7412V143H17.0117V133.047H18.7412V137.189H23.1914V133.047H24.9141V143ZM28.9713 143H27.3102V135.604H28.9713V143ZM27.2076 133.683C27.2076 133.427 27.2874 133.215 27.4469 133.047C27.6109 132.878 27.8434 132.794 28.1441 132.794C28.4449 132.794 28.6773 132.878 28.8414 133.047C29.0055 133.215 29.0875 133.427 29.0875 133.683C29.0875 133.933 29.0055 134.143 28.8414 134.312C28.6773 134.476 28.4449 134.558 28.1441 134.558C27.8434 134.558 27.6109 134.476 27.4469 134.312C27.2874 134.143 27.2076 133.933 27.2076 133.683ZM30.8957 139.247C30.8957 138.099 31.1646 137.183 31.7023 136.499C32.2447 135.811 32.9624 135.467 33.8557 135.467C34.6988 135.467 35.3618 135.761 35.8449 136.349L35.9201 135.604H37.4172V142.774C37.4172 143.745 37.1141 144.511 36.508 145.071C35.9064 145.632 35.093 145.912 34.0676 145.912C33.5253 145.912 32.9943 145.798 32.4748 145.57C31.9598 145.347 31.5679 145.053 31.299 144.688L32.0852 143.69C32.5956 144.297 33.2245 144.6 33.9719 144.6C34.5233 144.6 34.9585 144.449 35.2775 144.148C35.5965 143.852 35.7561 143.415 35.7561 142.836V142.337C35.2775 142.87 34.6395 143.137 33.842 143.137C32.9761 143.137 32.2674 142.793 31.716 142.104C31.1691 141.416 30.8957 140.464 30.8957 139.247ZM32.55 139.391C32.55 140.133 32.7004 140.719 33.0012 141.147C33.3065 141.571 33.7281 141.783 34.2658 141.783C34.9357 141.783 35.4325 141.496 35.7561 140.922V137.668C35.4416 137.107 34.9494 136.827 34.2795 136.827C33.7326 136.827 33.3065 137.044 33.0012 137.477C32.7004 137.91 32.55 138.548 32.55 139.391ZM41.1668 136.41C41.7091 135.781 42.395 135.467 43.2244 135.467C44.8012 135.467 45.601 136.367 45.6238 138.167V143H43.9627V138.229C43.9627 137.718 43.851 137.358 43.6277 137.148C43.409 136.934 43.0854 136.827 42.657 136.827C41.9917 136.827 41.4949 137.123 41.1668 137.716V143H39.5057V132.5H41.1668V136.41ZM57.5732 138.557H53.4854V141.619H58.2637V143H51.7559V133.047H58.2158V134.441H53.4854V137.189H57.5732V138.557ZM61.4732 135.604L61.5211 136.376C62.0406 135.77 62.7516 135.467 63.6539 135.467C64.6428 135.467 65.3196 135.845 65.6842 136.602C66.2219 135.845 66.9785 135.467 67.9537 135.467C68.7695 135.467 69.3756 135.692 69.7721 136.144C70.1731 136.595 70.3782 137.26 70.3873 138.14V143H68.7262V138.188C68.7262 137.718 68.6236 137.374 68.4186 137.155C68.2135 136.937 67.874 136.827 67.4 136.827C67.0217 136.827 66.7119 136.93 66.4703 137.135C66.2333 137.335 66.067 137.6 65.9713 137.928L65.9781 143H64.317V138.133C64.2942 137.262 63.8499 136.827 62.984 136.827C62.3186 136.827 61.8469 137.098 61.5689 137.641V143H59.9078V135.604H61.4732ZM78.9699 139.377C78.9699 140.521 78.7102 141.435 78.1906 142.118C77.6711 142.797 76.9738 143.137 76.0988 143.137C75.2876 143.137 74.6382 142.87 74.1506 142.337V145.844H72.4895V135.604H74.0207L74.0891 136.355C74.5767 135.763 75.2398 135.467 76.0783 135.467C76.9807 135.467 77.687 135.804 78.1975 136.479C78.7124 137.148 78.9699 138.08 78.9699 139.274V139.377ZM77.3156 139.233C77.3156 138.495 77.1675 137.91 76.8713 137.477C76.5796 137.044 76.1604 136.827 75.6135 136.827C74.9344 136.827 74.4468 137.107 74.1506 137.668V140.949C74.4514 141.523 74.9436 141.811 75.6271 141.811C76.1558 141.811 76.5682 141.599 76.8645 141.175C77.1652 140.746 77.3156 140.099 77.3156 139.233ZM82.4188 136.41C82.9611 135.781 83.6469 135.467 84.4764 135.467C86.0532 135.467 86.853 136.367 86.8758 138.167V143H85.2146V138.229C85.2146 137.718 85.103 137.358 84.8797 137.148C84.6609 136.934 84.3374 136.827 83.909 136.827C83.2436 136.827 82.7469 137.123 82.4188 137.716V143H80.7576V132.5H82.4188V136.41ZM93.3803 143C93.3074 142.859 93.2436 142.629 93.1889 142.31C92.6602 142.861 92.0131 143.137 91.2475 143.137C90.5046 143.137 89.8985 142.925 89.4291 142.501C88.9597 142.077 88.725 141.553 88.725 140.929C88.725 140.14 89.0167 139.536 89.6 139.117C90.1879 138.693 91.0264 138.481 92.1156 138.481H93.1342V137.996C93.1342 137.613 93.0271 137.308 92.8129 137.08C92.5987 136.848 92.2729 136.731 91.8354 136.731C91.4571 136.731 91.1472 136.827 90.9057 137.019C90.6641 137.205 90.5434 137.445 90.5434 137.736H88.8822C88.8822 137.331 89.0167 136.952 89.2855 136.602C89.5544 136.246 89.919 135.968 90.3793 135.768C90.8441 135.567 91.3614 135.467 91.9311 135.467C92.7969 135.467 93.4874 135.686 94.0023 136.123C94.5173 136.556 94.7816 137.167 94.7953 137.955V141.291C94.7953 141.956 94.8887 142.487 95.0756 142.884V143H93.3803ZM91.5551 141.804C91.8832 141.804 92.1908 141.724 92.4779 141.564C92.7696 141.405 92.9883 141.191 93.1342 140.922V139.527H92.2387C91.6234 139.527 91.1609 139.634 90.851 139.849C90.5411 140.063 90.3861 140.366 90.3861 140.758C90.3861 141.077 90.4909 141.332 90.7006 141.523C90.9148 141.71 91.1996 141.804 91.5551 141.804ZM101.081 140.99C101.081 140.694 100.958 140.468 100.712 140.313C100.47 140.159 100.067 140.022 99.502 139.903C98.9368 139.785 98.4652 139.634 98.0869 139.452C97.2575 139.051 96.8428 138.47 96.8428 137.709C96.8428 137.071 97.1117 136.538 97.6494 136.109C98.1872 135.681 98.8708 135.467 99.7002 135.467C100.584 135.467 101.298 135.686 101.84 136.123C102.387 136.561 102.66 137.128 102.66 137.825H100.999C100.999 137.506 100.881 137.242 100.644 137.032C100.407 136.818 100.092 136.711 99.7002 136.711C99.3356 136.711 99.0371 136.795 98.8047 136.964C98.5768 137.132 98.4629 137.358 98.4629 137.641C98.4629 137.896 98.57 138.094 98.7842 138.235C98.9984 138.377 99.4313 138.52 100.083 138.666C100.735 138.807 101.245 138.978 101.614 139.179C101.988 139.375 102.264 139.612 102.441 139.89C102.624 140.168 102.715 140.505 102.715 140.901C102.715 141.567 102.439 142.107 101.888 142.521C101.336 142.932 100.614 143.137 99.7207 143.137C99.1146 143.137 98.5745 143.027 98.1006 142.809C97.6266 142.59 97.2575 142.289 96.9932 141.906C96.7288 141.523 96.5967 141.111 96.5967 140.669H98.21C98.2327 141.061 98.3809 141.364 98.6543 141.578C98.9277 141.788 99.29 141.893 99.7412 141.893C100.179 141.893 100.511 141.811 100.739 141.646C100.967 141.478 101.081 141.259 101.081 140.99ZM106.335 143H104.673V135.604H106.335V143ZM104.571 133.683C104.571 133.427 104.651 133.215 104.81 133.047C104.974 132.878 105.207 132.794 105.507 132.794C105.808 132.794 106.041 132.878 106.205 133.047C106.369 133.215 106.451 133.427 106.451 133.683C106.451 133.933 106.369 134.143 106.205 134.312C106.041 134.476 105.808 134.558 105.507 134.558C105.207 134.558 104.974 134.476 104.81 134.312C104.651 134.143 104.571 133.933 104.571 133.683ZM112.696 140.99C112.696 140.694 112.572 140.468 112.326 140.313C112.085 140.159 111.682 140.022 111.116 139.903C110.551 139.785 110.08 139.634 109.701 139.452C108.872 139.051 108.457 138.47 108.457 137.709C108.457 137.071 108.726 136.538 109.264 136.109C109.802 135.681 110.485 135.467 111.315 135.467C112.199 135.467 112.912 135.686 113.454 136.123C114.001 136.561 114.275 137.128 114.275 137.825H112.613C112.613 137.506 112.495 137.242 112.258 137.032C112.021 136.818 111.707 136.711 111.315 136.711C110.95 136.711 110.652 136.795 110.419 136.964C110.191 137.132 110.077 137.358 110.077 137.641C110.077 137.896 110.184 138.094 110.399 138.235C110.613 138.377 111.046 138.52 111.697 138.666C112.349 138.807 112.86 138.978 113.229 139.179C113.602 139.375 113.878 139.612 114.056 139.89C114.238 140.168 114.329 140.505 114.329 140.901C114.329 141.567 114.054 142.107 113.502 142.521C112.951 142.932 112.228 143.137 111.335 143.137C110.729 143.137 110.189 143.027 109.715 142.809C109.241 142.59 108.872 142.289 108.608 141.906C108.343 141.523 108.211 141.111 108.211 140.669H109.824C109.847 141.061 109.995 141.364 110.269 141.578C110.542 141.788 110.904 141.893 111.356 141.893C111.793 141.893 112.126 141.811 112.354 141.646C112.582 141.478 112.696 141.259 112.696 140.99Z" fill="black" fill-opacity="0.87"/>
<path d="M608.955 158.283C608.955 159.258 608.786 160.115 608.449 160.854C608.112 161.587 607.629 162.152 607 162.549C606.376 162.941 605.656 163.137 604.84 163.137C604.033 163.137 603.313 162.941 602.68 162.549C602.051 162.152 601.563 161.59 601.217 160.86C600.875 160.131 600.702 159.29 600.697 158.338V157.777C600.697 156.807 600.868 155.95 601.21 155.207C601.556 154.464 602.042 153.897 602.666 153.505C603.295 153.108 604.015 152.91 604.826 152.91C605.637 152.91 606.355 153.106 606.979 153.498C607.608 153.885 608.094 154.446 608.436 155.18C608.777 155.909 608.951 156.759 608.955 157.729V158.283ZM607.226 157.764C607.226 156.661 607.016 155.815 606.597 155.228C606.182 154.64 605.592 154.346 604.826 154.346C604.079 154.346 603.493 154.64 603.069 155.228C602.65 155.811 602.436 156.638 602.427 157.709V158.283C602.427 159.377 602.639 160.222 603.062 160.819C603.491 161.416 604.083 161.715 604.84 161.715C605.605 161.715 606.193 161.423 606.604 160.84C607.018 160.257 607.226 159.404 607.226 158.283V157.764ZM612.459 155.604L612.506 156.458C613.053 155.797 613.771 155.467 614.66 155.467C616.2 155.467 616.984 156.349 617.011 158.112V163H615.35V158.208C615.35 157.739 615.248 157.392 615.043 157.169C614.842 156.941 614.512 156.827 614.051 156.827C613.381 156.827 612.882 157.13 612.554 157.736V163H610.893V155.604H612.459ZM624.887 159.302V163H623.157V153.047H626.965C628.077 153.047 628.958 153.336 629.61 153.915C630.266 154.494 630.595 155.259 630.595 156.212C630.595 157.187 630.273 157.946 629.631 158.488C628.993 159.031 628.097 159.302 626.944 159.302H624.887ZM624.887 157.914H626.965C627.58 157.914 628.049 157.771 628.373 157.483C628.696 157.192 628.858 156.772 628.858 156.226C628.858 155.688 628.694 155.259 628.366 154.94C628.038 154.617 627.587 154.451 627.013 154.441H624.887V157.914ZM636.224 157.121C636.005 157.085 635.78 157.066 635.547 157.066C634.786 157.066 634.274 157.358 634.009 157.941V163H632.348V155.604H633.934L633.975 156.431C634.376 155.788 634.932 155.467 635.643 155.467C635.88 155.467 636.076 155.499 636.231 155.562L636.224 157.121ZM639.44 163H637.779V155.604H639.44V163ZM637.677 153.683C637.677 153.427 637.757 153.215 637.916 153.047C638.08 152.878 638.312 152.794 638.613 152.794C638.914 152.794 639.146 152.878 639.311 153.047C639.475 153.215 639.557 153.427 639.557 153.683C639.557 153.933 639.475 154.143 639.311 154.312C639.146 154.476 638.914 154.558 638.613 154.558C638.312 154.558 638.08 154.476 637.916 154.312C637.757 154.143 637.677 153.933 637.677 153.683ZM643.217 155.604L643.265 156.376C643.785 155.77 644.496 155.467 645.398 155.467C646.387 155.467 647.064 155.845 647.428 156.602C647.966 155.845 648.723 155.467 649.698 155.467C650.514 155.467 651.12 155.692 651.516 156.144C651.917 156.595 652.122 157.26 652.131 158.14V163H650.47V158.188C650.47 157.718 650.368 157.374 650.163 157.155C649.958 156.937 649.618 156.827 649.144 156.827C648.766 156.827 648.456 156.93 648.214 157.135C647.977 157.335 647.811 157.6 647.715 157.928L647.722 163H646.061V158.133C646.038 157.262 645.594 156.827 644.728 156.827C644.063 156.827 643.591 157.098 643.313 157.641V163H641.652V155.604H643.217ZM658.656 163C658.584 162.859 658.52 162.629 658.465 162.31C657.936 162.861 657.289 163.137 656.524 163.137C655.781 163.137 655.175 162.925 654.705 162.501C654.236 162.077 654.001 161.553 654.001 160.929C654.001 160.14 654.293 159.536 654.876 159.117C655.464 158.693 656.303 158.481 657.392 158.481H658.41V157.996C658.41 157.613 658.303 157.308 658.089 157.08C657.875 156.848 657.549 156.731 657.112 156.731C656.733 156.731 656.423 156.827 656.182 157.019C655.94 157.205 655.82 157.445 655.82 157.736H654.158C654.158 157.331 654.293 156.952 654.562 156.602C654.831 156.246 655.195 155.968 655.655 155.768C656.12 155.567 656.638 155.467 657.207 155.467C658.073 155.467 658.764 155.686 659.279 156.123C659.793 156.556 660.058 157.167 660.071 157.955V161.291C660.071 161.956 660.165 162.487 660.352 162.884V163H658.656ZM656.831 161.804C657.159 161.804 657.467 161.724 657.754 161.564C658.046 161.405 658.265 161.191 658.41 160.922V159.527H657.515C656.9 159.527 656.437 159.634 656.127 159.849C655.817 160.063 655.662 160.366 655.662 160.758C655.662 161.077 655.767 161.332 655.977 161.523C656.191 161.71 656.476 161.804 656.831 161.804ZM666.084 157.121C665.865 157.085 665.639 157.066 665.407 157.066C664.646 157.066 664.133 157.358 663.869 157.941V163H662.208V155.604H663.794L663.835 156.431C664.236 155.788 664.792 155.467 665.503 155.467C665.74 155.467 665.936 155.499 666.091 155.562L666.084 157.121ZM670.244 160.621L671.747 155.604H673.518L670.579 164.121C670.127 165.365 669.362 165.987 668.282 165.987C668.04 165.987 667.774 165.946 667.482 165.864V164.579L667.796 164.6C668.216 164.6 668.53 164.522 668.74 164.367C668.954 164.217 669.122 163.962 669.246 163.602L669.485 162.966L666.887 155.604H668.678L670.244 160.621ZM680.532 163H678.871V152.5H680.532V163ZM686.794 163V153.047H690.205C691.331 153.047 692.187 153.272 692.775 153.724C693.363 154.175 693.657 154.847 693.657 155.74C693.657 156.196 693.534 156.606 693.288 156.971C693.042 157.335 692.682 157.618 692.208 157.818C692.746 157.964 693.16 158.24 693.452 158.646C693.748 159.047 693.896 159.53 693.896 160.095C693.896 161.029 693.596 161.747 692.994 162.248C692.397 162.749 691.54 163 690.424 163H686.794ZM688.523 158.509V161.619H690.444C690.986 161.619 691.41 161.485 691.716 161.216C692.021 160.947 692.174 160.573 692.174 160.095C692.174 159.06 691.645 158.532 690.588 158.509H688.523ZM688.523 157.237H690.219C690.756 157.237 691.176 157.117 691.476 156.875C691.782 156.629 691.934 156.283 691.934 155.836C691.934 155.344 691.793 154.988 691.511 154.77C691.233 154.551 690.797 154.441 690.205 154.441H688.523V157.237ZM697.632 163H695.971V152.5H697.632V163ZM704.267 163C704.194 162.859 704.13 162.629 704.075 162.31C703.547 162.861 702.899 163.137 702.134 163.137C701.391 163.137 700.785 162.925 700.315 162.501C699.846 162.077 699.611 161.553 699.611 160.929C699.611 160.14 699.903 159.536 700.486 159.117C701.074 158.693 701.913 158.481 703.002 158.481H704.021V157.996C704.021 157.613 703.913 157.308 703.699 157.08C703.485 156.848 703.159 156.731 702.722 156.731C702.343 156.731 702.034 156.827 701.792 157.019C701.55 157.205 701.43 157.445 701.43 157.736H699.769C699.769 157.331 699.903 156.952 700.172 156.602C700.441 156.246 700.805 155.968 701.266 155.768C701.73 155.567 702.248 155.467 702.817 155.467C703.683 155.467 704.374 155.686 704.889 156.123C705.404 156.556 705.668 157.167 705.682 157.955V161.291C705.682 161.956 705.775 162.487 705.962 162.884V163H704.267ZM702.441 161.804C702.77 161.804 703.077 161.724 703.364 161.564C703.656 161.405 703.875 161.191 704.021 160.922V159.527H703.125C702.51 159.527 702.047 159.634 701.737 159.849C701.427 160.063 701.272 160.366 701.272 160.758C701.272 161.077 701.377 161.332 701.587 161.523C701.801 161.71 702.086 161.804 702.441 161.804ZM710.86 161.811C711.275 161.811 711.619 161.69 711.892 161.448C712.166 161.207 712.311 160.908 712.33 160.553H713.895C713.877 161.013 713.733 161.444 713.464 161.845C713.196 162.241 712.831 162.556 712.371 162.788C711.91 163.021 711.414 163.137 710.88 163.137C709.846 163.137 709.026 162.802 708.42 162.132C707.813 161.462 707.51 160.537 707.51 159.356V159.186C707.51 158.06 707.811 157.16 708.413 156.485C709.014 155.806 709.835 155.467 710.874 155.467C711.753 155.467 712.469 155.724 713.02 156.239C713.576 156.75 713.868 157.422 713.895 158.256H712.33C712.311 157.832 712.166 157.483 711.892 157.21C711.623 156.937 711.279 156.8 710.86 156.8C710.322 156.8 709.907 156.996 709.616 157.388C709.324 157.775 709.176 158.365 709.171 159.158V159.425C709.171 160.227 709.315 160.826 709.602 161.223C709.894 161.615 710.313 161.811 710.86 161.811ZM717.952 159.828L717.214 160.587V163H715.553V152.5H717.214V158.557L717.734 157.907L719.778 155.604H721.774L719.026 158.687L722.068 163H720.147L717.952 159.828Z" fill="black" fill-opacity="0.87"/>
<path d="M601.012 143V133.047H603.951C604.831 133.047 605.61 133.243 606.289 133.635C606.973 134.027 607.501 134.583 607.875 135.303C608.249 136.023 608.436 136.848 608.436 137.777V138.276C608.436 139.22 608.246 140.049 607.868 140.765C607.494 141.48 606.959 142.032 606.262 142.419C605.569 142.806 604.774 143 603.876 143H601.012ZM602.741 134.441V141.619H603.869C604.776 141.619 605.471 141.337 605.954 140.771C606.442 140.202 606.69 139.386 606.699 138.324V137.771C606.699 136.69 606.465 135.866 605.995 135.296C605.526 134.726 604.844 134.441 603.951 134.441H602.741ZM612.165 143H610.504V135.604H612.165V143ZM610.401 133.683C610.401 133.427 610.481 133.215 610.64 133.047C610.804 132.878 611.037 132.794 611.337 132.794C611.638 132.794 611.871 132.878 612.035 133.047C612.199 133.215 612.281 133.427 612.281 133.683C612.281 133.933 612.199 134.143 612.035 134.312C611.871 134.476 611.638 134.558 611.337 134.558C611.037 134.558 610.804 134.476 610.64 134.312C610.481 134.143 610.401 133.933 610.401 133.683ZM618.526 140.99C618.526 140.694 618.403 140.468 618.156 140.313C617.915 140.159 617.512 140.022 616.946 139.903C616.381 139.785 615.91 139.634 615.531 139.452C614.702 139.051 614.287 138.47 614.287 137.709C614.287 137.071 614.556 136.538 615.094 136.109C615.632 135.681 616.315 135.467 617.145 135.467C618.029 135.467 618.742 135.686 619.284 136.123C619.831 136.561 620.105 137.128 620.105 137.825H618.444C618.444 137.506 618.325 137.242 618.088 137.032C617.851 136.818 617.537 136.711 617.145 136.711C616.78 136.711 616.482 136.795 616.249 136.964C616.021 137.132 615.907 137.358 615.907 137.641C615.907 137.896 616.015 138.094 616.229 138.235C616.443 138.377 616.876 138.52 617.528 138.666C618.179 138.807 618.69 138.978 619.059 139.179C619.432 139.375 619.708 139.612 619.886 139.89C620.068 140.168 620.159 140.505 620.159 140.901C620.159 141.567 619.884 142.107 619.332 142.521C618.781 142.932 618.058 143.137 617.165 143.137C616.559 143.137 616.019 143.027 615.545 142.809C615.071 142.59 614.702 142.289 614.438 141.906C614.173 141.523 614.041 141.111 614.041 140.669H615.654C615.677 141.061 615.825 141.364 616.099 141.578C616.372 141.788 616.735 141.893 617.186 141.893C617.623 141.893 617.956 141.811 618.184 141.646C618.412 141.478 618.526 141.259 618.526 140.99ZM626.431 143C626.359 142.859 626.295 142.629 626.24 142.31C625.711 142.861 625.064 143.137 624.299 143.137C623.556 143.137 622.95 142.925 622.48 142.501C622.011 142.077 621.776 141.553 621.776 140.929C621.776 140.14 622.068 139.536 622.651 139.117C623.239 138.693 624.078 138.481 625.167 138.481H626.185V137.996C626.185 137.613 626.078 137.308 625.864 137.08C625.65 136.848 625.324 136.731 624.887 136.731C624.508 136.731 624.198 136.827 623.957 137.019C623.715 137.205 623.595 137.445 623.595 137.736H621.933C621.933 137.331 622.068 136.952 622.337 136.602C622.606 136.246 622.97 135.968 623.43 135.768C623.895 135.567 624.413 135.467 624.982 135.467C625.848 135.467 626.539 135.686 627.054 136.123C627.568 136.556 627.833 137.167 627.846 137.955V141.291C627.846 141.956 627.94 142.487 628.127 142.884V143H626.431ZM624.606 141.804C624.934 141.804 625.242 141.724 625.529 141.564C625.821 141.405 626.04 141.191 626.185 140.922V139.527H625.29C624.675 139.527 624.212 139.634 623.902 139.849C623.592 140.063 623.437 140.366 623.437 140.758C623.437 141.077 623.542 141.332 623.752 141.523C623.966 141.71 624.251 141.804 624.606 141.804ZM636.477 139.377C636.477 140.525 636.219 141.439 635.704 142.118C635.194 142.797 634.49 143.137 633.592 143.137C632.726 143.137 632.052 142.825 631.569 142.2L631.487 143H629.983V132.5H631.644V136.314C632.122 135.749 632.767 135.467 633.579 135.467C634.481 135.467 635.19 135.802 635.704 136.472C636.219 137.142 636.477 138.078 636.477 139.281V139.377ZM634.816 139.233C634.816 138.431 634.675 137.83 634.392 137.429C634.109 137.028 633.699 136.827 633.162 136.827C632.441 136.827 631.936 137.142 631.644 137.771V140.819C631.94 141.462 632.451 141.783 633.175 141.783C633.695 141.783 634.096 141.59 634.378 141.202C634.661 140.815 634.807 140.229 634.816 139.445V139.233ZM640.042 143H638.381V132.5H640.042V143ZM645.514 143.137C644.462 143.137 643.607 142.806 642.951 142.146C642.299 141.48 641.973 140.596 641.973 139.493V139.288C641.973 138.55 642.115 137.891 642.397 137.312C642.684 136.729 643.085 136.276 643.6 135.952C644.115 135.629 644.689 135.467 645.323 135.467C646.33 135.467 647.107 135.788 647.654 136.431C648.205 137.073 648.481 137.982 648.481 139.158V139.828H643.648C643.698 140.439 643.901 140.922 644.256 141.277C644.616 141.633 645.068 141.811 645.61 141.811C646.371 141.811 646.991 141.503 647.469 140.888L648.365 141.742C648.069 142.184 647.672 142.528 647.175 142.774C646.683 143.016 646.129 143.137 645.514 143.137ZM645.316 136.8C644.86 136.8 644.491 136.959 644.209 137.278C643.931 137.597 643.753 138.042 643.675 138.611H646.84V138.488C646.804 137.932 646.656 137.513 646.396 137.23C646.136 136.943 645.776 136.8 645.316 136.8ZM649.865 139.247C649.865 138.108 650.13 137.194 650.658 136.506C651.187 135.813 651.896 135.467 652.784 135.467C653.568 135.467 654.202 135.74 654.685 136.287V132.5H656.346V143H654.842L654.76 142.234C654.263 142.836 653.6 143.137 652.771 143.137C651.905 143.137 651.203 142.788 650.665 142.091C650.132 141.394 649.865 140.446 649.865 139.247ZM651.527 139.391C651.527 140.143 651.67 140.73 651.957 141.154C652.249 141.574 652.661 141.783 653.195 141.783C653.874 141.783 654.37 141.48 654.685 140.874V137.716C654.379 137.123 653.887 136.827 653.208 136.827C652.67 136.827 652.256 137.041 651.964 137.47C651.672 137.894 651.527 138.534 651.527 139.391Z" fill="black" fill-opacity="0.87"/>
</svg>
