<svg width="875" height="308" viewBox="0 0 875 308" fill="none" xmlns="http://www.w3.org/2000/svg">
<path fill-rule="evenodd" clip-rule="evenodd" d="M0 0H875V88H0V0Z" fill="#A4D8C9"/>
<path fill-rule="evenodd" clip-rule="evenodd" d="M0 88H437V132H0V88Z" fill="#051F18"/>
<path fill-rule="evenodd" clip-rule="evenodd" d="M0 132H437V176H0V132Z" fill="#0B3F30"/>
<path fill-rule="evenodd" clip-rule="evenodd" d="M0 176H437V220H0V176Z" fill="#115E48"/>
<path fill-rule="evenodd" clip-rule="evenodd" d="M0 220H437V264H0V220Z" fill="#177E60"/>
<path fill-rule="evenodd" clip-rule="evenodd" d="M0 264H437V308H0V264Z" fill="#1D9E79"/>
<path fill-rule="evenodd" clip-rule="evenodd" d="M437 88H875V132H437V88Z" fill="#4AB193"/>
<path fill-rule="evenodd" clip-rule="evenodd" d="M437 132H875V176H437V132Z" fill="#77C4AE"/>
<path fill-rule="evenodd" clip-rule="evenodd" d="M437 176H875V220H437V176Z" fill="#A4D8C9"/>
<path fill-rule="evenodd" clip-rule="evenodd" d="M437 220H875V264H437V220Z" fill="#D1EBE4"/>
<path fill-rule="evenodd" clip-rule="evenodd" d="M437 264H875V308H437V264Z" fill="white"/>
<path d="M800.668 75L802.5 65.0469H803.621L801.789 75H800.668ZM803.334 75L805.166 65.0469H806.287L804.455 75H803.334ZM807.217 68.9502H800.107V67.8906H807.217V68.9502ZM806.704 72.1973H799.588V71.1377H806.704V72.1973ZM812.737 66.373L809.763 75H807.965L811.712 65.0469H812.86L812.737 66.373ZM815.225 75L812.245 66.373L812.115 65.0469H813.27L817.03 75H815.225ZM815.082 71.3086V72.6689H809.668V71.3086H815.082ZM825.141 71.4521V72.7646H817.963L817.908 71.7734L822.201 65.0469H823.521L822.092 67.4941L819.624 71.4521H825.141ZM823.897 65.0469V75H822.249V65.0469H823.897ZM829.793 75H827.667L827.68 73.6396H829.793C830.408 73.6396 830.923 73.5052 831.338 73.2363C831.757 72.9674 832.071 72.5824 832.281 72.0811C832.495 71.5798 832.602 70.9827 832.602 70.29V69.75C832.602 69.2122 832.541 68.736 832.418 68.3213C832.299 67.9066 832.122 67.5579 831.885 67.2754C831.652 66.9928 831.365 66.7786 831.023 66.6328C830.686 66.487 830.296 66.4141 829.854 66.4141H827.626V65.0469H829.854C830.515 65.0469 831.119 65.1585 831.666 65.3818C832.213 65.6006 832.684 65.9173 833.081 66.332C833.482 66.7467 833.79 67.2435 834.004 67.8223C834.218 68.401 834.325 69.0482 834.325 69.7637V70.29C834.325 71.0055 834.218 71.6527 834.004 72.2314C833.79 72.8102 833.482 73.307 833.081 73.7217C832.68 74.1318 832.201 74.4486 831.645 74.6719C831.094 74.8906 830.476 75 829.793 75ZM828.617 65.0469V75H826.901V65.0469H828.617ZM842.696 72.2861C842.696 72.9059 842.552 73.4277 842.265 73.8516C841.978 74.2754 841.586 74.5967 841.089 74.8154C840.597 75.0296 840.041 75.1367 839.421 75.1367C838.801 75.1367 838.243 75.0296 837.746 74.8154C837.25 74.5967 836.858 74.2754 836.571 73.8516C836.284 73.4277 836.14 72.9059 836.14 72.2861C836.14 71.876 836.22 71.5046 836.379 71.1719C836.539 70.8346 836.764 70.5452 837.056 70.3037C837.352 70.0576 837.699 69.8685 838.095 69.7363C838.496 69.6042 838.934 69.5381 839.408 69.5381C840.037 69.5381 840.599 69.6543 841.096 69.8867C841.593 70.1191 841.982 70.4404 842.265 70.8506C842.552 71.2607 842.696 71.7393 842.696 72.2861ZM841.041 72.2041C841.041 71.8714 840.973 71.5798 840.836 71.3291C840.7 71.0785 840.508 70.8848 840.262 70.748C840.016 70.6113 839.731 70.543 839.408 70.543C839.079 70.543 838.795 70.6113 838.553 70.748C838.312 70.8848 838.122 71.0785 837.986 71.3291C837.854 71.5798 837.787 71.8714 837.787 72.2041C837.787 72.5413 837.854 72.833 837.986 73.0791C838.118 73.3206 838.307 73.5052 838.553 73.6328C838.799 73.7604 839.089 73.8242 839.421 73.8242C839.754 73.8242 840.041 73.7604 840.283 73.6328C840.524 73.5052 840.711 73.3206 840.843 73.0791C840.975 72.833 841.041 72.5413 841.041 72.2041ZM842.47 67.665C842.47 68.1618 842.338 68.6038 842.074 68.9912C841.814 69.3786 841.454 69.6839 840.994 69.9072C840.533 70.126 840.009 70.2354 839.421 70.2354C838.829 70.2354 838.3 70.126 837.835 69.9072C837.375 69.6839 837.013 69.3786 836.748 68.9912C836.489 68.6038 836.359 68.1618 836.359 67.665C836.359 67.0726 836.489 66.5736 836.748 66.168C837.013 65.7578 837.375 65.4456 837.835 65.2314C838.296 65.0173 838.822 64.9102 839.414 64.9102C840.007 64.9102 840.533 65.0173 840.994 65.2314C841.454 65.4456 841.814 65.7578 842.074 66.168C842.338 66.5736 842.47 67.0726 842.47 67.665ZM840.823 67.7197C840.823 67.4235 840.763 67.1637 840.645 66.9404C840.531 66.7126 840.369 66.5348 840.16 66.4072C839.95 66.2796 839.702 66.2158 839.414 66.2158C839.127 66.2158 838.879 66.2773 838.669 66.4004C838.46 66.5234 838.298 66.6966 838.184 66.9199C838.07 67.1432 838.013 67.4098 838.013 67.7197C838.013 68.0251 838.07 68.2917 838.184 68.5195C838.298 68.7428 838.46 68.9183 838.669 69.0459C838.884 69.1735 839.134 69.2373 839.421 69.2373C839.708 69.2373 839.957 69.1735 840.166 69.0459C840.376 68.9183 840.538 68.7428 840.652 68.5195C840.766 68.2917 840.823 68.0251 840.823 67.7197ZM850.684 71.7598H852.393C852.338 72.4115 852.156 72.9925 851.846 73.5029C851.536 74.0088 851.101 74.4076 850.54 74.6992C849.979 74.9909 849.298 75.1367 848.496 75.1367C847.881 75.1367 847.327 75.0273 846.835 74.8086C846.343 74.5853 845.921 74.2708 845.57 73.8652C845.219 73.4551 844.951 72.9606 844.764 72.3818C844.581 71.8031 844.49 71.1559 844.49 70.4404V69.6133C844.49 68.8978 844.584 68.2507 844.771 67.6719C844.962 67.0931 845.235 66.5986 845.591 66.1885C845.946 65.7738 846.372 65.457 846.869 65.2383C847.37 65.0195 847.933 64.9102 848.558 64.9102C849.351 64.9102 850.021 65.056 850.567 65.3477C851.114 65.6393 851.538 66.0426 851.839 66.5576C852.144 67.0726 852.331 67.6628 852.399 68.3281H850.69C850.645 67.8997 850.545 67.5329 850.39 67.2275C850.239 66.9222 850.016 66.6898 849.72 66.5303C849.424 66.3662 849.036 66.2842 848.558 66.2842C848.166 66.2842 847.824 66.3571 847.532 66.5029C847.241 66.6488 846.997 66.863 846.801 67.1455C846.605 67.4281 846.457 67.7767 846.356 68.1914C846.261 68.6016 846.213 69.071 846.213 69.5996V70.4404C846.213 70.9417 846.256 71.3975 846.343 71.8076C846.434 72.2132 846.571 72.5618 846.753 72.8535C846.94 73.1452 847.177 73.3708 847.464 73.5303C847.751 73.6898 848.095 73.7695 848.496 73.7695C848.984 73.7695 849.378 73.6921 849.679 73.5371C849.984 73.3822 850.214 73.1566 850.369 72.8604C850.529 72.5596 850.633 72.1927 850.684 71.7598ZM855.418 73.7012H855.554C856.183 73.7012 856.707 73.6191 857.127 73.4551C857.55 73.2865 857.888 73.054 858.138 72.7578C858.389 72.4616 858.569 72.113 858.678 71.7119C858.788 71.3109 858.842 70.8757 858.842 70.4062V68.6904C858.842 68.2848 858.799 67.9294 858.713 67.624C858.63 67.3141 858.512 67.0566 858.357 66.8516C858.207 66.6419 858.031 66.4847 857.831 66.3799C857.635 66.2751 857.423 66.2227 857.195 66.2227C856.944 66.2227 856.719 66.2796 856.518 66.3936C856.322 66.5029 856.156 66.6556 856.019 66.8516C855.887 67.043 855.784 67.2686 855.712 67.5283C855.643 67.7835 855.609 68.057 855.609 68.3486C855.609 68.6221 855.641 68.8864 855.705 69.1416C855.773 69.3923 855.873 69.6156 856.005 69.8115C856.138 70.0075 856.304 70.1624 856.504 70.2764C856.705 70.3903 856.94 70.4473 857.209 70.4473C857.464 70.4473 857.699 70.3994 857.913 70.3037C858.127 70.2035 858.314 70.069 858.473 69.9004C858.633 69.7318 858.758 69.5426 858.849 69.333C858.94 69.1234 858.99 68.9092 859 68.6904L859.629 68.8818C859.629 69.2282 859.556 69.57 859.41 69.9072C859.268 70.2399 859.07 70.5452 858.815 70.8232C858.564 71.0967 858.27 71.3154 857.933 71.4795C857.601 71.6436 857.238 71.7256 856.846 71.7256C856.372 71.7256 855.953 71.6367 855.588 71.459C855.228 71.2767 854.928 71.0306 854.686 70.7207C854.449 70.4108 854.271 70.0553 854.153 69.6543C854.034 69.2533 853.975 68.8317 853.975 68.3896C853.975 67.9111 854.048 67.4622 854.194 67.043C854.34 66.6237 854.552 66.2546 854.83 65.9355C855.108 65.612 855.445 65.3613 855.841 65.1836C856.242 65.0013 856.696 64.9102 857.202 64.9102C857.74 64.9102 858.211 65.015 858.617 65.2246C859.022 65.4342 859.364 65.7236 859.642 66.0928C859.92 66.4619 860.13 66.8903 860.271 67.3779C860.412 67.8656 860.483 68.3896 860.483 68.9502V69.5312C860.483 70.1191 860.431 70.6865 860.326 71.2334C860.221 71.7757 860.05 72.2793 859.813 72.7441C859.581 73.2044 859.273 73.61 858.89 73.9609C858.512 74.3073 858.047 74.5785 857.496 74.7744C856.949 74.9658 856.306 75.0615 855.568 75.0615H855.418V73.7012Z" fill="black" fill-opacity="0.87"/>
<path d="M18.7412 71.3018V75H17.0117V65.0469H20.8193C21.9313 65.0469 22.8132 65.3363 23.4648 65.915C24.1211 66.4938 24.4492 67.2594 24.4492 68.2119C24.4492 69.1872 24.1279 69.946 23.4854 70.4883C22.8473 71.0306 21.9518 71.3018 20.7988 71.3018H18.7412ZM18.7412 69.9141H20.8193C21.4346 69.9141 21.904 69.7705 22.2275 69.4834C22.5511 69.1917 22.7129 68.7725 22.7129 68.2256C22.7129 67.6878 22.5488 67.2594 22.2207 66.9404C21.8926 66.6169 21.4414 66.4505 20.8672 66.4414H18.7412V69.9141ZM30.0787 69.1211C29.86 69.0846 29.6344 69.0664 29.402 69.0664C28.6409 69.0664 28.1282 69.3581 27.8639 69.9414V75H26.2027V67.6035H27.7887L27.8297 68.4307C28.2307 67.7881 28.7867 67.4668 29.4977 67.4668C29.7346 67.4668 29.9306 67.4987 30.0855 67.5625L30.0787 69.1211ZM33.2951 75H31.634V67.6035H33.2951V75ZM31.5314 65.6826C31.5314 65.4274 31.6112 65.2155 31.7707 65.0469C31.9348 64.8783 32.1672 64.7939 32.468 64.7939C32.7688 64.7939 33.0012 64.8783 33.1652 65.0469C33.3293 65.2155 33.4113 65.4274 33.4113 65.6826C33.4113 65.9333 33.3293 66.1429 33.1652 66.3115C33.0012 66.4756 32.7688 66.5576 32.468 66.5576C32.1672 66.5576 31.9348 66.4756 31.7707 66.3115C31.6112 66.1429 31.5314 65.9333 31.5314 65.6826ZM37.0721 67.6035L37.1199 68.376C37.6395 67.7699 38.3504 67.4668 39.2527 67.4668C40.2417 67.4668 40.9184 67.8451 41.283 68.6016C41.8208 67.8451 42.5773 67.4668 43.5525 67.4668C44.3683 67.4668 44.9744 67.6924 45.3709 68.1436C45.7719 68.5947 45.977 69.2601 45.9861 70.1396V75H44.325V70.1875C44.325 69.7181 44.2225 69.374 44.0174 69.1553C43.8123 68.9365 43.4728 68.8271 42.9988 68.8271C42.6206 68.8271 42.3107 68.9297 42.0691 69.1348C41.8322 69.3353 41.6658 69.5996 41.5701 69.9277L41.577 75H39.9158V70.1328C39.893 69.2624 39.4487 68.8271 38.5828 68.8271C37.9174 68.8271 37.4458 69.0983 37.1678 69.6406V75H35.5066V67.6035H37.0721ZM52.5111 75C52.4382 74.8587 52.3744 74.6286 52.3197 74.3096C51.7911 74.861 51.1439 75.1367 50.3783 75.1367C49.6355 75.1367 49.0294 74.9248 48.56 74.501C48.0906 74.0771 47.8559 73.5531 47.8559 72.9287C47.8559 72.1403 48.1475 71.5365 48.7309 71.1172C49.3188 70.6934 50.1573 70.4814 51.2465 70.4814H52.265V69.9961C52.265 69.6133 52.1579 69.3079 51.9438 69.0801C51.7296 68.8477 51.4037 68.7314 50.9662 68.7314C50.588 68.7314 50.2781 68.8271 50.0365 69.0186C49.795 69.2054 49.6742 69.4447 49.6742 69.7363H48.0131C48.0131 69.3307 48.1475 68.9525 48.4164 68.6016C48.6853 68.2461 49.0499 67.9681 49.5102 67.7676C49.975 67.5671 50.4923 67.4668 51.0619 67.4668C51.9278 67.4668 52.6182 67.6855 53.1332 68.123C53.6482 68.556 53.9125 69.1667 53.9262 69.9551V73.291C53.9262 73.9564 54.0196 74.4873 54.2064 74.8838V75H52.5111ZM50.6859 73.8037C51.0141 73.8037 51.3217 73.724 51.6088 73.5645C51.9005 73.4049 52.1192 73.1908 52.265 72.9219V71.5273H51.3695C50.7543 71.5273 50.2917 71.6344 49.9818 71.8486C49.6719 72.0628 49.517 72.3659 49.517 72.7578C49.517 73.0768 49.6218 73.332 49.8314 73.5234C50.0456 73.7103 50.3305 73.8037 50.6859 73.8037ZM59.9385 69.1211C59.7197 69.0846 59.4941 69.0664 59.2617 69.0664C58.5007 69.0664 57.988 69.3581 57.7236 69.9414V75H56.0625V67.6035H57.6484L57.6895 68.4307C58.0905 67.7881 58.6465 67.4668 59.3574 67.4668C59.5944 67.4668 59.7904 67.4987 59.9453 67.5625L59.9385 69.1211ZM64.0982 72.6211L65.6021 67.6035H67.3727L64.4332 76.1211C63.982 77.3652 63.2164 77.9873 62.1363 77.9873C61.8948 77.9873 61.6282 77.9463 61.3365 77.8643V76.5791L61.651 76.5996C62.0702 76.5996 62.3847 76.5221 62.5943 76.3672C62.8085 76.2168 62.9771 75.9616 63.1002 75.6016L63.3395 74.9658L60.7418 67.6035H62.5328L64.0982 72.6211ZM74.3865 75H72.7254V64.5H74.3865V75ZM87.0742 75H80.3818V73.8584L83.6973 70.2422C84.1758 69.709 84.5153 69.2646 84.7158 68.9092C84.9209 68.5492 85.0234 68.1891 85.0234 67.8291C85.0234 67.3551 84.889 66.9723 84.6201 66.6807C84.3558 66.389 83.998 66.2432 83.5469 66.2432C83.0091 66.2432 82.5921 66.4072 82.2959 66.7354C81.9997 67.0635 81.8516 67.5124 81.8516 68.082H80.1904C80.1904 67.4759 80.3271 66.9313 80.6006 66.4482C80.8786 65.9606 81.2728 65.5824 81.7832 65.3135C82.2982 65.0446 82.8906 64.9102 83.5605 64.9102C84.5267 64.9102 85.2878 65.154 85.8438 65.6416C86.4043 66.1247 86.6846 66.7946 86.6846 67.6514C86.6846 68.1481 86.5433 68.6699 86.2607 69.2168C85.9827 69.7591 85.5247 70.3766 84.8867 71.0693L82.4531 73.6738H87.0742V75ZM95.2262 70.8096C95.2262 72.2406 94.9573 73.3206 94.4195 74.0498C93.8863 74.7744 93.0729 75.1367 91.9791 75.1367C90.9036 75.1367 90.0924 74.7835 89.5455 74.0771C89.0032 73.3662 88.7252 72.3158 88.7115 70.9258V69.2031C88.7115 67.7721 88.9781 66.6989 89.5113 65.9834C90.0491 65.2679 90.8671 64.9102 91.9654 64.9102C93.0546 64.9102 93.8658 65.2588 94.399 65.9561C94.9368 66.6533 95.2125 67.6969 95.2262 69.0869V70.8096ZM93.565 68.9502C93.565 68.016 93.4374 67.3324 93.1822 66.8994C92.927 66.4619 92.5214 66.2432 91.9654 66.2432C91.4231 66.2432 91.0244 66.4505 90.7691 66.8652C90.5139 67.2754 90.3795 67.918 90.3658 68.793V71.0488C90.3658 71.9785 90.4957 72.6712 90.7555 73.127C91.0152 73.5827 91.4231 73.8105 91.9791 73.8105C92.5123 73.8105 92.9065 73.6009 93.1617 73.1816C93.4169 72.7578 93.5514 72.097 93.565 71.1992V68.9502ZM103.583 70.8096C103.583 72.2406 103.314 73.3206 102.777 74.0498C102.243 74.7744 101.43 75.1367 100.336 75.1367C99.2606 75.1367 98.4494 74.7835 97.9025 74.0771C97.3602 73.3662 97.0822 72.3158 97.0686 70.9258V69.2031C97.0686 67.7721 97.3352 66.6989 97.8684 65.9834C98.4061 65.2679 99.2242 64.9102 100.322 64.9102C101.412 64.9102 102.223 65.2588 102.756 65.9561C103.294 66.6533 103.57 67.6969 103.583 69.0869V70.8096ZM101.922 68.9502C101.922 68.016 101.794 67.3324 101.539 66.8994C101.284 66.4619 100.878 66.2432 100.322 66.2432C99.7801 66.2432 99.3814 66.4505 99.1262 66.8652C98.871 67.2754 98.7365 67.918 98.7229 68.793V71.0488C98.7229 71.9785 98.8527 72.6712 99.1125 73.127C99.3723 73.5827 99.7801 73.8105 100.336 73.8105C100.869 73.8105 101.264 73.6009 101.519 73.1816C101.774 72.7578 101.908 72.097 101.922 71.1992V68.9502Z" fill="black" fill-opacity="0.87"/>
<path d="M362.668 115L364.5 105.047H365.621L363.789 115H362.668ZM365.334 115L367.166 105.047H368.287L366.455 115H365.334ZM369.217 108.95H362.107V107.891H369.217V108.95ZM368.704 112.197H361.588V111.138H368.704V112.197ZM377.088 109.189V110.816C377.088 111.596 377.011 112.261 376.856 112.812C376.706 113.359 376.487 113.804 376.2 114.146C375.913 114.487 375.569 114.738 375.168 114.897C374.771 115.057 374.327 115.137 373.835 115.137C373.443 115.137 373.078 115.087 372.741 114.986C372.408 114.886 372.107 114.729 371.838 114.515C371.57 114.3 371.339 114.025 371.148 113.688C370.961 113.346 370.815 112.938 370.711 112.464C370.61 111.99 370.56 111.441 370.56 110.816V109.189C370.56 108.406 370.638 107.745 370.793 107.207C370.948 106.665 371.169 106.225 371.456 105.888C371.743 105.546 372.085 105.298 372.481 105.143C372.882 104.988 373.329 104.91 373.821 104.91C374.217 104.91 374.582 104.96 374.915 105.061C375.252 105.156 375.553 105.309 375.817 105.519C376.086 105.728 376.314 106.002 376.501 106.339C376.692 106.672 376.838 107.075 376.938 107.549C377.038 108.018 377.088 108.565 377.088 109.189ZM375.441 111.049V108.943C375.441 108.547 375.418 108.198 375.373 107.897C375.327 107.592 375.259 107.335 375.168 107.125C375.081 106.911 374.972 106.738 374.839 106.605C374.707 106.469 374.557 106.371 374.388 106.312C374.22 106.248 374.031 106.216 373.821 106.216C373.566 106.216 373.338 106.266 373.137 106.366C372.937 106.462 372.768 106.617 372.631 106.831C372.495 107.045 372.39 107.328 372.317 107.679C372.249 108.025 372.214 108.447 372.214 108.943V111.049C372.214 111.45 372.237 111.803 372.283 112.108C372.328 112.414 372.397 112.676 372.488 112.895C372.579 113.109 372.688 113.286 372.816 113.428C372.948 113.564 373.099 113.665 373.267 113.729C373.44 113.792 373.629 113.824 373.835 113.824C374.094 113.824 374.324 113.774 374.525 113.674C374.726 113.574 374.894 113.414 375.031 113.195C375.168 112.972 375.27 112.683 375.338 112.327C375.407 111.972 375.441 111.546 375.441 111.049ZM380.688 110.372L379.375 110.051L379.915 105.047H385.281V106.441H381.282L381.009 108.882C381.164 108.791 381.378 108.702 381.652 108.615C381.925 108.524 382.237 108.479 382.588 108.479C383.057 108.479 383.477 108.556 383.846 108.711C384.22 108.861 384.536 109.082 384.796 109.374C385.056 109.661 385.254 110.012 385.391 110.427C385.528 110.837 385.596 111.299 385.596 111.814C385.596 112.275 385.528 112.705 385.391 113.106C385.259 113.507 385.058 113.861 384.789 114.166C384.52 114.471 384.181 114.711 383.771 114.884C383.365 115.052 382.884 115.137 382.328 115.137C381.914 115.137 381.515 115.077 381.132 114.959C380.754 114.836 380.414 114.656 380.113 114.419C379.813 114.177 379.571 113.881 379.389 113.53C379.207 113.175 379.102 112.767 379.074 112.307H380.688C380.729 112.63 380.818 112.906 380.954 113.134C381.096 113.357 381.282 113.528 381.515 113.646C381.747 113.765 382.016 113.824 382.321 113.824C382.599 113.824 382.839 113.776 383.039 113.681C383.24 113.58 383.406 113.439 383.538 113.257C383.675 113.07 383.775 112.851 383.839 112.601C383.907 112.35 383.942 112.072 383.942 111.767C383.942 111.475 383.903 111.208 383.825 110.967C383.752 110.725 383.641 110.516 383.49 110.338C383.345 110.16 383.16 110.023 382.937 109.928C382.713 109.827 382.456 109.777 382.164 109.777C381.772 109.777 381.472 109.834 381.262 109.948C381.057 110.062 380.865 110.203 380.688 110.372ZM391.813 105.013V115H390.166V106.968L387.725 107.795V106.435L391.615 105.013H391.813ZM397.648 105.047V115H395.932V105.047H397.648ZM401.708 109.401V110.762H397.21V109.401H401.708ZM402.276 105.047V106.414H397.21V105.047H402.276ZM408.281 105.013V115H406.634V106.968L404.193 107.795V106.435L408.083 105.013H408.281ZM418.648 112.286C418.648 112.906 418.504 113.428 418.217 113.852C417.93 114.275 417.538 114.597 417.042 114.815C416.549 115.03 415.993 115.137 415.374 115.137C414.754 115.137 414.196 115.03 413.699 114.815C413.202 114.597 412.81 114.275 412.523 113.852C412.236 113.428 412.092 112.906 412.092 112.286C412.092 111.876 412.172 111.505 412.332 111.172C412.491 110.835 412.717 110.545 413.008 110.304C413.305 110.058 413.651 109.868 414.047 109.736C414.449 109.604 414.886 109.538 415.36 109.538C415.989 109.538 416.552 109.654 417.048 109.887C417.545 110.119 417.935 110.44 418.217 110.851C418.504 111.261 418.648 111.739 418.648 112.286ZM416.994 112.204C416.994 111.871 416.925 111.58 416.789 111.329C416.652 111.078 416.461 110.885 416.214 110.748C415.968 110.611 415.684 110.543 415.36 110.543C415.032 110.543 414.747 110.611 414.505 110.748C414.264 110.885 414.075 111.078 413.938 111.329C413.806 111.58 413.74 111.871 413.74 112.204C413.74 112.541 413.806 112.833 413.938 113.079C414.07 113.321 414.259 113.505 414.505 113.633C414.752 113.76 415.041 113.824 415.374 113.824C415.706 113.824 415.993 113.76 416.235 113.633C416.476 113.505 416.663 113.321 416.796 113.079C416.928 112.833 416.994 112.541 416.994 112.204ZM418.422 107.665C418.422 108.162 418.29 108.604 418.026 108.991C417.766 109.379 417.406 109.684 416.946 109.907C416.486 110.126 415.962 110.235 415.374 110.235C414.781 110.235 414.253 110.126 413.788 109.907C413.327 109.684 412.965 109.379 412.701 108.991C412.441 108.604 412.311 108.162 412.311 107.665C412.311 107.073 412.441 106.574 412.701 106.168C412.965 105.758 413.327 105.446 413.788 105.231C414.248 105.017 414.774 104.91 415.367 104.91C415.959 104.91 416.486 105.017 416.946 105.231C417.406 105.446 417.766 105.758 418.026 106.168C418.29 106.574 418.422 107.073 418.422 107.665ZM416.775 107.72C416.775 107.424 416.716 107.164 416.597 106.94C416.483 106.713 416.322 106.535 416.112 106.407C415.902 106.28 415.654 106.216 415.367 106.216C415.08 106.216 414.831 106.277 414.622 106.4C414.412 106.523 414.25 106.697 414.136 106.92C414.022 107.143 413.965 107.41 413.965 107.72C413.965 108.025 414.022 108.292 414.136 108.52C414.25 108.743 414.412 108.918 414.622 109.046C414.836 109.174 415.087 109.237 415.374 109.237C415.661 109.237 415.909 109.174 416.119 109.046C416.328 108.918 416.49 108.743 416.604 108.52C416.718 108.292 416.775 108.025 416.775 107.72Z" fill="white" fill-opacity="0.87"/>
<path d="M362.668 159L364.5 149.047H365.621L363.789 159H362.668ZM365.334 159L367.166 149.047H368.287L366.455 159H365.334ZM369.217 152.95H362.107V151.891H369.217V152.95ZM368.704 156.197H361.588V155.138H368.704V156.197ZM377.088 153.189V154.816C377.088 155.596 377.011 156.261 376.856 156.812C376.706 157.359 376.487 157.804 376.2 158.146C375.913 158.487 375.569 158.738 375.168 158.897C374.771 159.057 374.327 159.137 373.835 159.137C373.443 159.137 373.078 159.087 372.741 158.986C372.408 158.886 372.107 158.729 371.838 158.515C371.57 158.3 371.339 158.025 371.148 157.688C370.961 157.346 370.815 156.938 370.711 156.464C370.61 155.99 370.56 155.441 370.56 154.816V153.189C370.56 152.406 370.638 151.745 370.793 151.207C370.948 150.665 371.169 150.225 371.456 149.888C371.743 149.546 372.085 149.298 372.481 149.143C372.882 148.988 373.329 148.91 373.821 148.91C374.217 148.91 374.582 148.96 374.915 149.061C375.252 149.156 375.553 149.309 375.817 149.519C376.086 149.728 376.314 150.002 376.501 150.339C376.692 150.672 376.838 151.075 376.938 151.549C377.038 152.018 377.088 152.565 377.088 153.189ZM375.441 155.049V152.943C375.441 152.547 375.418 152.198 375.373 151.897C375.327 151.592 375.259 151.335 375.168 151.125C375.081 150.911 374.972 150.738 374.839 150.605C374.707 150.469 374.557 150.371 374.388 150.312C374.22 150.248 374.031 150.216 373.821 150.216C373.566 150.216 373.338 150.266 373.137 150.366C372.937 150.462 372.768 150.617 372.631 150.831C372.495 151.045 372.39 151.328 372.317 151.679C372.249 152.025 372.214 152.447 372.214 152.943V155.049C372.214 155.45 372.237 155.803 372.283 156.108C372.328 156.414 372.397 156.676 372.488 156.895C372.579 157.109 372.688 157.286 372.816 157.428C372.948 157.564 373.099 157.665 373.267 157.729C373.44 157.792 373.629 157.824 373.835 157.824C374.094 157.824 374.324 157.774 374.525 157.674C374.726 157.574 374.894 157.414 375.031 157.195C375.168 156.972 375.27 156.683 375.338 156.327C375.407 155.972 375.441 155.546 375.441 155.049ZM382.95 154.502H380.414L380.401 153.251H382.615C382.989 153.251 383.306 153.196 383.566 153.087C383.83 152.973 384.03 152.811 384.167 152.602C384.304 152.387 384.372 152.13 384.372 151.829C384.372 151.496 384.308 151.225 384.181 151.016C384.053 150.806 383.857 150.653 383.593 150.558C383.333 150.462 383.001 150.414 382.595 150.414H380.934V159H379.218V149.047H382.595C383.142 149.047 383.629 149.099 384.058 149.204C384.491 149.309 384.858 149.473 385.158 149.696C385.464 149.915 385.694 150.193 385.849 150.53C386.008 150.868 386.088 151.269 386.088 151.733C386.088 152.144 385.99 152.52 385.794 152.861C385.598 153.199 385.309 153.474 384.926 153.688C384.543 153.903 384.067 154.03 383.497 154.071L382.95 154.502ZM382.875 159H379.874L380.647 157.64H382.875C383.263 157.64 383.586 157.576 383.846 157.448C384.106 157.316 384.299 157.136 384.427 156.908C384.559 156.676 384.625 156.405 384.625 156.095C384.625 155.771 384.568 155.491 384.454 155.254C384.34 155.012 384.16 154.828 383.914 154.7C383.668 154.568 383.347 154.502 382.95 154.502H381.023L381.036 153.251H383.545L383.935 153.723C384.482 153.741 384.931 153.862 385.281 154.085C385.637 154.308 385.901 154.598 386.074 154.953C386.248 155.309 386.334 155.691 386.334 156.102C386.334 156.735 386.195 157.266 385.917 157.694C385.644 158.123 385.25 158.449 384.735 158.672C384.22 158.891 383.6 159 382.875 159ZM390.138 153.278H391.123C391.506 153.278 391.822 153.212 392.073 153.08C392.328 152.948 392.517 152.766 392.64 152.533C392.763 152.301 392.825 152.034 392.825 151.733C392.825 151.419 392.768 151.15 392.654 150.927C392.545 150.699 392.376 150.523 392.148 150.4C391.925 150.277 391.64 150.216 391.294 150.216C391.002 150.216 390.738 150.275 390.501 150.394C390.268 150.507 390.084 150.672 389.947 150.886C389.81 151.095 389.742 151.346 389.742 151.638H388.088C388.088 151.109 388.227 150.64 388.505 150.229C388.783 149.819 389.161 149.498 389.639 149.266C390.123 149.029 390.665 148.91 391.266 148.91C391.909 148.91 392.47 149.017 392.948 149.231C393.431 149.441 393.807 149.756 394.076 150.175C394.345 150.594 394.479 151.114 394.479 151.733C394.479 152.016 394.413 152.303 394.281 152.595C394.149 152.886 393.953 153.153 393.693 153.395C393.433 153.632 393.11 153.825 392.722 153.976C392.335 154.121 391.886 154.194 391.376 154.194H390.138V153.278ZM390.138 154.563V153.661H391.376C391.959 153.661 392.456 153.729 392.866 153.866C393.281 154.003 393.618 154.192 393.878 154.434C394.138 154.671 394.327 154.942 394.445 155.247C394.568 155.552 394.63 155.876 394.63 156.218C394.63 156.683 394.545 157.097 394.377 157.462C394.213 157.822 393.978 158.127 393.673 158.378C393.367 158.629 393.01 158.818 392.599 158.945C392.194 159.073 391.752 159.137 391.273 159.137C390.845 159.137 390.435 159.077 390.043 158.959C389.651 158.84 389.3 158.665 388.99 158.433C388.68 158.196 388.434 157.902 388.252 157.551C388.074 157.195 387.985 156.785 387.985 156.32H389.633C389.633 156.617 389.701 156.879 389.838 157.106C389.979 157.33 390.175 157.505 390.426 157.633C390.681 157.76 390.972 157.824 391.301 157.824C391.647 157.824 391.945 157.763 392.196 157.64C392.447 157.517 392.638 157.334 392.77 157.093C392.907 156.851 392.975 156.56 392.975 156.218C392.975 155.83 392.9 155.516 392.75 155.274C392.599 155.033 392.385 154.855 392.107 154.741C391.829 154.623 391.501 154.563 391.123 154.563H390.138ZM398.537 149.047V159H396.821V149.047H398.537ZM402.597 153.401V154.762H398.099V153.401H402.597ZM403.164 149.047V150.414H398.099V149.047H403.164ZM406.606 153.278H407.591C407.974 153.278 408.29 153.212 408.541 153.08C408.796 152.948 408.985 152.766 409.108 152.533C409.231 152.301 409.293 152.034 409.293 151.733C409.293 151.419 409.236 151.15 409.122 150.927C409.013 150.699 408.844 150.523 408.616 150.4C408.393 150.277 408.108 150.216 407.762 150.216C407.47 150.216 407.206 150.275 406.969 150.394C406.736 150.507 406.552 150.672 406.415 150.886C406.278 151.095 406.21 151.346 406.21 151.638H404.556C404.556 151.109 404.695 150.64 404.973 150.229C405.251 149.819 405.629 149.498 406.107 149.266C406.59 149.029 407.133 148.91 407.734 148.91C408.377 148.91 408.938 149.017 409.416 149.231C409.899 149.441 410.275 149.756 410.544 150.175C410.813 150.594 410.947 151.114 410.947 151.733C410.947 152.016 410.881 152.303 410.749 152.595C410.617 152.886 410.421 153.153 410.161 153.395C409.901 153.632 409.578 153.825 409.19 153.976C408.803 154.121 408.354 154.194 407.844 154.194H406.606V153.278ZM406.606 154.563V153.661H407.844C408.427 153.661 408.924 153.729 409.334 153.866C409.749 154.003 410.086 154.192 410.346 154.434C410.605 154.671 410.795 154.942 410.913 155.247C411.036 155.552 411.098 155.876 411.098 156.218C411.098 156.683 411.013 157.097 410.845 157.462C410.681 157.822 410.446 158.127 410.141 158.378C409.835 158.629 409.478 158.818 409.067 158.945C408.662 159.073 408.22 159.137 407.741 159.137C407.313 159.137 406.903 159.077 406.511 158.959C406.119 158.84 405.768 158.665 405.458 158.433C405.148 158.196 404.902 157.902 404.72 157.551C404.542 157.195 404.453 156.785 404.453 156.32H406.101C406.101 156.617 406.169 156.879 406.306 157.106C406.447 157.33 406.643 157.505 406.894 157.633C407.149 157.76 407.44 157.824 407.769 157.824C408.115 157.824 408.413 157.763 408.664 157.64C408.915 157.517 409.106 157.334 409.238 157.093C409.375 156.851 409.443 156.56 409.443 156.218C409.443 155.83 409.368 155.516 409.218 155.274C409.067 155.033 408.853 154.855 408.575 154.741C408.297 154.623 407.969 154.563 407.591 154.563H406.606ZM419.516 153.189V154.816C419.516 155.596 419.439 156.261 419.284 156.812C419.133 157.359 418.915 157.804 418.628 158.146C418.34 158.487 417.996 158.738 417.595 158.897C417.199 159.057 416.754 159.137 416.262 159.137C415.87 159.137 415.506 159.087 415.169 158.986C414.836 158.886 414.535 158.729 414.266 158.515C413.997 158.3 413.767 158.025 413.576 157.688C413.389 157.346 413.243 156.938 413.138 156.464C413.038 155.99 412.988 155.441 412.988 154.816V153.189C412.988 152.406 413.065 151.745 413.22 151.207C413.375 150.665 413.596 150.225 413.883 149.888C414.171 149.546 414.512 149.298 414.909 149.143C415.31 148.988 415.756 148.91 416.249 148.91C416.645 148.91 417.01 148.96 417.342 149.061C417.68 149.156 417.98 149.309 418.245 149.519C418.514 149.728 418.741 150.002 418.928 150.339C419.12 150.672 419.266 151.075 419.366 151.549C419.466 152.018 419.516 152.565 419.516 153.189ZM417.869 155.049V152.943C417.869 152.547 417.846 152.198 417.8 151.897C417.755 151.592 417.686 151.335 417.595 151.125C417.509 150.911 417.399 150.738 417.267 150.605C417.135 150.469 416.985 150.371 416.816 150.312C416.647 150.248 416.458 150.216 416.249 150.216C415.993 150.216 415.766 150.266 415.565 150.366C415.365 150.462 415.196 150.617 415.059 150.831C414.922 151.045 414.818 151.328 414.745 151.679C414.676 152.025 414.642 152.447 414.642 152.943V155.049C414.642 155.45 414.665 155.803 414.711 156.108C414.756 156.414 414.824 156.676 414.916 156.895C415.007 157.109 415.116 157.286 415.244 157.428C415.376 157.564 415.526 157.665 415.695 157.729C415.868 157.792 416.057 157.824 416.262 157.824C416.522 157.824 416.752 157.774 416.953 157.674C417.153 157.574 417.322 157.414 417.459 157.195C417.595 156.972 417.698 156.683 417.766 156.327C417.835 155.972 417.869 155.546 417.869 155.049Z" fill="white" fill-opacity="0.87"/>
<path d="M362.668 203L364.5 193.047H365.621L363.789 203H362.668ZM365.334 203L367.166 193.047H368.287L366.455 203H365.334ZM369.217 196.95H362.107V195.891H369.217V196.95ZM368.704 200.197H361.588V199.138H368.704V200.197ZM375.099 193.013V203H373.452V194.968L371.011 195.795V194.435L374.901 193.013H375.099ZM383.456 193.013V203H381.809V194.968L379.368 195.795V194.435L383.258 193.013H383.456ZM389.045 198.372L387.732 198.051L388.272 193.047H393.638V194.441H389.639L389.366 196.882C389.521 196.791 389.735 196.702 390.009 196.615C390.282 196.524 390.594 196.479 390.945 196.479C391.415 196.479 391.834 196.556 392.203 196.711C392.577 196.861 392.893 197.082 393.153 197.374C393.413 197.661 393.611 198.012 393.748 198.427C393.885 198.837 393.953 199.299 393.953 199.814C393.953 200.275 393.885 200.705 393.748 201.106C393.616 201.507 393.415 201.861 393.146 202.166C392.877 202.471 392.538 202.711 392.128 202.884C391.722 203.052 391.241 203.137 390.685 203.137C390.271 203.137 389.872 203.077 389.489 202.959C389.111 202.836 388.771 202.656 388.471 202.419C388.17 202.177 387.928 201.881 387.746 201.53C387.564 201.175 387.459 200.767 387.431 200.307H389.045C389.086 200.63 389.175 200.906 389.311 201.134C389.453 201.357 389.639 201.528 389.872 201.646C390.104 201.765 390.373 201.824 390.679 201.824C390.957 201.824 391.196 201.776 391.396 201.681C391.597 201.58 391.763 201.439 391.895 201.257C392.032 201.07 392.132 200.851 392.196 200.601C392.264 200.35 392.299 200.072 392.299 199.767C392.299 199.475 392.26 199.208 392.182 198.967C392.11 198.725 391.998 198.516 391.847 198.338C391.702 198.16 391.517 198.023 391.294 197.928C391.07 197.827 390.813 197.777 390.521 197.777C390.129 197.777 389.829 197.834 389.619 197.948C389.414 198.062 389.222 198.203 389.045 198.372ZM402.447 201.64V203H397.162V201.64H402.447ZM397.648 193.047V203H395.932V193.047H397.648ZM401.756 197.203V198.543H397.162V197.203H401.756ZM402.412 193.047V194.414H397.162V193.047H402.412ZM410.845 199.452V200.765H403.667L403.612 199.773L407.905 193.047H409.225L407.796 195.494L405.328 199.452H410.845ZM409.601 193.047V203H407.953V193.047H409.601ZM418.853 200.286C418.853 200.906 418.71 201.428 418.422 201.852C418.135 202.275 417.743 202.597 417.247 202.815C416.754 203.03 416.199 203.137 415.579 203.137C414.959 203.137 414.401 203.03 413.904 202.815C413.407 202.597 413.015 202.275 412.728 201.852C412.441 201.428 412.297 200.906 412.297 200.286C412.297 199.876 412.377 199.505 412.537 199.172C412.696 198.835 412.922 198.545 413.213 198.304C413.51 198.058 413.856 197.868 414.253 197.736C414.654 197.604 415.091 197.538 415.565 197.538C416.194 197.538 416.757 197.654 417.254 197.887C417.75 198.119 418.14 198.44 418.422 198.851C418.71 199.261 418.853 199.739 418.853 200.286ZM417.199 200.204C417.199 199.871 417.13 199.58 416.994 199.329C416.857 199.078 416.666 198.885 416.42 198.748C416.173 198.611 415.889 198.543 415.565 198.543C415.237 198.543 414.952 198.611 414.711 198.748C414.469 198.885 414.28 199.078 414.143 199.329C414.011 199.58 413.945 199.871 413.945 200.204C413.945 200.541 414.011 200.833 414.143 201.079C414.275 201.321 414.464 201.505 414.711 201.633C414.957 201.76 415.246 201.824 415.579 201.824C415.911 201.824 416.199 201.76 416.44 201.633C416.682 201.505 416.868 201.321 417.001 201.079C417.133 200.833 417.199 200.541 417.199 200.204ZM418.628 195.665C418.628 196.162 418.495 196.604 418.231 196.991C417.971 197.379 417.611 197.684 417.151 197.907C416.691 198.126 416.167 198.235 415.579 198.235C414.986 198.235 414.458 198.126 413.993 197.907C413.532 197.684 413.17 197.379 412.906 196.991C412.646 196.604 412.516 196.162 412.516 195.665C412.516 195.073 412.646 194.574 412.906 194.168C413.17 193.758 413.532 193.446 413.993 193.231C414.453 193.017 414.979 192.91 415.572 192.91C416.164 192.91 416.691 193.017 417.151 193.231C417.611 193.446 417.971 193.758 418.231 194.168C418.495 194.574 418.628 195.073 418.628 195.665ZM416.98 195.72C416.98 195.424 416.921 195.164 416.802 194.94C416.688 194.713 416.527 194.535 416.317 194.407C416.107 194.28 415.859 194.216 415.572 194.216C415.285 194.216 415.036 194.277 414.827 194.4C414.617 194.523 414.455 194.697 414.341 194.92C414.227 195.143 414.171 195.41 414.171 195.72C414.171 196.025 414.227 196.292 414.341 196.52C414.455 196.743 414.617 196.918 414.827 197.046C415.041 197.174 415.292 197.237 415.579 197.237C415.866 197.237 416.114 197.174 416.324 197.046C416.533 196.918 416.695 196.743 416.809 196.52C416.923 196.292 416.98 196.025 416.98 195.72Z" fill="white" fill-opacity="0.87"/>
<path d="M362.668 247L364.5 237.047H365.621L363.789 247H362.668ZM365.334 247L367.166 237.047H368.287L366.455 247H365.334ZM369.217 240.95H362.107V239.891H369.217V240.95ZM368.704 244.197H361.588V243.138H368.704V244.197ZM375.099 237.013V247H373.452V238.968L371.011 239.795V238.435L374.901 237.013H375.099ZM385.569 237.047V237.949L381.59 247H379.854L383.825 238.359H378.671V237.047H385.569ZM393.926 237.047V237.949L389.947 247H388.211L392.182 238.359H387.028V237.047H393.926ZM402.447 245.64V247H397.162V245.64H402.447ZM397.648 237.047V247H395.932V237.047H397.648ZM401.756 241.203V242.543H397.162V241.203H401.756ZM402.412 237.047V238.414H397.162V237.047H402.412ZM408.965 236.985H409.17V238.332H409.054C408.466 238.332 407.958 238.423 407.529 238.605C407.105 238.788 406.757 239.038 406.483 239.357C406.21 239.676 406.005 240.05 405.868 240.479C405.736 240.902 405.67 241.354 405.67 241.832V243.397C405.67 243.794 405.713 244.145 405.8 244.45C405.886 244.751 406.007 245.004 406.162 245.209C406.322 245.41 406.504 245.562 406.709 245.667C406.914 245.772 407.135 245.824 407.372 245.824C407.618 245.824 407.841 245.774 408.042 245.674C408.243 245.569 408.413 245.425 408.555 245.243C408.696 245.061 408.803 244.844 408.876 244.594C408.949 244.343 408.985 244.07 408.985 243.773C408.985 243.491 408.949 243.227 408.876 242.98C408.808 242.73 408.705 242.511 408.568 242.324C408.432 242.133 408.261 241.985 408.056 241.88C407.855 241.771 407.623 241.716 407.358 241.716C407.03 241.716 406.732 241.793 406.463 241.948C406.199 242.103 405.984 242.306 405.82 242.557C405.661 242.803 405.574 243.065 405.561 243.343L404.932 243.138C404.968 242.714 405.062 242.333 405.212 241.996C405.367 241.659 405.57 241.372 405.82 241.135C406.071 240.898 406.36 240.718 406.688 240.595C407.021 240.467 407.386 240.403 407.782 240.403C408.265 240.403 408.685 240.494 409.04 240.677C409.396 240.859 409.689 241.107 409.922 241.422C410.159 241.732 410.334 242.087 410.448 242.488C410.567 242.885 410.626 243.299 410.626 243.732C410.626 244.211 410.553 244.658 410.407 245.072C410.261 245.482 410.047 245.842 409.765 246.152C409.487 246.462 409.147 246.704 408.746 246.877C408.35 247.05 407.898 247.137 407.393 247.137C406.859 247.137 406.383 247.034 405.964 246.829C405.549 246.624 405.196 246.341 404.904 245.981C404.617 245.621 404.398 245.207 404.248 244.737C404.098 244.268 404.022 243.771 404.022 243.247V242.563C404.022 241.807 404.118 241.094 404.31 240.424C404.501 239.749 404.795 239.155 405.191 238.64C405.592 238.125 406.105 237.721 406.729 237.43C407.354 237.133 408.099 236.985 408.965 236.985ZM418.833 241.189V242.816C418.833 243.596 418.755 244.261 418.6 244.812C418.45 245.359 418.231 245.804 417.944 246.146C417.657 246.487 417.313 246.738 416.912 246.897C416.515 247.057 416.071 247.137 415.579 247.137C415.187 247.137 414.822 247.087 414.485 246.986C414.152 246.886 413.851 246.729 413.583 246.515C413.314 246.3 413.084 246.025 412.892 245.688C412.705 245.346 412.56 244.938 412.455 244.464C412.354 243.99 412.304 243.441 412.304 242.816V241.189C412.304 240.406 412.382 239.745 412.537 239.207C412.692 238.665 412.913 238.225 413.2 237.888C413.487 237.546 413.829 237.298 414.225 237.143C414.626 236.988 415.073 236.91 415.565 236.91C415.962 236.91 416.326 236.96 416.659 237.061C416.996 237.156 417.297 237.309 417.561 237.519C417.83 237.728 418.058 238.002 418.245 238.339C418.436 238.672 418.582 239.075 418.682 239.549C418.782 240.018 418.833 240.565 418.833 241.189ZM417.185 243.049V240.943C417.185 240.547 417.162 240.198 417.117 239.897C417.071 239.592 417.003 239.335 416.912 239.125C416.825 238.911 416.716 238.738 416.584 238.605C416.451 238.469 416.301 238.371 416.132 238.312C415.964 238.248 415.775 238.216 415.565 238.216C415.31 238.216 415.082 238.266 414.881 238.366C414.681 238.462 414.512 238.617 414.376 238.831C414.239 239.045 414.134 239.328 414.061 239.679C413.993 240.025 413.959 240.447 413.959 240.943V243.049C413.959 243.45 413.981 243.803 414.027 244.108C414.073 244.414 414.141 244.676 414.232 244.895C414.323 245.109 414.433 245.286 414.56 245.428C414.692 245.564 414.843 245.665 415.011 245.729C415.185 245.792 415.374 245.824 415.579 245.824C415.838 245.824 416.069 245.774 416.269 245.674C416.47 245.574 416.638 245.414 416.775 245.195C416.912 244.972 417.014 244.683 417.083 244.327C417.151 243.972 417.185 243.546 417.185 243.049Z" fill="white" fill-opacity="0.87"/>
<path d="M362.668 291L364.5 281.047H365.621L363.789 291H362.668ZM365.334 291L367.166 281.047H368.287L366.455 291H365.334ZM369.217 284.95H362.107V283.891H369.217V284.95ZM368.704 288.197H361.588V287.138H368.704V288.197ZM375.099 281.013V291H373.452V282.968L371.011 283.795V282.435L374.901 281.013H375.099ZM382.11 291H379.984L379.997 289.64H382.11C382.725 289.64 383.24 289.505 383.654 289.236C384.074 288.967 384.388 288.582 384.598 288.081C384.812 287.58 384.919 286.983 384.919 286.29V285.75C384.919 285.212 384.858 284.736 384.735 284.321C384.616 283.907 384.438 283.558 384.201 283.275C383.969 282.993 383.682 282.779 383.34 282.633C383.003 282.487 382.613 282.414 382.171 282.414H379.943V281.047H382.171C382.832 281.047 383.436 281.159 383.983 281.382C384.529 281.601 385.001 281.917 385.398 282.332C385.799 282.747 386.106 283.243 386.321 283.822C386.535 284.401 386.642 285.048 386.642 285.764V286.29C386.642 287.006 386.535 287.653 386.321 288.231C386.106 288.81 385.799 289.307 385.398 289.722C384.997 290.132 384.518 290.449 383.962 290.672C383.411 290.891 382.793 291 382.11 291ZM380.934 281.047V291H379.218V281.047H380.934ZM389.831 289.701H389.968C390.596 289.701 391.121 289.619 391.54 289.455C391.964 289.286 392.301 289.054 392.552 288.758C392.802 288.462 392.982 288.113 393.092 287.712C393.201 287.311 393.256 286.876 393.256 286.406V284.69C393.256 284.285 393.212 283.929 393.126 283.624C393.044 283.314 392.925 283.057 392.77 282.852C392.62 282.642 392.444 282.485 392.244 282.38C392.048 282.275 391.836 282.223 391.608 282.223C391.358 282.223 391.132 282.28 390.931 282.394C390.735 282.503 390.569 282.656 390.432 282.852C390.3 283.043 390.198 283.269 390.125 283.528C390.056 283.784 390.022 284.057 390.022 284.349C390.022 284.622 390.054 284.886 390.118 285.142C390.186 285.392 390.287 285.616 390.419 285.812C390.551 286.007 390.717 286.162 390.918 286.276C391.118 286.39 391.353 286.447 391.622 286.447C391.877 286.447 392.112 286.399 392.326 286.304C392.54 286.203 392.727 286.069 392.887 285.9C393.046 285.732 393.171 285.543 393.263 285.333C393.354 285.123 393.404 284.909 393.413 284.69L394.042 284.882C394.042 285.228 393.969 285.57 393.823 285.907C393.682 286.24 393.484 286.545 393.228 286.823C392.978 287.097 392.684 287.315 392.346 287.479C392.014 287.644 391.651 287.726 391.26 287.726C390.786 287.726 390.366 287.637 390.002 287.459C389.642 287.277 389.341 287.031 389.099 286.721C388.862 286.411 388.685 286.055 388.566 285.654C388.448 285.253 388.388 284.832 388.388 284.39C388.388 283.911 388.461 283.462 388.607 283.043C388.753 282.624 388.965 282.255 389.243 281.936C389.521 281.612 389.858 281.361 390.255 281.184C390.656 281.001 391.109 280.91 391.615 280.91C392.153 280.91 392.624 281.015 393.03 281.225C393.436 281.434 393.777 281.724 394.055 282.093C394.333 282.462 394.543 282.89 394.684 283.378C394.826 283.866 394.896 284.39 394.896 284.95V285.531C394.896 286.119 394.844 286.687 394.739 287.233C394.634 287.776 394.463 288.279 394.226 288.744C393.994 289.204 393.686 289.61 393.304 289.961C392.925 290.307 392.46 290.578 391.909 290.774C391.362 290.966 390.72 291.062 389.981 291.062H389.831V289.701ZM403.636 289.64V291H398.352V289.64H403.636ZM398.837 281.047V291H397.121V281.047H398.837ZM402.946 285.203V286.543H398.352V285.203H402.946ZM403.602 281.047V282.414H398.352V281.047H403.602ZM411.788 281.047V281.949L407.81 291H406.073L410.045 282.359H404.891V281.047H411.788ZM414.861 289.701H414.998C415.627 289.701 416.151 289.619 416.57 289.455C416.994 289.286 417.331 289.054 417.582 288.758C417.832 288.462 418.012 288.113 418.122 287.712C418.231 287.311 418.286 286.876 418.286 286.406V284.69C418.286 284.285 418.242 283.929 418.156 283.624C418.074 283.314 417.955 283.057 417.8 282.852C417.65 282.642 417.475 282.485 417.274 282.38C417.078 282.275 416.866 282.223 416.638 282.223C416.388 282.223 416.162 282.28 415.962 282.394C415.766 282.503 415.599 282.656 415.463 282.852C415.33 283.043 415.228 283.269 415.155 283.528C415.087 283.784 415.052 284.057 415.052 284.349C415.052 284.622 415.084 284.886 415.148 285.142C415.216 285.392 415.317 285.616 415.449 285.812C415.581 286.007 415.747 286.162 415.948 286.276C416.148 286.39 416.383 286.447 416.652 286.447C416.907 286.447 417.142 286.399 417.356 286.304C417.57 286.203 417.757 286.069 417.917 285.9C418.076 285.732 418.201 285.543 418.293 285.333C418.384 285.123 418.434 284.909 418.443 284.69L419.072 284.882C419.072 285.228 418.999 285.57 418.853 285.907C418.712 286.24 418.514 286.545 418.258 286.823C418.008 287.097 417.714 287.315 417.377 287.479C417.044 287.644 416.682 287.726 416.29 287.726C415.816 287.726 415.396 287.637 415.032 287.459C414.672 287.277 414.371 287.031 414.129 286.721C413.893 286.411 413.715 286.055 413.596 285.654C413.478 285.253 413.419 284.832 413.419 284.39C413.419 283.911 413.491 283.462 413.637 283.043C413.783 282.624 413.995 282.255 414.273 281.936C414.551 281.612 414.888 281.361 415.285 281.184C415.686 281.001 416.139 280.91 416.645 280.91C417.183 280.91 417.655 281.015 418.06 281.225C418.466 281.434 418.808 281.724 419.086 282.093C419.364 282.462 419.573 282.89 419.714 283.378C419.856 283.866 419.926 284.39 419.926 284.95V285.531C419.926 286.119 419.874 286.687 419.769 287.233C419.664 287.776 419.493 288.279 419.256 288.744C419.024 289.204 418.716 289.61 418.334 289.961C417.955 290.307 417.49 290.578 416.939 290.774C416.392 290.966 415.75 291.062 415.011 291.062H414.861V289.701Z" fill="white" fill-opacity="0.87"/>
<path d="M800.668 291L802.5 281.047H803.621L801.789 291H800.668ZM803.334 291L805.166 281.047H806.287L804.455 291H803.334ZM807.217 284.95H800.107V283.891H807.217V284.95ZM806.704 288.197H799.588V287.138H806.704V288.197ZM810.577 281.047V291H808.861V281.047H810.577ZM814.637 285.401V286.762H810.139V285.401H814.637ZM815.205 281.047V282.414H810.139V281.047H815.205ZM818.688 281.047V291H816.972V281.047H818.688ZM822.748 285.401V286.762H818.25V285.401H822.748ZM823.316 281.047V282.414H818.25V281.047H823.316ZM826.799 281.047V291H825.083V281.047H826.799ZM830.859 285.401V286.762H826.361V285.401H830.859ZM831.427 281.047V282.414H826.361V281.047H831.427ZM834.91 281.047V291H833.194V281.047H834.91ZM838.97 285.401V286.762H834.472V285.401H838.97ZM839.537 281.047V282.414H834.472V281.047H839.537ZM843.021 281.047V291H841.305V281.047H843.021ZM847.081 285.401V286.762H842.583V285.401H847.081ZM847.648 281.047V282.414H842.583V281.047H847.648ZM851.131 281.047V291H849.416V281.047H851.131ZM855.192 285.401V286.762H850.694V285.401H855.192ZM855.759 281.047V282.414H850.694V281.047H855.759Z" fill="black" fill-opacity="0.87"/>
<path d="M800.668 248L802.5 238.047H803.621L801.789 248H800.668ZM803.334 248L805.166 238.047H806.287L804.455 248H803.334ZM807.217 241.95H800.107V240.891H807.217V241.95ZM806.704 245.197H799.588V244.138H806.704V245.197ZM811.753 248H809.627L809.64 246.64H811.753C812.368 246.64 812.883 246.505 813.297 246.236C813.717 245.967 814.031 245.582 814.241 245.081C814.455 244.58 814.562 243.983 814.562 243.29V242.75C814.562 242.212 814.501 241.736 814.378 241.321C814.259 240.907 814.081 240.558 813.844 240.275C813.612 239.993 813.325 239.779 812.983 239.633C812.646 239.487 812.256 239.414 811.814 239.414H809.586V238.047H811.814C812.475 238.047 813.079 238.159 813.626 238.382C814.172 238.601 814.644 238.917 815.041 239.332C815.442 239.747 815.749 240.243 815.963 240.822C816.178 241.401 816.285 242.048 816.285 242.764V243.29C816.285 244.006 816.178 244.653 815.963 245.231C815.749 245.81 815.442 246.307 815.041 246.722C814.64 247.132 814.161 247.449 813.605 247.672C813.054 247.891 812.436 248 811.753 248ZM810.577 238.047V248H808.861V238.047H810.577ZM822.646 238.013V248H820.998V239.968L818.558 240.795V239.435L822.447 238.013H822.646ZM833.279 246.64V248H827.995V246.64H833.279ZM828.48 238.047V248H826.764V238.047H828.48ZM832.589 242.203V243.543H827.995V242.203H832.589ZM833.245 238.047V239.414H827.995V238.047H833.245ZM838.813 243.502H836.277L836.263 242.251H838.478C838.852 242.251 839.168 242.196 839.428 242.087C839.692 241.973 839.893 241.811 840.03 241.602C840.166 241.387 840.235 241.13 840.235 240.829C840.235 240.496 840.171 240.225 840.043 240.016C839.916 239.806 839.72 239.653 839.455 239.558C839.196 239.462 838.863 239.414 838.457 239.414H836.796V248H835.08V238.047H838.457C839.004 238.047 839.492 238.099 839.92 238.204C840.353 238.309 840.72 238.473 841.021 238.696C841.326 238.915 841.556 239.193 841.711 239.53C841.871 239.868 841.951 240.269 841.951 240.733C841.951 241.144 841.853 241.52 841.657 241.861C841.461 242.199 841.171 242.474 840.788 242.688C840.406 242.903 839.929 243.03 839.36 243.071L838.813 243.502ZM838.738 248H835.737L836.509 246.64H838.738C839.125 246.64 839.449 246.576 839.708 246.448C839.968 246.316 840.162 246.136 840.289 245.908C840.422 245.676 840.488 245.405 840.488 245.095C840.488 244.771 840.431 244.491 840.317 244.254C840.203 244.012 840.023 243.828 839.777 243.7C839.531 243.568 839.209 243.502 838.813 243.502H836.885L836.899 242.251H839.408L839.797 242.723C840.344 242.741 840.793 242.862 841.144 243.085C841.499 243.308 841.764 243.598 841.937 243.953C842.11 244.309 842.197 244.691 842.197 245.102C842.197 245.735 842.058 246.266 841.78 246.694C841.506 247.123 841.112 247.449 840.597 247.672C840.082 247.891 839.462 248 838.738 248ZM850.841 246.64V248H845.557V246.64H850.841ZM846.042 238.047V248H844.326V238.047H846.042ZM850.15 242.203V243.543H845.557V242.203H850.15ZM850.807 238.047V239.414H845.557V238.047H850.807ZM859.239 244.452V245.765H852.061L852.006 244.773L856.299 238.047H857.619L856.19 240.494L853.722 244.452H859.239ZM857.995 238.047V248H856.347V238.047H857.995Z" fill="black" fill-opacity="0.87"/>
<path d="M800.668 203L802.5 193.047H803.621L801.789 203H800.668ZM803.334 203L805.166 193.047H806.287L804.455 203H803.334ZM807.217 196.95H800.107V195.891H807.217V196.95ZM806.704 200.197H799.588V199.138H806.704V200.197ZM812.737 194.373L809.763 203H807.965L811.712 193.047H812.86L812.737 194.373ZM815.225 203L812.245 194.373L812.115 193.047H813.27L817.03 203H815.225ZM815.082 199.309V200.669H809.668V199.309H815.082ZM825.141 199.452V200.765H817.963L817.908 199.773L822.201 193.047H823.521L822.092 195.494L819.624 199.452H825.141ZM823.897 193.047V203H822.249V193.047H823.897ZM829.793 203H827.667L827.68 201.64H829.793C830.408 201.64 830.923 201.505 831.338 201.236C831.757 200.967 832.071 200.582 832.281 200.081C832.495 199.58 832.602 198.983 832.602 198.29V197.75C832.602 197.212 832.541 196.736 832.418 196.321C832.299 195.907 832.122 195.558 831.885 195.275C831.652 194.993 831.365 194.779 831.023 194.633C830.686 194.487 830.296 194.414 829.854 194.414H827.626V193.047H829.854C830.515 193.047 831.119 193.159 831.666 193.382C832.213 193.601 832.684 193.917 833.081 194.332C833.482 194.747 833.79 195.243 834.004 195.822C834.218 196.401 834.325 197.048 834.325 197.764V198.29C834.325 199.006 834.218 199.653 834.004 200.231C833.79 200.81 833.482 201.307 833.081 201.722C832.68 202.132 832.201 202.449 831.645 202.672C831.094 202.891 830.476 203 829.793 203ZM828.617 193.047V203H826.901V193.047H828.617ZM842.696 200.286C842.696 200.906 842.552 201.428 842.265 201.852C841.978 202.275 841.586 202.597 841.089 202.815C840.597 203.03 840.041 203.137 839.421 203.137C838.801 203.137 838.243 203.03 837.746 202.815C837.25 202.597 836.858 202.275 836.571 201.852C836.284 201.428 836.14 200.906 836.14 200.286C836.14 199.876 836.22 199.505 836.379 199.172C836.539 198.835 836.764 198.545 837.056 198.304C837.352 198.058 837.699 197.868 838.095 197.736C838.496 197.604 838.934 197.538 839.408 197.538C840.037 197.538 840.599 197.654 841.096 197.887C841.593 198.119 841.982 198.44 842.265 198.851C842.552 199.261 842.696 199.739 842.696 200.286ZM841.041 200.204C841.041 199.871 840.973 199.58 840.836 199.329C840.7 199.078 840.508 198.885 840.262 198.748C840.016 198.611 839.731 198.543 839.408 198.543C839.079 198.543 838.795 198.611 838.553 198.748C838.312 198.885 838.122 199.078 837.986 199.329C837.854 199.58 837.787 199.871 837.787 200.204C837.787 200.541 837.854 200.833 837.986 201.079C838.118 201.321 838.307 201.505 838.553 201.633C838.799 201.76 839.089 201.824 839.421 201.824C839.754 201.824 840.041 201.76 840.283 201.633C840.524 201.505 840.711 201.321 840.843 201.079C840.975 200.833 841.041 200.541 841.041 200.204ZM842.47 195.665C842.47 196.162 842.338 196.604 842.074 196.991C841.814 197.379 841.454 197.684 840.994 197.907C840.533 198.126 840.009 198.235 839.421 198.235C838.829 198.235 838.3 198.126 837.835 197.907C837.375 197.684 837.013 197.379 836.748 196.991C836.489 196.604 836.359 196.162 836.359 195.665C836.359 195.073 836.489 194.574 836.748 194.168C837.013 193.758 837.375 193.446 837.835 193.231C838.296 193.017 838.822 192.91 839.414 192.91C840.007 192.91 840.533 193.017 840.994 193.231C841.454 193.446 841.814 193.758 842.074 194.168C842.338 194.574 842.47 195.073 842.47 195.665ZM840.823 195.72C840.823 195.424 840.763 195.164 840.645 194.94C840.531 194.713 840.369 194.535 840.16 194.407C839.95 194.28 839.702 194.216 839.414 194.216C839.127 194.216 838.879 194.277 838.669 194.4C838.46 194.523 838.298 194.697 838.184 194.92C838.07 195.143 838.013 195.41 838.013 195.72C838.013 196.025 838.07 196.292 838.184 196.52C838.298 196.743 838.46 196.918 838.669 197.046C838.884 197.174 839.134 197.237 839.421 197.237C839.708 197.237 839.957 197.174 840.166 197.046C840.376 196.918 840.538 196.743 840.652 196.52C840.766 196.292 840.823 196.025 840.823 195.72ZM850.684 199.76H852.393C852.338 200.411 852.156 200.993 851.846 201.503C851.536 202.009 851.101 202.408 850.54 202.699C849.979 202.991 849.298 203.137 848.496 203.137C847.881 203.137 847.327 203.027 846.835 202.809C846.343 202.585 845.921 202.271 845.57 201.865C845.219 201.455 844.951 200.961 844.764 200.382C844.581 199.803 844.49 199.156 844.49 198.44V197.613C844.49 196.898 844.584 196.251 844.771 195.672C844.962 195.093 845.235 194.599 845.591 194.188C845.946 193.774 846.372 193.457 846.869 193.238C847.37 193.02 847.933 192.91 848.558 192.91C849.351 192.91 850.021 193.056 850.567 193.348C851.114 193.639 851.538 194.043 851.839 194.558C852.144 195.073 852.331 195.663 852.399 196.328H850.69C850.645 195.9 850.545 195.533 850.39 195.228C850.239 194.922 850.016 194.69 849.72 194.53C849.424 194.366 849.036 194.284 848.558 194.284C848.166 194.284 847.824 194.357 847.532 194.503C847.241 194.649 846.997 194.863 846.801 195.146C846.605 195.428 846.457 195.777 846.356 196.191C846.261 196.602 846.213 197.071 846.213 197.6V198.44C846.213 198.942 846.256 199.397 846.343 199.808C846.434 200.213 846.571 200.562 846.753 200.854C846.94 201.145 847.177 201.371 847.464 201.53C847.751 201.69 848.095 201.77 848.496 201.77C848.984 201.77 849.378 201.692 849.679 201.537C849.984 201.382 850.214 201.157 850.369 200.86C850.529 200.56 850.633 200.193 850.684 199.76ZM855.418 201.701H855.554C856.183 201.701 856.707 201.619 857.127 201.455C857.55 201.286 857.888 201.054 858.138 200.758C858.389 200.462 858.569 200.113 858.678 199.712C858.788 199.311 858.842 198.876 858.842 198.406V196.69C858.842 196.285 858.799 195.929 858.713 195.624C858.63 195.314 858.512 195.057 858.357 194.852C858.207 194.642 858.031 194.485 857.831 194.38C857.635 194.275 857.423 194.223 857.195 194.223C856.944 194.223 856.719 194.28 856.518 194.394C856.322 194.503 856.156 194.656 856.019 194.852C855.887 195.043 855.784 195.269 855.712 195.528C855.643 195.784 855.609 196.057 855.609 196.349C855.609 196.622 855.641 196.886 855.705 197.142C855.773 197.392 855.873 197.616 856.005 197.812C856.138 198.007 856.304 198.162 856.504 198.276C856.705 198.39 856.94 198.447 857.209 198.447C857.464 198.447 857.699 198.399 857.913 198.304C858.127 198.203 858.314 198.069 858.473 197.9C858.633 197.732 858.758 197.543 858.849 197.333C858.94 197.123 858.99 196.909 859 196.69L859.629 196.882C859.629 197.228 859.556 197.57 859.41 197.907C859.268 198.24 859.07 198.545 858.815 198.823C858.564 199.097 858.27 199.315 857.933 199.479C857.601 199.644 857.238 199.726 856.846 199.726C856.372 199.726 855.953 199.637 855.588 199.459C855.228 199.277 854.928 199.031 854.686 198.721C854.449 198.411 854.271 198.055 854.153 197.654C854.034 197.253 853.975 196.832 853.975 196.39C853.975 195.911 854.048 195.462 854.194 195.043C854.34 194.624 854.552 194.255 854.83 193.936C855.108 193.612 855.445 193.361 855.841 193.184C856.242 193.001 856.696 192.91 857.202 192.91C857.74 192.91 858.211 193.015 858.617 193.225C859.022 193.434 859.364 193.724 859.642 194.093C859.92 194.462 860.13 194.89 860.271 195.378C860.412 195.866 860.483 196.39 860.483 196.95V197.531C860.483 198.119 860.431 198.687 860.326 199.233C860.221 199.776 860.05 200.279 859.813 200.744C859.581 201.204 859.273 201.61 858.89 201.961C858.512 202.307 858.047 202.578 857.496 202.774C856.949 202.966 856.306 203.062 855.568 203.062H855.418V201.701Z" fill="black" fill-opacity="0.87"/>
<path d="M800.668 159L802.5 149.047H803.621L801.789 159H800.668ZM803.334 159L805.166 149.047H806.287L804.455 159H803.334ZM807.217 152.95H800.107V151.891H807.217V152.95ZM806.704 156.197H799.588V155.138H806.704V156.197ZM815.212 149.047V149.949L811.233 159H809.497L813.468 150.359H808.314V149.047H815.212ZM823.569 149.047V149.949L819.59 159H817.854L821.825 150.359H816.671V149.047H823.569ZM831.454 155.76H833.163C833.108 156.411 832.926 156.993 832.616 157.503C832.306 158.009 831.871 158.408 831.31 158.699C830.75 158.991 830.068 159.137 829.266 159.137C828.651 159.137 828.097 159.027 827.605 158.809C827.113 158.585 826.692 158.271 826.341 157.865C825.99 157.455 825.721 156.961 825.534 156.382C825.352 155.803 825.261 155.156 825.261 154.44V153.613C825.261 152.898 825.354 152.251 825.541 151.672C825.732 151.093 826.006 150.599 826.361 150.188C826.717 149.774 827.143 149.457 827.639 149.238C828.141 149.02 828.704 148.91 829.328 148.91C830.121 148.91 830.791 149.056 831.338 149.348C831.885 149.639 832.308 150.043 832.609 150.558C832.915 151.073 833.101 151.663 833.17 152.328H831.461C831.415 151.9 831.315 151.533 831.16 151.228C831.01 150.922 830.786 150.69 830.49 150.53C830.194 150.366 829.806 150.284 829.328 150.284C828.936 150.284 828.594 150.357 828.303 150.503C828.011 150.649 827.767 150.863 827.571 151.146C827.375 151.428 827.227 151.777 827.127 152.191C827.031 152.602 826.983 153.071 826.983 153.6V154.44C826.983 154.942 827.026 155.397 827.113 155.808C827.204 156.213 827.341 156.562 827.523 156.854C827.71 157.145 827.947 157.371 828.234 157.53C828.521 157.69 828.865 157.77 829.266 157.77C829.754 157.77 830.148 157.692 830.449 157.537C830.754 157.382 830.985 157.157 831.139 156.86C831.299 156.56 831.404 156.193 831.454 155.76ZM841.718 155.452V156.765H834.54L834.486 155.773L838.779 149.047H840.098L838.669 151.494L836.202 155.452H841.718ZM840.474 149.047V159H838.827V149.047H840.474ZM847.354 150.373L844.381 159H842.583L846.329 149.047H847.478L847.354 150.373ZM849.843 159L846.862 150.373L846.732 149.047H847.888L851.647 159H849.843ZM849.699 155.309V156.669H844.285V155.309H849.699ZM859.676 157.64V159H854.392V157.64H859.676ZM854.878 149.047V159H853.162V149.047H854.878ZM858.986 153.203V154.543H854.392V153.203H858.986ZM859.642 149.047V150.414H854.392V149.047H859.642Z" fill="black" fill-opacity="0.87"/>
<path d="M800.668 115L802.5 105.047H803.621L801.789 115H800.668ZM803.334 115L805.166 105.047H806.287L804.455 115H803.334ZM807.217 108.95H800.107V107.891H807.217V108.95ZM806.704 112.197H799.588V111.138H806.704V112.197ZM815.458 111.452V112.765H808.28L808.225 111.773L812.518 105.047H813.837L812.409 107.494L809.941 111.452H815.458ZM814.213 105.047V115H812.566V105.047H814.213ZM821.094 106.373L818.12 115H816.322L820.069 105.047H821.217L821.094 106.373ZM823.582 115L820.602 106.373L820.472 105.047H821.627L825.387 115H823.582ZM823.439 111.309V112.669H818.025V111.309H823.439ZM830.634 110.502H828.097L828.084 109.251H830.299C830.672 109.251 830.989 109.196 831.249 109.087C831.513 108.973 831.714 108.811 831.85 108.602C831.987 108.387 832.055 108.13 832.055 107.829C832.055 107.496 831.992 107.225 831.864 107.016C831.736 106.806 831.54 106.653 831.276 106.558C831.016 106.462 830.684 106.414 830.278 106.414H828.617V115H826.901V105.047H830.278C830.825 105.047 831.313 105.099 831.741 105.204C832.174 105.309 832.541 105.473 832.842 105.696C833.147 105.915 833.377 106.193 833.532 106.53C833.692 106.868 833.771 107.269 833.771 107.733C833.771 108.144 833.673 108.52 833.477 108.861C833.281 109.199 832.992 109.474 832.609 109.688C832.226 109.903 831.75 110.03 831.18 110.071L830.634 110.502ZM830.558 115H827.557L828.33 113.64H830.558C830.946 113.64 831.269 113.576 831.529 113.448C831.789 113.316 831.983 113.136 832.11 112.908C832.242 112.676 832.308 112.405 832.308 112.095C832.308 111.771 832.251 111.491 832.138 111.254C832.024 111.012 831.844 110.828 831.597 110.7C831.351 110.568 831.03 110.502 830.634 110.502H828.706L828.72 109.251H831.228L831.618 109.723C832.165 109.741 832.614 109.862 832.965 110.085C833.32 110.308 833.584 110.598 833.758 110.953C833.931 111.309 834.017 111.691 834.017 112.102C834.017 112.735 833.878 113.266 833.6 113.694C833.327 114.123 832.933 114.449 832.418 114.672C831.903 114.891 831.283 115 830.558 115ZM840.385 105.013V115H838.738V106.968L836.297 107.795V106.435L840.187 105.013H840.385ZM845.57 113.701H845.707C846.336 113.701 846.86 113.619 847.279 113.455C847.703 113.286 848.04 113.054 848.291 112.758C848.542 112.462 848.722 112.113 848.831 111.712C848.94 111.311 848.995 110.876 848.995 110.406V108.69C848.995 108.285 848.952 107.929 848.865 107.624C848.783 107.314 848.665 107.057 848.51 106.852C848.359 106.642 848.184 106.485 847.983 106.38C847.787 106.275 847.576 106.223 847.348 106.223C847.097 106.223 846.871 106.28 846.671 106.394C846.475 106.503 846.309 106.656 846.172 106.852C846.04 107.043 845.937 107.269 845.864 107.528C845.796 107.784 845.762 108.057 845.762 108.349C845.762 108.622 845.794 108.886 845.857 109.142C845.926 109.392 846.026 109.616 846.158 109.812C846.29 110.007 846.457 110.162 846.657 110.276C846.858 110.39 847.092 110.447 847.361 110.447C847.617 110.447 847.851 110.399 848.065 110.304C848.28 110.203 848.466 110.069 848.626 109.9C848.785 109.732 848.911 109.543 849.002 109.333C849.093 109.123 849.143 108.909 849.152 108.69L849.781 108.882C849.781 109.228 849.708 109.57 849.562 109.907C849.421 110.24 849.223 110.545 848.968 110.823C848.717 111.097 848.423 111.315 848.086 111.479C847.753 111.644 847.391 111.726 846.999 111.726C846.525 111.726 846.106 111.637 845.741 111.459C845.381 111.277 845.08 111.031 844.839 110.721C844.602 110.411 844.424 110.055 844.306 109.654C844.187 109.253 844.128 108.832 844.128 108.39C844.128 107.911 844.201 107.462 844.347 107.043C844.493 106.624 844.704 106.255 844.982 105.936C845.26 105.612 845.598 105.361 845.994 105.184C846.395 105.001 846.849 104.91 847.354 104.91C847.892 104.91 848.364 105.015 848.77 105.225C849.175 105.434 849.517 105.724 849.795 106.093C850.073 106.462 850.283 106.89 850.424 107.378C850.565 107.866 850.636 108.39 850.636 108.95V109.531C850.636 110.119 850.583 110.687 850.479 111.233C850.374 111.776 850.203 112.279 849.966 112.744C849.733 113.204 849.426 113.61 849.043 113.961C848.665 114.307 848.2 114.578 847.648 114.774C847.102 114.966 846.459 115.062 845.721 115.062H845.57V113.701ZM854.536 109.278H855.52C855.903 109.278 856.22 109.212 856.47 109.08C856.726 108.948 856.915 108.766 857.038 108.533C857.161 108.301 857.222 108.034 857.222 107.733C857.222 107.419 857.165 107.15 857.051 106.927C856.942 106.699 856.773 106.523 856.546 106.4C856.322 106.277 856.037 106.216 855.691 106.216C855.399 106.216 855.135 106.275 854.898 106.394C854.666 106.507 854.481 106.672 854.344 106.886C854.208 107.095 854.139 107.346 854.139 107.638H852.485C852.485 107.109 852.624 106.64 852.902 106.229C853.18 105.819 853.558 105.498 854.037 105.266C854.52 105.029 855.062 104.91 855.664 104.91C856.306 104.91 856.867 105.017 857.345 105.231C857.828 105.441 858.204 105.756 858.473 106.175C858.742 106.594 858.877 107.114 858.877 107.733C858.877 108.016 858.81 108.303 858.678 108.595C858.546 108.886 858.35 109.153 858.09 109.395C857.831 109.632 857.507 109.825 857.12 109.976C856.732 110.121 856.283 110.194 855.773 110.194H854.536V109.278ZM854.536 110.563V109.661H855.773C856.356 109.661 856.853 109.729 857.263 109.866C857.678 110.003 858.015 110.192 858.275 110.434C858.535 110.671 858.724 110.942 858.842 111.247C858.965 111.552 859.027 111.876 859.027 112.218C859.027 112.683 858.943 113.097 858.774 113.462C858.61 113.822 858.375 114.127 858.07 114.378C857.765 114.629 857.407 114.818 856.997 114.945C856.591 115.073 856.149 115.137 855.671 115.137C855.242 115.137 854.832 115.077 854.44 114.959C854.048 114.84 853.697 114.665 853.387 114.433C853.077 114.196 852.831 113.902 852.649 113.551C852.471 113.195 852.382 112.785 852.382 112.32H854.03C854.03 112.617 854.098 112.879 854.235 113.106C854.376 113.33 854.572 113.505 854.823 113.633C855.078 113.76 855.37 113.824 855.698 113.824C856.044 113.824 856.343 113.763 856.593 113.64C856.844 113.517 857.035 113.334 857.168 113.093C857.304 112.851 857.373 112.56 857.373 112.218C857.373 111.83 857.297 111.516 857.147 111.274C856.997 111.033 856.782 110.855 856.504 110.741C856.226 110.623 855.898 110.563 855.52 110.563H854.536Z" fill="black" fill-opacity="0.87"/>
<path d="M21.4551 110.837C20.8991 111.425 20.2497 111.719 19.5068 111.719C18.6318 111.719 17.9346 111.413 17.415 110.803C16.8955 110.188 16.6357 109.381 16.6357 108.383C16.6357 107.727 16.7679 107.132 17.0322 106.599C17.2965 106.065 17.6725 105.651 18.1602 105.354C18.6478 105.058 19.2129 104.91 19.8555 104.91C20.8581 104.91 21.6533 105.284 22.2412 106.031C22.8291 106.779 23.123 107.779 23.123 109.032V109.497C23.123 111.293 22.7174 112.662 21.9062 113.605C21.0951 114.549 19.8851 115.027 18.2764 115.041H18.0781V113.667H18.3174C19.2972 113.653 20.0492 113.419 20.5732 112.963C21.0973 112.503 21.3913 111.794 21.4551 110.837ZM19.8555 110.42C20.1882 110.42 20.5003 110.324 20.792 110.133C21.0837 109.941 21.3092 109.677 21.4688 109.34V108.69C21.4688 107.957 21.3184 107.367 21.0176 106.92C20.7168 106.473 20.3271 106.25 19.8486 106.25C19.3701 106.25 18.9873 106.448 18.7002 106.845C18.4176 107.237 18.2764 107.733 18.2764 108.335C18.2764 108.959 18.4199 109.463 18.707 109.846C18.9941 110.229 19.377 110.42 19.8555 110.42ZM31.5895 110.81C31.5895 112.241 31.3206 113.321 30.7828 114.05C30.2496 114.774 29.4361 115.137 28.3424 115.137C27.2669 115.137 26.4557 114.784 25.9088 114.077C25.3665 113.366 25.0885 112.316 25.0748 110.926V109.203C25.0748 107.772 25.3414 106.699 25.8746 105.983C26.4124 105.268 27.2304 104.91 28.3287 104.91C29.4179 104.91 30.2291 105.259 30.7623 105.956C31.3001 106.653 31.5758 107.697 31.5895 109.087V110.81ZM29.9283 108.95C29.9283 108.016 29.8007 107.332 29.5455 106.899C29.2903 106.462 28.8847 106.243 28.3287 106.243C27.7864 106.243 27.3876 106.451 27.1324 106.865C26.8772 107.275 26.7428 107.918 26.7291 108.793V111.049C26.7291 111.979 26.859 112.671 27.1187 113.127C27.3785 113.583 27.7864 113.811 28.3424 113.811C28.8756 113.811 29.2698 113.601 29.525 113.182C29.7802 112.758 29.9146 112.097 29.9283 111.199V108.95ZM39.9465 110.81C39.9465 112.241 39.6776 113.321 39.1398 114.05C38.6066 114.774 37.7932 115.137 36.6994 115.137C35.6239 115.137 34.8127 114.784 34.2658 114.077C33.7235 113.366 33.4455 112.316 33.4318 110.926V109.203C33.4318 107.772 33.6984 106.699 34.2316 105.983C34.7694 105.268 35.5874 104.91 36.6857 104.91C37.7749 104.91 38.5861 105.259 39.1193 105.956C39.6571 106.653 39.9328 107.697 39.9465 109.087V110.81ZM38.2854 108.95C38.2854 108.016 38.1577 107.332 37.9025 106.899C37.6473 106.462 37.2417 106.243 36.6857 106.243C36.1434 106.243 35.7447 106.451 35.4895 106.865C35.2342 107.275 35.0998 107.918 35.0861 108.793V111.049C35.0861 111.979 35.216 112.671 35.4758 113.127C35.7355 113.583 36.1434 113.811 36.6994 113.811C37.2326 113.811 37.6268 113.601 37.882 113.182C38.1372 112.758 38.2717 112.097 38.2854 111.199V108.95Z" fill="white" fill-opacity="0.87"/>
<path d="M23.0137 151.672C23.0137 152.16 22.8883 152.595 22.6377 152.978C22.387 153.356 22.0452 153.654 21.6123 153.873C22.1318 154.115 22.5306 154.445 22.8086 154.864C23.0911 155.284 23.2324 155.757 23.2324 156.286C23.2324 157.161 22.9362 157.856 22.3438 158.371C21.7513 158.882 20.9629 159.137 19.9785 159.137C18.9896 159.137 18.1966 158.879 17.5996 158.364C17.0072 157.849 16.7109 157.157 16.7109 156.286C16.7109 155.753 16.8522 155.274 17.1348 154.851C17.4173 154.427 17.8138 154.101 18.3242 153.873C17.8958 153.654 17.5563 153.356 17.3057 152.978C17.0596 152.595 16.9365 152.16 16.9365 151.672C16.9365 150.824 17.21 150.152 17.7568 149.655C18.3037 149.159 19.042 148.91 19.9717 148.91C20.9059 148.91 21.6465 149.159 22.1934 149.655C22.7402 150.152 23.0137 150.824 23.0137 151.672ZM21.5713 156.204C21.5713 155.712 21.4232 155.315 21.127 155.015C20.8353 154.709 20.4479 154.557 19.9648 154.557C19.4818 154.557 19.0944 154.707 18.8027 155.008C18.5156 155.309 18.3721 155.707 18.3721 156.204C18.3721 156.692 18.5133 157.081 18.7959 157.373C19.083 157.665 19.4772 157.811 19.9785 157.811C20.4798 157.811 20.8695 157.669 21.1475 157.387C21.43 157.104 21.5713 156.71 21.5713 156.204ZM21.3594 151.733C21.3594 151.3 21.234 150.945 20.9834 150.667C20.7327 150.384 20.3955 150.243 19.9717 150.243C19.5479 150.243 19.2129 150.378 18.9668 150.646C18.7207 150.911 18.5977 151.273 18.5977 151.733C18.5977 152.189 18.7207 152.551 18.9668 152.82C19.2174 153.089 19.5547 153.224 19.9785 153.224C20.4023 153.224 20.7373 153.089 20.9834 152.82C21.234 152.551 21.3594 152.189 21.3594 151.733ZM31.5895 154.81C31.5895 156.241 31.3206 157.321 30.7828 158.05C30.2496 158.774 29.4361 159.137 28.3424 159.137C27.2669 159.137 26.4557 158.784 25.9088 158.077C25.3665 157.366 25.0885 156.316 25.0748 154.926V153.203C25.0748 151.772 25.3414 150.699 25.8746 149.983C26.4124 149.268 27.2304 148.91 28.3287 148.91C29.4179 148.91 30.2291 149.259 30.7623 149.956C31.3001 150.653 31.5758 151.697 31.5895 153.087V154.81ZM29.9283 152.95C29.9283 152.016 29.8007 151.332 29.5455 150.899C29.2903 150.462 28.8847 150.243 28.3287 150.243C27.7864 150.243 27.3876 150.451 27.1324 150.865C26.8772 151.275 26.7428 151.918 26.7291 152.793V155.049C26.7291 155.979 26.859 156.671 27.1187 157.127C27.3785 157.583 27.7864 157.811 28.3424 157.811C28.8756 157.811 29.2698 157.601 29.525 157.182C29.7802 156.758 29.9146 156.097 29.9283 155.199V152.95ZM39.9465 154.81C39.9465 156.241 39.6776 157.321 39.1398 158.05C38.6066 158.774 37.7932 159.137 36.6994 159.137C35.6239 159.137 34.8127 158.784 34.2658 158.077C33.7235 157.366 33.4455 156.316 33.4318 154.926V153.203C33.4318 151.772 33.6984 150.699 34.2316 149.983C34.7694 149.268 35.5874 148.91 36.6857 148.91C37.7749 148.91 38.5861 149.259 39.1193 149.956C39.6571 150.653 39.9328 151.697 39.9465 153.087V154.81ZM38.2854 152.95C38.2854 152.016 38.1577 151.332 37.9025 150.899C37.6473 150.462 37.2417 150.243 36.6857 150.243C36.1434 150.243 35.7447 150.451 35.4895 150.865C35.2342 151.275 35.0998 151.918 35.0861 152.793V155.049C35.0861 155.979 35.216 156.671 35.4758 157.127C35.7355 157.583 36.1434 157.811 36.6994 157.811C37.2326 157.811 37.6268 157.601 37.882 157.182C38.1372 156.758 38.2717 156.097 38.2854 155.199V152.95Z" fill="white" fill-opacity="0.87"/>
<path d="M23.3691 193.97L19.3906 203H17.6475L21.6191 194.38H16.4717V193.047H23.3691V193.97ZM31.5895 198.81C31.5895 200.241 31.3206 201.321 30.7828 202.05C30.2496 202.774 29.4361 203.137 28.3424 203.137C27.2669 203.137 26.4557 202.784 25.9088 202.077C25.3665 201.366 25.0885 200.316 25.0748 198.926V197.203C25.0748 195.772 25.3414 194.699 25.8746 193.983C26.4124 193.268 27.2304 192.91 28.3287 192.91C29.4179 192.91 30.2291 193.259 30.7623 193.956C31.3001 194.653 31.5758 195.697 31.5895 197.087V198.81ZM29.9283 196.95C29.9283 196.016 29.8007 195.332 29.5455 194.899C29.2903 194.462 28.8847 194.243 28.3287 194.243C27.7864 194.243 27.3876 194.451 27.1324 194.865C26.8772 195.275 26.7428 195.918 26.7291 196.793V199.049C26.7291 199.979 26.859 200.671 27.1187 201.127C27.3785 201.583 27.7864 201.811 28.3424 201.811C28.8756 201.811 29.2698 201.601 29.525 201.182C29.7802 200.758 29.9146 200.097 29.9283 199.199V196.95ZM39.9465 198.81C39.9465 200.241 39.6776 201.321 39.1398 202.05C38.6066 202.774 37.7932 203.137 36.6994 203.137C35.6239 203.137 34.8127 202.784 34.2658 202.077C33.7235 201.366 33.4455 200.316 33.4318 198.926V197.203C33.4318 195.772 33.6984 194.699 34.2316 193.983C34.7694 193.268 35.5874 192.91 36.6857 192.91C37.7749 192.91 38.5861 193.259 39.1193 193.956C39.6571 194.653 39.9328 195.697 39.9465 197.087V198.81ZM38.2854 196.95C38.2854 196.016 38.1577 195.332 37.9025 194.899C37.6473 194.462 37.2417 194.243 36.6857 194.243C36.1434 194.243 35.7447 194.451 35.4895 194.865C35.2342 195.275 35.0998 195.918 35.0861 196.793V199.049C35.0861 199.979 35.216 200.671 35.4758 201.127C35.7355 201.583 36.1434 201.811 36.6994 201.811C37.2326 201.811 37.6268 201.601 37.882 201.182C38.1372 200.758 38.2717 200.097 38.2854 199.199V196.95Z" fill="white" fill-opacity="0.87"/>
<path d="M21.9131 236.999V238.373H21.708C20.7783 238.387 20.0355 238.642 19.4795 239.139C18.9235 239.635 18.5931 240.34 18.4883 241.251C19.0215 240.69 19.7028 240.41 20.5322 240.41C21.4118 240.41 22.1045 240.72 22.6104 241.34C23.1208 241.96 23.376 242.759 23.376 243.739C23.376 244.751 23.0775 245.571 22.4805 246.2C21.888 246.825 21.1087 247.137 20.1426 247.137C19.1491 247.137 18.3424 246.77 17.7227 246.036C17.1074 245.302 16.7998 244.341 16.7998 243.151V242.584C16.7998 240.839 17.2236 239.471 18.0713 238.482C18.9235 237.493 20.1471 236.999 21.7422 236.999H21.9131ZM20.1289 241.75C19.7643 241.75 19.4294 241.853 19.124 242.058C18.8232 242.263 18.6022 242.536 18.4609 242.878V243.384C18.4609 244.122 18.6159 244.71 18.9258 245.147C19.2357 245.58 19.6367 245.797 20.1289 245.797C20.6211 245.797 21.0107 245.612 21.2979 245.243C21.585 244.874 21.7285 244.389 21.7285 243.787C21.7285 243.186 21.5827 242.696 21.291 242.317C20.9993 241.939 20.612 241.75 20.1289 241.75ZM31.5895 242.81C31.5895 244.241 31.3206 245.321 30.7828 246.05C30.2496 246.774 29.4361 247.137 28.3424 247.137C27.2669 247.137 26.4557 246.784 25.9088 246.077C25.3665 245.366 25.0885 244.316 25.0748 242.926V241.203C25.0748 239.772 25.3414 238.699 25.8746 237.983C26.4124 237.268 27.2304 236.91 28.3287 236.91C29.4179 236.91 30.2291 237.259 30.7623 237.956C31.3001 238.653 31.5758 239.697 31.5895 241.087V242.81ZM29.9283 240.95C29.9283 240.016 29.8007 239.332 29.5455 238.899C29.2903 238.462 28.8847 238.243 28.3287 238.243C27.7864 238.243 27.3876 238.451 27.1324 238.865C26.8772 239.275 26.7428 239.918 26.7291 240.793V243.049C26.7291 243.979 26.859 244.671 27.1187 245.127C27.3785 245.583 27.7864 245.811 28.3424 245.811C28.8756 245.811 29.2698 245.601 29.525 245.182C29.7802 244.758 29.9146 244.097 29.9283 243.199V240.95ZM39.9465 242.81C39.9465 244.241 39.6776 245.321 39.1398 246.05C38.6066 246.774 37.7932 247.137 36.6994 247.137C35.6239 247.137 34.8127 246.784 34.2658 246.077C33.7235 245.366 33.4455 244.316 33.4318 242.926V241.203C33.4318 239.772 33.6984 238.699 34.2316 237.983C34.7694 237.268 35.5874 236.91 36.6857 236.91C37.7749 236.91 38.5861 237.259 39.1193 237.956C39.6571 238.653 39.9328 239.697 39.9465 241.087V242.81ZM38.2854 240.95C38.2854 240.016 38.1577 239.332 37.9025 238.899C37.6473 238.462 37.2417 238.243 36.6857 238.243C36.1434 238.243 35.7447 238.451 35.4895 238.865C35.2342 239.275 35.0998 239.918 35.0861 240.793V243.049C35.0861 243.979 35.216 244.671 35.4758 245.127C35.7355 245.583 36.1434 245.811 36.6994 245.811C37.2326 245.811 37.6268 245.601 37.882 245.182C38.1372 244.758 38.2717 244.097 38.2854 243.199V240.95Z" fill="white" fill-opacity="0.87"/>
<path d="M17.1895 286.064L17.7295 281.047H23.0752V282.482H19.1104L18.8369 284.861C19.2972 284.597 19.8167 284.465 20.3955 284.465C21.3434 284.465 22.0794 284.768 22.6035 285.374C23.1322 285.98 23.3965 286.796 23.3965 287.821C23.3965 288.833 23.1048 289.64 22.5215 290.241C21.9382 290.838 21.1383 291.137 20.1221 291.137C19.2106 291.137 18.4541 290.879 17.8525 290.364C17.2555 289.845 16.932 289.161 16.8818 288.313H18.4883C18.5521 288.797 18.7253 289.168 19.0078 289.428C19.2904 289.683 19.6595 289.811 20.1152 289.811C20.6257 289.811 21.0221 289.628 21.3047 289.264C21.5918 288.899 21.7354 288.402 21.7354 287.773C21.7354 287.167 21.5781 286.689 21.2637 286.338C20.9492 285.982 20.5163 285.805 19.9648 285.805C19.6641 285.805 19.4089 285.846 19.1992 285.928C18.9896 286.005 18.7617 286.16 18.5156 286.393L17.1895 286.064ZM31.5895 286.81C31.5895 288.241 31.3206 289.321 30.7828 290.05C30.2496 290.774 29.4361 291.137 28.3424 291.137C27.2669 291.137 26.4557 290.784 25.9088 290.077C25.3665 289.366 25.0885 288.316 25.0748 286.926V285.203C25.0748 283.772 25.3414 282.699 25.8746 281.983C26.4124 281.268 27.2304 280.91 28.3287 280.91C29.4179 280.91 30.2291 281.259 30.7623 281.956C31.3001 282.653 31.5758 283.697 31.5895 285.087V286.81ZM29.9283 284.95C29.9283 284.016 29.8007 283.332 29.5455 282.899C29.2903 282.462 28.8847 282.243 28.3287 282.243C27.7864 282.243 27.3876 282.451 27.1324 282.865C26.8772 283.275 26.7428 283.918 26.7291 284.793V287.049C26.7291 287.979 26.859 288.671 27.1187 289.127C27.3785 289.583 27.7864 289.811 28.3424 289.811C28.8756 289.811 29.2698 289.601 29.525 289.182C29.7802 288.758 29.9146 288.097 29.9283 287.199V284.95ZM39.9465 286.81C39.9465 288.241 39.6776 289.321 39.1398 290.05C38.6066 290.774 37.7932 291.137 36.6994 291.137C35.6239 291.137 34.8127 290.784 34.2658 290.077C33.7235 289.366 33.4455 288.316 33.4318 286.926V285.203C33.4318 283.772 33.6984 282.699 34.2316 281.983C34.7694 281.268 35.5874 280.91 36.6857 280.91C37.7749 280.91 38.5861 281.259 39.1193 281.956C39.6571 282.653 39.9328 283.697 39.9465 285.087V286.81ZM38.2854 284.95C38.2854 284.016 38.1577 283.332 37.9025 282.899C37.6473 282.462 37.2417 282.243 36.6857 282.243C36.1434 282.243 35.7447 282.451 35.4895 282.865C35.2342 283.275 35.0998 283.918 35.0861 284.793V287.049C35.0861 287.979 35.216 288.671 35.4758 289.127C35.7355 289.583 36.1434 289.811 36.6994 289.811C37.2326 289.811 37.6268 289.601 37.882 289.182C38.1372 288.758 38.2717 288.097 38.2854 287.199V284.95Z" fill="white" fill-opacity="0.87"/>
<path d="M460.232 286.81C460.232 288.241 459.964 289.321 459.426 290.05C458.893 290.774 458.079 291.137 456.985 291.137C455.91 291.137 455.099 290.784 454.552 290.077C454.009 289.366 453.731 288.316 453.718 286.926V285.203C453.718 283.772 453.984 282.699 454.518 281.983C455.055 281.268 455.873 280.91 456.972 280.91C458.061 280.91 458.872 281.259 459.405 281.956C459.943 282.653 460.219 283.697 460.232 285.087V286.81ZM458.571 284.95C458.571 284.016 458.444 283.332 458.188 282.899C457.933 282.462 457.528 282.243 456.972 282.243C456.429 282.243 456.031 282.451 455.775 282.865C455.52 283.275 455.386 283.918 455.372 284.793V287.049C455.372 287.979 455.502 288.671 455.762 289.127C456.021 289.583 456.429 289.811 456.985 289.811C457.519 289.811 457.913 289.601 458.168 289.182C458.423 288.758 458.558 288.097 458.571 287.199V284.95ZM462.546 286.064L463.087 281.047H468.432V282.482H464.467L464.194 284.861C464.654 284.597 465.174 284.465 465.753 284.465C466.7 284.465 467.436 284.768 467.961 285.374C468.489 285.98 468.754 286.796 468.754 287.821C468.754 288.833 468.462 289.64 467.879 290.241C467.295 290.838 466.495 291.137 465.479 291.137C464.568 291.137 463.811 290.879 463.21 290.364C462.613 289.845 462.289 289.161 462.239 288.313H463.845C463.909 288.797 464.082 289.168 464.365 289.428C464.647 289.683 465.017 289.811 465.472 289.811C465.983 289.811 466.379 289.628 466.662 289.264C466.949 288.899 467.092 288.402 467.092 287.773C467.092 287.167 466.935 286.689 466.621 286.338C466.306 285.982 465.873 285.805 465.322 285.805C465.021 285.805 464.766 285.846 464.556 285.928C464.347 286.005 464.119 286.16 463.873 286.393L462.546 286.064ZM476.946 286.81C476.946 288.241 476.678 289.321 476.14 290.05C475.607 290.774 474.793 291.137 473.699 291.137C472.624 291.137 471.813 290.784 471.266 290.077C470.724 289.366 470.446 288.316 470.432 286.926V285.203C470.432 283.772 470.698 282.699 471.232 281.983C471.769 281.268 472.587 280.91 473.686 280.91C474.775 280.91 475.586 281.259 476.119 281.956C476.657 282.653 476.933 283.697 476.946 285.087V286.81ZM475.285 284.95C475.285 284.016 475.158 283.332 474.903 282.899C474.647 282.462 474.242 282.243 473.686 282.243C473.143 282.243 472.745 282.451 472.489 282.865C472.234 283.275 472.1 283.918 472.086 284.793V287.049C472.086 287.979 472.216 288.671 472.476 289.127C472.736 289.583 473.143 289.811 473.699 289.811C474.233 289.811 474.627 289.601 474.882 289.182C475.137 288.758 475.272 288.097 475.285 287.199V284.95Z" fill="black" fill-opacity="0.87"/>
<path d="M458.243 248H456.589V240.009L454.148 240.843V239.441L458.031 238.013H458.243V248ZM468.589 243.81C468.589 245.241 468.321 246.321 467.783 247.05C467.25 247.774 466.436 248.137 465.342 248.137C464.267 248.137 463.456 247.784 462.909 247.077C462.366 246.366 462.088 245.316 462.075 243.926V242.203C462.075 240.772 462.341 239.699 462.875 238.983C463.412 238.268 464.23 237.91 465.329 237.91C466.418 237.91 467.229 238.259 467.762 238.956C468.3 239.653 468.576 240.697 468.589 242.087V243.81ZM466.928 241.95C466.928 241.016 466.801 240.332 466.546 239.899C466.29 239.462 465.885 239.243 465.329 239.243C464.786 239.243 464.388 239.451 464.132 239.865C463.877 240.275 463.743 240.918 463.729 241.793V244.049C463.729 244.979 463.859 245.671 464.119 246.127C464.379 246.583 464.786 246.811 465.342 246.811C465.876 246.811 466.27 246.601 466.525 246.182C466.78 245.758 466.915 245.097 466.928 244.199V241.95ZM476.946 243.81C476.946 245.241 476.678 246.321 476.14 247.05C475.607 247.774 474.793 248.137 473.699 248.137C472.624 248.137 471.813 247.784 471.266 247.077C470.724 246.366 470.446 245.316 470.432 243.926V242.203C470.432 240.772 470.698 239.699 471.232 238.983C471.769 238.268 472.587 237.91 473.686 237.91C474.775 237.91 475.586 238.259 476.119 238.956C476.657 239.653 476.933 240.697 476.946 242.087V243.81ZM475.285 241.95C475.285 241.016 475.158 240.332 474.903 239.899C474.647 239.462 474.242 239.243 473.686 239.243C473.143 239.243 472.745 239.451 472.489 239.865C472.234 240.275 472.1 240.918 472.086 241.793V244.049C472.086 244.979 472.216 245.671 472.476 246.127C472.736 246.583 473.143 246.811 473.699 246.811C474.233 246.811 474.627 246.601 474.882 246.182C475.137 245.758 475.272 245.097 475.285 244.199V241.95Z" fill="black" fill-opacity="0.87"/>
<path d="M460.438 203H453.745V201.858L457.061 198.242C457.539 197.709 457.879 197.265 458.079 196.909C458.284 196.549 458.387 196.189 458.387 195.829C458.387 195.355 458.252 194.972 457.983 194.681C457.719 194.389 457.361 194.243 456.91 194.243C456.372 194.243 455.955 194.407 455.659 194.735C455.363 195.063 455.215 195.512 455.215 196.082H453.554C453.554 195.476 453.69 194.931 453.964 194.448C454.242 193.961 454.636 193.582 455.146 193.313C455.661 193.045 456.254 192.91 456.924 192.91C457.89 192.91 458.651 193.154 459.207 193.642C459.768 194.125 460.048 194.795 460.048 195.651C460.048 196.148 459.907 196.67 459.624 197.217C459.346 197.759 458.888 198.377 458.25 199.069L455.816 201.674H460.438V203ZM468.589 198.81C468.589 200.241 468.321 201.321 467.783 202.05C467.25 202.774 466.436 203.137 465.342 203.137C464.267 203.137 463.456 202.784 462.909 202.077C462.366 201.366 462.088 200.316 462.075 198.926V197.203C462.075 195.772 462.341 194.699 462.875 193.983C463.412 193.268 464.23 192.91 465.329 192.91C466.418 192.91 467.229 193.259 467.762 193.956C468.3 194.653 468.576 195.697 468.589 197.087V198.81ZM466.928 196.95C466.928 196.016 466.801 195.332 466.546 194.899C466.29 194.462 465.885 194.243 465.329 194.243C464.786 194.243 464.388 194.451 464.132 194.865C463.877 195.275 463.743 195.918 463.729 196.793V199.049C463.729 199.979 463.859 200.671 464.119 201.127C464.379 201.583 464.786 201.811 465.342 201.811C465.876 201.811 466.27 201.601 466.525 201.182C466.78 200.758 466.915 200.097 466.928 199.199V196.95ZM476.946 198.81C476.946 200.241 476.678 201.321 476.14 202.05C475.607 202.774 474.793 203.137 473.699 203.137C472.624 203.137 471.813 202.784 471.266 202.077C470.724 201.366 470.446 200.316 470.432 198.926V197.203C470.432 195.772 470.698 194.699 471.232 193.983C471.769 193.268 472.587 192.91 473.686 192.91C474.775 192.91 475.586 193.259 476.119 193.956C476.657 194.653 476.933 195.697 476.946 197.087V198.81ZM475.285 196.95C475.285 196.016 475.158 195.332 474.903 194.899C474.647 194.462 474.242 194.243 473.686 194.243C473.143 194.243 472.745 194.451 472.489 194.865C472.234 195.275 472.1 195.918 472.086 196.793V199.049C472.086 199.979 472.216 200.671 472.476 201.127C472.736 201.583 473.143 201.811 473.699 201.811C474.233 201.811 474.627 201.601 474.882 201.182C475.137 200.758 475.272 200.097 475.285 199.199V196.95Z" fill="black" fill-opacity="0.87"/>
<path d="M455.666 153.265H456.678C457.188 153.26 457.591 153.128 457.888 152.868C458.188 152.608 458.339 152.232 458.339 151.74C458.339 151.266 458.214 150.899 457.963 150.64C457.717 150.375 457.339 150.243 456.828 150.243C456.382 150.243 456.015 150.373 455.728 150.633C455.44 150.888 455.297 151.223 455.297 151.638H453.636C453.636 151.127 453.77 150.662 454.039 150.243C454.312 149.824 454.691 149.498 455.174 149.266C455.661 149.029 456.206 148.91 456.808 148.91C457.801 148.91 458.58 149.161 459.146 149.662C459.715 150.159 460 150.852 460 151.74C460 152.187 459.856 152.608 459.569 153.005C459.287 153.397 458.92 153.693 458.469 153.894C459.016 154.08 459.43 154.374 459.713 154.775C460 155.176 460.144 155.655 460.144 156.211C460.144 157.104 459.836 157.815 459.221 158.344C458.61 158.872 457.806 159.137 456.808 159.137C455.851 159.137 455.067 158.882 454.456 158.371C453.845 157.861 453.54 157.182 453.54 156.334H455.201C455.201 156.771 455.347 157.127 455.639 157.4C455.935 157.674 456.331 157.811 456.828 157.811C457.343 157.811 457.749 157.674 458.045 157.4C458.341 157.127 458.489 156.73 458.489 156.211C458.489 155.687 458.334 155.284 458.024 155.001C457.715 154.718 457.254 154.577 456.644 154.577H455.666V153.265ZM468.589 154.81C468.589 156.241 468.321 157.321 467.783 158.05C467.25 158.774 466.436 159.137 465.342 159.137C464.267 159.137 463.456 158.784 462.909 158.077C462.366 157.366 462.088 156.316 462.075 154.926V153.203C462.075 151.772 462.341 150.699 462.875 149.983C463.412 149.268 464.23 148.91 465.329 148.91C466.418 148.91 467.229 149.259 467.762 149.956C468.3 150.653 468.576 151.697 468.589 153.087V154.81ZM466.928 152.95C466.928 152.016 466.801 151.332 466.546 150.899C466.29 150.462 465.885 150.243 465.329 150.243C464.786 150.243 464.388 150.451 464.132 150.865C463.877 151.275 463.743 151.918 463.729 152.793V155.049C463.729 155.979 463.859 156.671 464.119 157.127C464.379 157.583 464.786 157.811 465.342 157.811C465.876 157.811 466.27 157.601 466.525 157.182C466.78 156.758 466.915 156.097 466.928 155.199V152.95ZM476.946 154.81C476.946 156.241 476.678 157.321 476.14 158.05C475.607 158.774 474.793 159.137 473.699 159.137C472.624 159.137 471.813 158.784 471.266 158.077C470.724 157.366 470.446 156.316 470.432 154.926V153.203C470.432 151.772 470.698 150.699 471.232 149.983C471.769 149.268 472.587 148.91 473.686 148.91C474.775 148.91 475.586 149.259 476.119 149.956C476.657 150.653 476.933 151.697 476.946 153.087V154.81ZM475.285 152.95C475.285 152.016 475.158 151.332 474.903 150.899C474.647 150.462 474.242 150.243 473.686 150.243C473.143 150.243 472.745 150.451 472.489 150.865C472.234 151.275 472.1 151.918 472.086 152.793V155.049C472.086 155.979 472.216 156.671 472.476 157.127C472.736 157.583 473.143 157.811 473.699 157.811C474.233 157.811 474.627 157.601 474.882 157.182C475.137 156.758 475.272 156.097 475.285 155.199V152.95Z" fill="black" fill-opacity="0.87"/>
<path d="M459.364 111.452H460.602V112.785H459.364V115H457.703V112.785H453.403L453.355 111.773L457.648 105.047H459.364V111.452ZM455.099 111.452H457.703V107.296L457.58 107.515L455.099 111.452ZM468.589 110.81C468.589 112.241 468.321 113.321 467.783 114.05C467.25 114.774 466.436 115.137 465.342 115.137C464.267 115.137 463.456 114.784 462.909 114.077C462.366 113.366 462.088 112.316 462.075 110.926V109.203C462.075 107.772 462.341 106.699 462.875 105.983C463.412 105.268 464.23 104.91 465.329 104.91C466.418 104.91 467.229 105.259 467.762 105.956C468.3 106.653 468.576 107.697 468.589 109.087V110.81ZM466.928 108.95C466.928 108.016 466.801 107.332 466.546 106.899C466.29 106.462 465.885 106.243 465.329 106.243C464.786 106.243 464.388 106.451 464.132 106.865C463.877 107.275 463.743 107.918 463.729 108.793V111.049C463.729 111.979 463.859 112.671 464.119 113.127C464.379 113.583 464.786 113.811 465.342 113.811C465.876 113.811 466.27 113.601 466.525 113.182C466.78 112.758 466.915 112.097 466.928 111.199V108.95ZM476.946 110.81C476.946 112.241 476.678 113.321 476.14 114.05C475.607 114.774 474.793 115.137 473.699 115.137C472.624 115.137 471.813 114.784 471.266 114.077C470.724 113.366 470.446 112.316 470.432 110.926V109.203C470.432 107.772 470.698 106.699 471.232 105.983C471.769 105.268 472.587 104.91 473.686 104.91C474.775 104.91 475.586 105.259 476.119 105.956C476.657 106.653 476.933 107.697 476.946 109.087V110.81ZM475.285 108.95C475.285 108.016 475.158 107.332 474.903 106.899C474.647 106.462 474.242 106.243 473.686 106.243C473.143 106.243 472.745 106.451 472.489 106.865C472.234 107.275 472.1 107.918 472.086 108.793V111.049C472.086 111.979 472.216 112.671 472.476 113.127C472.736 113.583 473.143 113.811 473.699 113.811C474.233 113.811 474.627 113.601 474.882 113.182C475.137 112.758 475.272 112.097 475.285 111.199V108.95Z" fill="black" fill-opacity="0.87"/>
</svg>
